<?xml version="1.0" encoding="UTF-8" ?>
<!-- 
Base16-wallpaper project by Lodobo, https://github.com/Lodobo
Scheme: Outrun Dark by Hugo Delahousse (http://github.com/hugodelahousse/)

Wallpaper: heart chequer pattern.

Original taken from Pixabay <https://pixabay.com/vectors/card-checker-chequered-decor-1167162/>

-->

<svg version="1.0" xmlns="http://www.w3.org/2000/svg" width="1920" height="1080" viewBox="0 0 1920 1080">
   <defs>
        <mask id="mask" x="0" y="0" width="240" height="240">
            <rect x="0" y="0" width="240" height="240" fill="white" />
            <path id="solid-heart" stroke="none" 
                d="M 150.7 40 C 180.87 40 210 60.98 210 90.76 C 210 153.9 121.6 200 120 200 C 118.4 200 30 153.9 30 97.6 C 30 69.8 51.3 40 83 40 C 112 40 113.1 49.1 120 57.1 C 126.9 49.1 138.8 40 157 40 Z" />
        </mask>
        <pattern id="heart-pattern" width="240" height="240" patternUnits="userSpaceOnUse">
            <g transform="scale(0.5)" stroke="none" fill="#ff4242">
                <rect id="heart-solid-outline" width="240" height="240" mask="url(#mask)" opacity="0.5" />
                <use href="#solid-heart" transform="translate(0 240)" opacity="0.5" />
                <path id="heart-sketch" transform="translate(240 0)"
                    d="m 85.189,44.128 c -2.468,1.653 -47.24,29.108 -49.95,30.759 -1.19,0.709 -1.429,0.47 -0.852,-0.475 0.476,-0.706 6.364,-5.066 12.957,-9.548 13.918,-9.183 16.665,-11.657 15.1,-13.19 -1.283,-1.297 -6.218,0.588 -13.534,5.175 -8.159,5.185 -5.888,5.542 2.71,0.356 12.489,-7.535 10.018,-3.879 -3.416,5.186 -13.441,8.96 -18.762,13.674 -17.479,15.089 1.337,1.177 6.986,-1.884 30.436,-16.505 26.165,-16.139 24.646,-15.194 24.646,-14.487 0,0.351 -11.823,8.605 -26.303,18.258 C 33.581,82.195 28.023,86.558 29.681,88.089 30.825,89.387 36.85,86.086 65.153,68.282 79.776,59.204 92.026,51.91 92.406,52.262 92.739,52.614 79.301,61.446 62.59,71.82 30.486,91.862 24.598,95.988 26.027,97.521 27.639,99.171 33.673,95.87 65.053,76.184 94.496,57.676 104.43,51.91 97.586,57.437 95.921,58.734 89.082,63.216 82.245,67.461 41.794,92.452 34.049,97.403 30.156,100.47 c -7.929,6.14 -4.605,7.91 4.707,2.48 3.086,-1.77 19.321,-11.794 36.177,-22.288 16.855,-10.489 32.53,-19.925 34.81,-20.983 l 4.09,-2.003 -2.9,2.355 c -3.18,2.592 -12.07,8.134 -49.533,31.125 -24.979,15.334 -33.046,21.114 -31.48,22.754 1.428,1.54 10.256,-3.41 48.906,-27.47 20.275,-12.498 37.757,-23.104 38.947,-23.461 4.6,-1.533 -5.32,5.071 -32.821,21.457 -33.331,20.174 -47.01,28.894 -50.097,32.304 -2.087,2.36 -2.087,2.36 0.815,2.36 1.896,0 18.653,-9.43 42.207,-23.583 21.604,-12.968 39.896,-23.578 40.556,-23.578 2.14,0 -2.57,3.067 -37.945,24.403 -34.425,20.878 -44.067,27.598 -42.309,29.368 1.428,1.42 11.538,-4.01 45.964,-24.53 17.336,-10.379 31.87,-18.631 32.2,-18.278 0.81,0.826 -6.5,5.424 -33.719,21.468 -29.959,17.44 -40.123,24.05 -40.123,26.06 0,0.94 0.623,1.64 1.236,1.64 1.95,0 14.715,-6.72 37.701,-20.04 30.445,-17.456 35.475,-20.286 36.185,-19.696 0.63,0.707 -7.45,5.541 -38.323,23.116 -13.769,7.79 -27.44,15.79 -30.435,17.8 -5.036,3.54 -5.887,5.89 -1.95,5.89 1.859,0 13.204,-5.43 20.136,-9.66 6.267,-3.89 4.225,-1.54 -2.327,2.71 -7.316,4.72 -13.963,10.25 -13.963,11.79 0,4.83 17.334,-4.6 65.442,-35.49 50.57,-32.425 66.24,-42.211 77.5,-47.871 6.54,-3.3 7.63,-3.533 5.51,-0.822 -2.71,3.3 -24.89,17.213 -75.31,47.393 -49.778,29.72 -66.302,40.57 -66.971,44.1 -0.851,4.13 5.037,1.89 21.894,-8.26 4.843,-2.94 8.831,-5.07 9.069,-4.83 0.38,0.23 -3.419,3.06 -8.214,6.25 -10.735,6.95 -15.716,11.9 -13.913,13.67 0.806,0.83 4.561,-0.59 12.582,-4.72 6.269,-3.17 11.35,-5.64 11.35,-5.53 0,0.23 -2.28,1.88 -4.986,3.66 -17.755,11.54 -13.912,15.43 4.843,4.82 6.267,-3.41 31.256,-18.85 55.576,-34.3 40.64,-25.825 67.41,-41.858 69.89,-41.858 4.36,0 -15.25,12.849 -63.44,41.268 -61.646,36.56 -77.221,47.03 -72.283,48.93 1.093,0.47 4.749,-0.71 8.12,-2.48 l 6.363,-3.07 -2.564,2.84 c -3.324,3.52 -3.419,4.47 -0.237,4.47 3.655,0 18.761,-8.84 62.031,-36.31 42.91,-27.11 59.77,-37.258 61.53,-36.551 2.13,0.706 -11.3,9.681 -49.3,32.901 -47.62,29.12 -59.86,37.01 -64.62,41.49 -7.505,7.19 -3.516,7.55 8.88,0.72 4.71,-2.6 25.45,-15.33 45.88,-28.3 41.12,-26.05 55.51,-34.66 56.45,-33.72 1.19,1.06 -9.54,8.25 -38.46,25.71 -60.69,36.78 -70.943,43.61 -71.664,47.49 -0.326,1.78 0,2 2.244,1.3 4.27,-1.41 21.93,-11.89 54.71,-32.65 35.51,-22.4 47.76,-29.71 48.56,-28.88 0.82,0.94 -13.2,10.13 -46.2,30.3 -45.77,27.94 -54.51,33.94 -51.42,35.83 1.8,1.18 5.56,-0.94 40.22,-22.86 38.41,-24.17 40.08,-25.11 40.08,-24.29 0,0.95 -16.53,11.68 -46.58,30.31 -23.08,14.25 -32.68,21.33 -30.96,22.85 0.9,0.95 35.09,-19.44 35.09,-20.85 0,-1.19 -2.71,0.11 -11.21,5.52 -10.82,6.85 -14.72,9.09 -14.72,8.38 0,-0.25 6.26,-4.36 13.92,-9.08 41.82,-25.81 48.42,-30.06 53.65,-33.94 4.7,-3.54 7.17,-7.19 4.93,-7.19 -1.9,0 -13.19,6.71 -43.4,25.81 -34.28,21.68 -38.55,24.15 -38.55,23.22 0,-1.06 16.86,-12.02 46.11,-29.94 38.22,-23.34 45.86,-28.18 49.75,-31.83 6.46,-6.13 2.47,-6.72 -7.3,-1.18 -3.66,2.01 -24.65,14.98 -46.68,28.65 -39.65,24.76 -51.1,31.48 -49.53,29 1.28,-2.24 16.05,-11.67 49.53,-31.95 50.81,-30.76 64,-39.84 60.83,-41.74 -2.71,-1.64 -10.4,2.72 -62.01,35.26 -42.13,26.52 -50.727,31.59 -52.627,31.01 -1.616,-0.6 24.797,-17.92 59.087,-38.68 45.91,-27.93 58.96,-36.89 58.96,-40.321 0,-1.533 -3.32,-1.061 -7.45,0.825 -3.76,1.776 -3.76,1.776 -0.81,-0.235 1.66,-1.18 4.22,-3.42 5.89,-5.069 2.94,-2.947 2.94,-2.947 0.37,-3.301 -4.5,-0.708 -13.1,4.243 -73.69,42.571 -37.12,23.46 -58.36,36.19 -60.496,36.19 -0.475,0 0,-1.07 1.33,-2.48 2.944,-3.3 23.076,-15.91 65.916,-41.13 51.14,-30.319 67.76,-41.046 67.76,-43.759 0,-3.652 -1.42,-3.419 -11.21,1.416 -7.07,3.536 -6.69,3.065 4.51,-4.835 6.36,-4.359 8.59,-8.253 4.71,-8.253 -3.65,0 -25.36,12.735 -74.89,43.991 -44.783,28.29 -69.804,43.26 -72.131,43.26 -4.706,0 15.192,-13.2 66.481,-44.21 63.06,-38.088 77.83,-48.226 74.65,-51.412 -0.81,-0.823 -3.99,0.355 -10.5,3.656 -5.22,2.597 -7.79,3.538 -5.8,2.123 7.22,-5.424 10.41,-8.841 9.55,-10.138 -1.05,-1.638 -7.31,0.47 -15.67,5.423 -8.02,4.833 -8.02,3.888 0,-1.415 3.42,-2.242 7.46,-5.414 8.98,-7.061 2.47,-2.593 2.6,-3.067 0.81,-3.77 -3.28,-1.302 -20.05,8.001 -56.13,31.225 -8.74,5.66 -17.42,11.318 -19.42,12.497 -3.09,2.006 -3.33,2.006 -1.89,0.237 0.79,-1.061 3.49,-3.184 5.88,-4.598 2.37,-1.415 15.57,-9.903 29.35,-18.982 13.91,-8.959 27.01,-17.198 29.25,-18.143 4.12,-2.003 5.64,-4.478 1.99,-3.063 -2.71,1.06 -7.08,3.771 -34.52,21.562 -23.13,15.089 -32.44,20.629 -25.46,15.207 1.85,-1.532 13.3,-8.958 25.31,-16.741 25.12,-16.02 33.72,-23.213 27.92,-23.213 -0.89,0 -11.15,6.248 -22.74,13.902 -20.36,13.557 -33.95,21.928 -31.57,19.449 0.71,-0.708 7.3,-5.775 14.76,-11.315 14.34,-10.613 19.8,-15.669 18.47,-16.966 -0.47,-0.469 -2.8,0.119 -5.27,1.297 -6.36,2.948 -22.65,13.779 -22.65,14.961 0,1.06 5.03,-1.889 14.72,-8.371 2.61,-1.766 6.04,-3.878 7.69,-4.706 2.95,-1.527 2.95,-1.527 0.82,0.828 -3.1,3.408 -31.02,23.921 -32.54,23.921 -2.22,0 -7.07,2.711 -39.035,21.806 -16.521,9.91 -32.426,19.11 -35.375,20.53 -11.345,5.54 0.239,-2.12 34.425,-22.768 34.765,-20.983 43.505,-27 41.985,-28.409 -1.81,-1.891 -7.88,1.409 -40.703,21.1 C 59.266,102.48 41.602,112.85 38.608,114.27 27.455,119.7 38.755,112.14 69.615,93.63 113.73,67.105 121.86,61.446 118.82,59.56 117.16,58.501 111.27,61.92 70.564,87.265 34.763,109.43 31.585,111.32 30.962,110.62 30.257,110.03 40.275,103.66 74.838,82.432 105,64.037 114.21,57.556 112.55,55.918 111.17,54.384 102.52,59.204 68.713,80.073 38.132,99.055 25.413,106.49 30.962,102.01 33.581,99.879 50.055,89.387 78.731,71.582 98.297,59.56 105.85,53.915 104.33,52.381 102.91,50.965 95.588,54.974 66.335,73.354 51.474,82.667 37.088,91.509 34.478,93.041 c -4.322,2.476 -4.459,2.476 -1.849,0.236 1.52,-1.415 15.804,-10.61 31.719,-20.512 29.816,-18.5 40.792,-26.632 36.032,-26.751 -1.42,0 -16.616,8.84 -33.944,19.558 C 49.102,76.421 34.763,85.025 34.478,84.671 34.149,84.436 45.448,76.421 59.595,66.868 82.624,51.441 91.694,44.599 91.694,43.069 c 0,-1.177 -4.273,-0.475 -6.505,1.059 z m 88.421,5.186 c -3.51,2.948 -11.77,8.48 -31.24,20.859 -12.02,7.659 -23.31,15.206 -25.31,16.738 -3.57,2.83 -60.981,35.849 -70.376,40.439 l -5.082,2.49 3.178,-2.71 c 1.758,-1.54 14.486,-9.32 28.301,-17.46 13.77,-8.02 29.439,-17.454 34.759,-20.872 5.18,-3.419 10.36,-6.249 11.22,-6.249 0.95,0 13.29,-7.662 27.59,-17.096 14.14,-9.297 26.3,-17.08 26.96,-17.08 0.63,0 0.63,0.351 0,0.941 z m -77.833,1.415 c -0.332,0.593 -1.281,1.181 -1.851,1.181 -0.712,0 -0.855,-0.588 -0.475,-1.181 0.38,-0.703 1.282,-1.178 1.899,-1.178 0.712,0 0.807,0.475 0.427,1.178 z m 94.353,2.359 C 188.15,56.27 163.5,71.582 115.88,99.055 101,107.66 87.563,115.57 86.138,116.52 c -1.519,0.94 -2.705,1.4 -2.705,1.05 0,-0.35 1.994,-1.88 4.462,-3.3 2.374,-1.53 18.195,-11.56 35.045,-22.289 50.57,-32.421 70.14,-43.726 67.19,-38.893 z m 12.4,11.894 c -7.69,6.131 -26.54,18.157 -66.62,42.338 -23.94,14.38 -45.166,27.36 -46.922,28.52 -1.899,1.31 -3.561,2.12 -3.893,1.78 -0.381,-0.24 2.231,-2.24 5.649,-4.49 3.42,-2.13 21.376,-13.79 39.846,-25.81 51.61,-33.73 69.9,-44.811 73.56,-44.811 0.75,0 0,1.177 -1.62,2.473 z m 8.21,7.546 c 0,1.652 -26.73,18.038 -76.02,46.572 -14.86,8.62 -28.44,16.52 -30.05,17.45 -1.67,1.07 -2.38,1.3 -1.76,0.6 1.76,-1.9 77.34,-49.413 91.83,-57.785 11.68,-6.6 16,-8.604 16,-6.837 z m -53.61,5.19 c -1.79,1.529 -71.466,45.982 -84.904,53.992 -12.016,7.32 -21.082,12.15 -22.511,12.15 -3.983,0 14.633,-12.62 43.736,-29.71 11.689,-6.83 30.779,-18.044 42.459,-24.882 20.75,-12.145 23.46,-13.672 21.22,-11.55 z m 1.2,9.428 c -2.62,2.122 -74.091,48.234 -86.578,55.774 -12.248,7.31 -17.76,9.67 -16.149,6.95 1.576,-2.47 22.179,-15.56 60.837,-38.67 22.99,-13.797 42.07,-25.114 42.45,-25.114 0.24,0 0,0.472 -0.56,1.06 z m 53.6,4.244 c 0,1.297 -19.09,13.22 -47.14,29.48 -16.49,9.56 -31.97,18.39 -34.2,19.8 -2.24,1.31 -3.51,1.77 -2.94,1.19 1.81,-1.89 55.03,-35.25 69.46,-43.631 12.11,-6.956 14.82,-8.253 14.82,-6.839 z m -39.45,8.73 c -1.68,1.42 -76.323,48.34 -86.342,54.11 -4.605,2.72 -9.875,5.54 -11.681,6.13 -3.276,1.3 -3.276,1.3 -1.043,-1.17 1.187,-1.3 7.549,-5.89 14.007,-10.03 11.347,-7.18 84.429,-49.989 85.619,-50.105 0.24,0 0,0.469 -0.56,1.065 z m -67.24,1.18 c -2.14,2.01 -42.467,26.53 -52.201,31.71 -9.541,5.08 -14.147,6.25 -7.682,1.89 4.029,-2.59 59.643,-34.55 60.493,-34.66 0.24,0 0,0.47 -0.61,1.06 z m -22.995,17.22 c 0,0.23 -1.186,1.06 -2.564,1.77 -2.612,1.28 -2.612,1.17 -0.474,-0.49 2.469,-1.99 3.038,-2.23 3.038,-1.28 z m 80.785,6.36 c -1.68,1.41 -53.9,34.19 -62.5,39.13 -13.916,8.02 -17.668,8.38 -6.699,0.83 5.504,-3.89 68.719,-41.02 69.759,-41.02 0.24,0 0,0.46 -0.56,1.06 z m -61.88,13.67 c 0,0.24 -1.238,1.07 -2.613,1.78 -2.616,1.3 -2.616,1.17 -0.48,-0.47 2.473,-2.01 3.093,-2.24 3.093,-1.31 z" />
                <path id="heart-sketch-outline" transform="translate(240 240)"
                    d="m 216.93,225.07 c -11.17,9.29 -14.16,12.52 -11.51,12.52 0.46,0 4.48,-2.2 8.86,-4.96 19.98,-12.38 19.17,-12.04 10.34,-3.9 -7.81,7.24 -9.76,11.38 -3.21,6.9 1.72,-1.27 5.15,-3.45 7.68,-4.95 4.25,-2.52 4.36,-2.64 3.1,-0.23 -0.69,1.27 -1.84,2.76 -2.41,3.11 -1.96,1.14 -1.27,4.03 0.91,4.03 2.53,0 5.52,-1.96 4.49,-3 -0.35,-0.46 -1.5,-0.11 -2.53,0.69 -2.76,2.31 -1.96,-0.23 1.84,-5.17 3.7,-4.93 2.75,-6.54 -1.96,-3.45 -5.05,3.33 -4.26,1.04 1.15,-3.43 2.99,-2.41 5.31,-4.71 5.31,-5.28 0,-2.3 -3.58,-0.69 -15.41,7 -6.88,4.47 -12.65,7.92 -12.88,7.68 -0.23,-0.22 3.93,-3.9 9.33,-8.14 5.27,-4.24 9.97,-8.15 10.32,-8.84 1.84,-2.87 -2.18,0 -13.42,9.42 z m 11.7,3.89 c 0,0.23 -1.15,1.15 -2.52,1.84 -2.42,1.26 -2.53,1.26 -1.03,-0.46 1.48,-1.84 3.55,-2.64 3.55,-1.38 z m 1.61,-91.98 c -7.34,3.44 -29.28,16.54 -87.19,52.37 -64.007,39.61 -91.126,55.02 -79.288,45.35 1.95,-1.6 14.129,-10.44 27.228,-19.62 25.07,-17.68 26.89,-19.18 25.64,-21.02 -1.04,-1.84 -8.53,2.3 -38.62,21.36 -30.675,19.52 -35.616,22.51 -36.306,21.7 -0.227,-0.23 14.13,-10.34 32.167,-22.27 17.92,-12.08 33.209,-22.74 33.999,-23.66 2.99,-3.56 0.12,-4.15 -5.61,-1.26 -7.709,3.9 -8.169,3.56 -2.529,-1.27 4.239,-3.57 5.389,-6.21 2.639,-6.21 -1.73,0 -21.379,11.84 -46.198,27.91 -28.826,18.49 -40.087,25.27 -40.894,24.46 -0.69,-0.69 12.177,-9.3 38.836,-25.61 39.066,-24.12 46.186,-29.16 44.116,-31.22 -1.95,-2.07 -8.509,1.71 -48.825,27.88 -27.117,17.59 -44.5776,28.26 -46.4177,28.26 -2.06961,0 8.2687,-6.89 42.0477,-28.02 33.546,-21.02 44.006,-28.01 43.086,-28.93 -0.35,-0.34 -3.789,1.72 -7.82,4.46 -4.021,2.88 -19.179,12.54 -33.766,21.48 C 6.547,227.92 -1.7224,233.9 0.45755,236.2 1.9476,237.59 17.578,228.5 50.325,207.26 80.42,187.74 96.501,178.1 96.501,179.47 c 0,1.04 -12.399,9.08 -41.817,27.32 -29.409,18.28 -42.046,26.77 -42.046,28.49 0,3.46 6.198,0.92 20.446,-8.27 3.912,-2.52 7.471,-4.35 7.811,-4.12 0.35,0.34 -1.371,1.83 -3.79,3.31 -7.808,4.6 -14.359,10.46 -13.209,11.62 1.609,1.6 7.581,-1.73 42.165,-23.77 30.56,-19.53 41.699,-26.08 40.339,-23.66 -0.47,0.69 -12.309,8.84 -26.32,18.13 -39.065,25.96 -46.074,31.37 -40.215,31.37 2.42,0 6.78,-2.54 39.975,-23.55 15.17,-9.66 28.83,-18.14 30.21,-18.83 4.63,-2.41 3.94,-0.69 -1.25,2.87 -2.64,1.93 -14.359,10.2 -26.079,18.49 -22.178,15.72 -26.31,19.06 -24.238,20.44 1.491,0.92 8.84,-2.31 19.408,-8.51 4.48,-2.64 8.508,-4.71 8.97,-4.71 0.45,0 -1.61,2.07 -4.601,4.71 -5.98,5.29 -6.549,6.79 -2.527,6.79 5.278,0 19.758,-8.52 70.787,-41.34 55.01,-35.51 73.75,-46.86 80.41,-48.81 2.64,-0.81 2.75,-0.81 1.14,1.14 -3.1,3.68 -21.83,15.62 -67.77,43.07 -52.63,31.47 -60.33,36.27 -66.65,42.02 -5.169,4.72 -5.74,6.22 -2.18,6.22 4.61,0 20.46,-9.44 79.74,-47.32 40.22,-25.61 55.48,-34.81 56.4,-33.89 0.92,0.91 -8.94,7.36 -50.09,32.62 -43.4,26.65 -59.73,37.2 -65.7,42.6 -8.96,8.05 -3.12,8.17 10.91,0.12 5.73,-3.22 24.02,-14.58 40.91,-25.39 50.89,-32.71 68.46,-43.17 64.43,-38.23 -2.29,2.88 -14.57,10.67 -50.55,32.14 -16.76,10 -33.53,20.23 -37.33,22.75 -15.96,10.56 -18.15,16.43 -3.32,8.84 4.59,-2.41 5.73,-2.76 3.66,-1.15 -3.22,2.41 -4.36,5.76 -2.06,5.76 2.76,0 14.93,-7.14 47.11,-27.46 38.01,-24.12 44.68,-28.14 45.48,-27.34 0.92,0.81 -5.74,5.18 -38.59,25.5 -30.1,18.48 -39.53,25.26 -38.5,27.1 1.27,1.85 8.75,-2.3 38.39,-21.23 31.46,-19.98 34.45,-21.82 35.25,-21.02 0.35,0.35 -10.43,7.92 -23.89,16.87 -32.73,22.05 -36.75,25.27 -31.24,25.27 2.29,0 3.54,-0.8 32.38,-19.28 12.32,-7.83 22.53,-14.03 22.75,-13.69 0.35,0.23 -6.31,5.29 -14.68,11.27 -26.66,18.6 -31.62,22.86 -27.01,22.86 0.93,0 10,-5.41 20.44,-12.07 11.05,-7 19.64,-11.82 20.68,-11.47 2.18,0.68 6.32,-3.47 4.6,-4.5 -1.5,-1.03 -3.34,0 -20.67,11.04 -7.71,5.05 -14.36,8.83 -14.59,8.6 -0.34,-0.23 7.1,-5.85 16.43,-12.5 17.1,-12.19 20.78,-15.27 19.4,-16.65 -1.15,-1.15 -5.63,1.38 -29.18,16.41 -39.06,25.04 -39.28,23.9 -0.58,-2.4 14.96,-10.13 27.69,-19.3 28.38,-20.33 1.95,-3.22 0.12,-3.57 -5.05,-0.92 -6.42,3.33 -6.99,2.3 -0.92,-1.72 12.19,-7.94 13.46,-11.84 2.41,-7.83 -1.73,0.58 -1.49,0.11 0.69,-2.29 1.61,-1.72 2.53,-3.43 2.07,-3.78 -1.38,-1.37 -6.09,0.69 -18.48,8.14 -6.91,4.15 -12.66,7.36 -12.89,7.13 -0.23,-0.23 5.28,-3.9 12.31,-8.28 17.45,-10.55 24.13,-16.64 18.6,-16.64 -4.25,0 -14.58,6.09 -62.96,37.08 -34.81,22.28 -48.14,30.44 -53.42,32.74 l -4.01,1.61 2.29,-2.53 c 3.22,-3.68 32.06,-22.5 69.49,-45.35 32.54,-19.87 50.1,-31.14 51.25,-32.86 0.35,-0.57 -0.23,-1.37 -1.26,-1.72 -3.45,-1.38 -17.33,6.78 -73.54,42.85 -47.89,30.76 -66.05,41.34 -66.05,38.35 0,-2.31 24.59,-17.8 85.59,-54.1 38.85,-23.09 54.57,-33.64 54.57,-36.86 0,-1.95 -5.86,-1.03 -11.83,1.96 -7.35,3.67 -6.07,2.41 4.48,-4.48 11.74,-7.7 13,-12.3 2.07,-7.24 z m 3.56,1.61 c -8.04,5.74 -89.96,54.44 -102.25,60.87 -10.79,5.5 62.28,-39.87 89.29,-55.47 6.98,-4.02 13.07,-7.13 13.42,-6.78 0.34,0.35 0.11,0.93 -0.46,1.38 z m -33.88,23.65 c 0,0.22 -2.76,2.19 -5.97,4.26 -3.34,2.07 -21.83,14.01 -41.14,26.41 -46.54,29.86 -69.29,43.52 -72.97,43.52 -5.157,0 18.622,-15.72 60.91,-40.3 17.68,-10.24 38.14,-22.17 45.37,-26.42 14.03,-8.28 13.8,-8.16 13.8,-7.47 z m 32.04,17.12 c -3.33,2.74 -54.34,33.76 -61.35,37.33 -8.16,4.13 37.57,-25.5 52.29,-33.9 4.69,-2.63 8.71,-4.57 9.06,-4.34 0.23,0.33 0.23,0.79 0,0.91 z m -2.18,4.81 c 0,0.23 -1.73,1.38 -3.67,2.3 l -3.78,1.85 2.86,-2.31 c 2.75,-2.3 4.59,-2.99 4.59,-1.84 z m -130.399,2.76 c -2.991,3 -56.876,36.08 -57.566,35.39 -0.338,-0.23 11.258,-8.05 25.628,-17.13 31.359,-19.98 36.997,-23.2 31.938,-18.26 z m -4.141,6.44 c -1.38,1.38 -56.406,36.16 -62.495,39.5 -11.489,6.21 -2.53,-0.46 14.711,-11.13 8.378,-5.17 22.167,-13.8 30.665,-19.08 13.099,-8.26 19.419,-11.58 17.119,-9.29 z m 106.4,0.46 c -1.6,1.38 -53.88,34.55 -60.66,38.46 -2.98,1.73 -6,2.99 -6.57,2.76 -1.71,-0.57 9.89,-8.27 39.09,-25.84 23.89,-14.46 31.8,-18.82 28.14,-15.38 z m 21.82,2.18 c -2.41,2.19 -58.01,36.97 -59.97,37.66 -1.85,0.57 -1.85,0.46 0.23,-1.26 4.48,-3.68 58.03,-37.08 59.74,-37.2 0.7,-0.11 0.7,0.23 0,0.8 z m -16.67,1.85 c 0,0.57 -46.76,30.18 -55.48,35.12 -3.67,2.07 -6.89,3.45 -7.24,3.22 -0.68,-0.81 9.2,-7.13 38.02,-24.35 24.94,-14.92 24.7,-14.8 24.7,-13.99 z m -76.96,2.41 c 0,0.23 -1.14,1.03 -2.53,1.72 -2.53,1.24 -2.53,1.13 -0.46,-0.46 2.41,-1.95 2.99,-2.18 2.99,-1.26 z m -39.07,24.1 c -0.799,0.92 -2.07,1.72 -2.759,1.72 -0.69,0 -0.23,-0.8 0.919,-1.72 2.871,-2.17 3.68,-2.17 1.84,0 z m 109.16,5.74 c 0,0.23 -1.14,1.15 -2.53,1.84 -2.41,1.26 -2.52,1.26 -1.03,-0.46 1.49,-1.84 3.56,-2.64 3.56,-1.38 z m 22.41,-119.09 c -14.5,9.31 -14.15,9.08 -12.2,6.78 2.52,-3.09 0.34,-2.29 -5.76,2.18 -5.48,4.02 -6.98,6.21 -4.1,6.21 0.69,0 6.87,-3.56 13.79,-8.04 6.78,-4.36 12.27,-7.82 12.27,-7.47 0,0.22 -7.1,5.41 -15.97,11.37 -8.72,6.09 -16.76,12.06 -17.91,13.32 -4.97,5.4 2.99,1.84 19.52,-8.72 19.07,-12.28 23.55,-14.71 18.38,-10.22 -1.84,1.6 -18.73,12.75 -37.44,24.69 -37.23,23.88 -44.13,28.59 -43.08,29.51 1.48,1.61 8.38,-2.18 39.29,-21.47 35.84,-22.63 47.32,-29.29 48.24,-28.37 1.05,1.03 -21.13,15.04 -65.01,40.99 -45.05,26.65 -51.02,30.44 -49.99,32.28 1.5,2.3 11.82,-3.33 61.46,-34.12 36.1,-22.26 51.24,-30.76 52.96,-29.73 0.58,0.46 1.06,0.11 1.06,-0.46 0,-2.18 -3.13,-1.38 -11.17,2.86 -9.17,4.71 -8.59,4.14 3.33,-4.01 8.07,-5.51 11.05,-8.73 9.68,-10.23 -1.04,-1.03 -7.95,2.42 -22.98,11.49 -8.18,4.94 -14.95,8.84 -15.17,8.61 -0.23,-0.23 5.61,-4.36 13.1,-9.18 18.47,-11.95 26.66,-19.19 21.69,-19.19 -0.8,0 -9.07,4.95 -18.47,10.92 -9.45,6.09 -17.58,11.25 -18.04,11.59 -0.58,0.34 -1.03,0.34 -1.03,0 0,-0.23 5.83,-4.47 12.96,-9.41 15.16,-10.33 22.63,-16.3 22.63,-17.8 0,-1.84 -1.61,-1.15 -12.04,5.62 z m -21.26,28.25 c 0,0.24 -2.41,2.07 -5.4,3.91 -3.1,1.84 -12.65,7.93 -21.37,13.43 -8.74,5.51 -16.09,9.77 -16.33,9.54 -0.57,-0.46 40.81,-27.22 42.3,-27.33 0.46,0 0.8,0.23 0.8,0.45 z m -12.06,15.51 c -1.86,1.61 -45.38,28.13 -54.03,32.85 -17.34,9.42 -3.1,0 24.71,-16.54 27.68,-16.31 31.85,-18.72 29.32,-16.31 z m 32.97,-50.41 c -5.85,3.78 -11.28,6.65 -11.85,6.19 -1.27,-0.69 -5.63,2.66 -5.63,4.38 0,1.72 2.87,1.03 6.88,-1.72 8.07,-5.53 10.37,-6.78 10.37,-6.21 0,0.33 -2.41,2.29 -5.28,4.24 -2.87,2.08 -4.97,3.92 -4.62,4.26 0.69,0.69 23.1,-14.93 24.25,-16.89 1.85,-3.097 -4.49,-0.46 -14.12,5.75 z M 15.278,98.39 C 4.2473,107.92 1.4875,110.9 2.8775,112.17 c 0.22,0.34 4.5896,-1.95 9.4195,-5.16 4.931,-3.1 10.569,-6.55 12.4,-7.811 1.96,-1.15 -2.061,3.211 -8.841,9.641 -11.4886,10.91 -13.9084,13.9 -11.4886,13.9 0.5699,0 6.1996,-3.21 12.4106,-7.23 18.147,-11.49 18.376,-11.83 -5.169,7.81 -13.2214,11.02 -11.9514,13.09 2.296,4.02 5.173,-3.22 9.531,-5.63 9.761,-5.41 0.342,0.24 -4.941,4.49 -11.609,9.3 -6.6598,4.94 -12.05947,9.43 -12.05947,10 0,2.3 3.44977,0.8 14.82047,-6.55 6.548,-4.12 12.068,-7.23 12.408,-7 0.229,0.35 -5.508,5.27 -12.858,11.14 -7.2409,5.74 -13.2204,11.03 -13.2204,11.6 0,2.64 5.8595,-0.23 21.2594,-10.45 9.878,-6.55 10.907,-7.13 10.907,-6.44 0,0.23 -7.009,5.74 -15.506,12.18 -8.5002,6.32 -15.5106,12.05 -15.5106,12.63 0,2.4 3.6797,0.8 17.6906,-8.15 8.047,-5.05 14.937,-8.96 15.166,-8.73 0.351,0.34 -3.677,3.56 -8.958,7.24 C 7.8069,161.43 -0.00247,167.64 0.57765,168.68 1.6076,170.4 6.1971,168.1 22.636,157.65 c 8.498,-5.39 15.619,-9.64 15.968,-9.41 0.23,0.34 -7.127,5.63 -16.426,11.81 -17.4707,11.5 -22.18047,15.18 -22.18047,17.02 0,2.17 4.70977,-0.35 26.30747,-14.02 12.18,-7.7 22.409,-13.89 22.638,-13.66 0.232,0.23 -9.078,7.34 -20.688,15.73 -22.5179,16.18 -27.79745,20.77 -24.3475,20.77 2.6395,0 6.6595,-2.18 21.5975,-11.58 6.891,-4.48 12.87,-7.93 13.099,-7.58 0.341,0.23 -6.778,5.28 -15.858,11.03 -9.08,5.72 -17.5787,11.48 -18.9587,12.63 -2.4096,2.06 -3.55975,4.71 -2.0597,4.71 1.7197,0 12.5204,-6.32 33.3084,-19.53 12.639,-8.04 24.248,-15.29 25.856,-16.08 l 2.87,-1.38 -2.298,2.29 c -1.26,1.26 -10.801,8.17 -21.249,15.29 -24.359,16.53 -39.0674,27.43 -39.0674,28.69 0,1.61 3.2198,1.27 7.1193,-0.8 1.9611,-1.04 15.5201,-9.4 30.1081,-18.72 14.589,-9.29 28.609,-18.13 31.138,-19.63 4.128,-2.41 4.358,-2.41 2.29,-0.23 -1.261,1.27 -17,12.18 -35.036,24.12 -31.8297,21.12 -38.0295,25.84 -36.30945,27.45 1.38005,1.38 11.83945,-4.49 40.89745,-22.85 29.187,-18.49 41.366,-25.73 41.366,-24.69 0,1.14 -12.988,9.75 -41.244,27.56 -37.3395,23.54 -43.5493,28.13 -40.3294,30.07 1.6098,0.92 13.7904,-6.07 44.2374,-25.48 34.348,-22.06 41.127,-25.84 43.305,-25.03 1.031,0.46 2.07,-0.12 2.42,-1.04 1.141,-2.98 -2.989,-2.18 -10.349,1.96 -3.669,2.05 -20.098,12.4 -36.526,22.74 -34.007,21.7 -40.6777,25.6 -41.4776,24.91 -0.8098,-0.81 12.1806,-9.41 44.1176,-29.62 31.016,-19.41 40.096,-26.07 38.376,-27.8 -1.61,-1.61 -9.54,2.76 -40.216,22.17 -52.3864,33.3 -56.526,33.65 -6.78,0.57 32.167,-21.36 39.985,-27.33 38.378,-29.07 -1.382,-1.26 -7.821,2.42 -35.618,20.1 -30.908,19.77 -34.6979,22.05 -35.8477,22.05 -1.38,0 7.0107,-6.07 32.1667,-23.42 23.329,-16.19 30.449,-21.82 28.958,-23.2 -1.269,-1.38 -7.471,2.07 -32.175,17.81 C 9.1878,190.04 5.0573,192.45 6.1971,190.73 6.547,190.15 18.156,182.45 31.826,173.74 57.673,157.31 66.754,150.42 62.733,150.3 c -2.42,0 -8.508,3.57 -33.436,19.53 -29.98951,19.29 -29.98951,18.14 0,-3.45 20.678,-14.81 25.617,-18.94 24.355,-20.21 -1.269,-1.26 -5.857,1.15 -22.397,11.83 -8.389,5.39 -15.518,9.53 -15.858,9.3 -0.23,-0.34 7.12,-5.64 16.429,-11.83 18.378,-12.06 22.399,-15.27 21.487,-16.77 -0.809,-1.38 -7.469,2.18 -25.967,14.02 -8.73,5.62 -17.009,10.79 -18.2679,11.36 -5.4006,2.99 -1.0312,-0.57 13.6679,-10.9 19.999,-14.25 25.738,-18.84 24.929,-20.23 -0.92,-1.37 -5.17,0.93 -20.449,10.81 -6.78,4.36 -12.638,7.69 -12.978,7.47 -0.23,-0.35 5.4,-5.06 12.748,-10.57 12.289,-9.2 15.168,-12.17 11.838,-12.17 -0.689,0 -8.159,4.35 -16.656,9.75 -8.391,5.29 -15.2808,9.54 -15.2808,9.2 0,-0.24 6.7688,-5.98 14.9308,-12.64 18.847,-15.39 18.957,-18.6 0.35,-6.66 -9.77,6.2 -8.391,3.67 2.18,-3.9 18.147,-13.22 17.687,-16.32 -0.692,-4.83 -6.198,3.91 -11.369,6.78 -11.718,6.43 -0.339,-0.23 4.599,-4.59 10.798,-9.64 6.21,-5.18 11.949,-10.11 12.759,-11.14 3.561,-4.25 -2.99,-1.61 -15.279,6.19 L 7.4671,119.41 19.878,107.58 c 6.779,-6.55 12.288,-12.167 12.288,-12.747 0,-1.839 -3.21,-0.459 -13.671,6.087 l -11.0279,7 6.9009,-6.08 C 26.766,90.815 29.297,88.406 28.145,88.406 c -0.57,0 -6.427,4.478 -12.867,9.984 z m 12.297,21.48 c -0.809,0.92 -2.07,1.72 -2.758,1.72 -0.689,0 -0.23,-0.8 0.918,-1.72 2.871,-2.19 3.671,-2.19 1.84,0 z m 2.87,6.32 c -0.34,0.57 -1.259,1.15 -1.839,1.15 -0.691,0 -0.801,-0.58 -0.461,-1.15 0.35,-0.69 1.261,-1.15 1.84,-1.15 0.69,0 0.801,0.46 0.46,1.15 z m -18.957,0.57 c 0,0.23 -1.151,1.15 -2.5299,1.84 -2.4111,1.26 -2.521,1.26 -1.031,-0.46 1.4907,-1.84 3.5609,-2.64 3.5609,-1.38 z m 1.728,7 c -4.1379,3.22 -7.0189,4.15 -3.4482,1.15 1.9492,-1.61 4.0192,-2.87 4.6002,-2.87 0.68,0 0.11,0.8 -1.152,1.72 z m 25.85,5.63 c -0.811,0.92 -2.07,1.73 -2.761,1.73 -0.69,0 -0.23,-0.81 0.921,-1.73 2.869,-2.18 3.669,-2.18 1.84,0 z m 5.169,5.75 c -1.841,1.6 -3.91,2.87 -4.481,2.87 -1.379,0 -0.349,-1.03 3.561,-3.56 4.589,-2.87 4.939,-2.53 0.92,0.69 z m -30.448,6.89 c 0,0.23 -1.149,1.15 -2.531,1.84 -2.4099,1.25 -2.5299,1.25 -1.028,-0.46 1.489,-1.84 3.559,-2.64 3.559,-1.38 z m 44.804,2.18 c 0,0.91 -18.496,12.4 -19.067,11.83 -0.347,-0.35 3.671,-3.22 8.84,-6.45 9.66,-5.83 10.227,-6.18 10.227,-5.38 z m -45.375,15.16 c -2.649,2.07 -9.5385,5.74 -8.3886,4.48 0.4598,-0.46 2.5197,-2.07 4.5904,-3.56 4.1392,-2.87 7.4702,-3.79 3.7982,-0.92 z M 17.008,88.636 C 5.8571,96.673 2.2974,99.662 2.2974,101.15 c 0,1.84 1.9499,0.92 13.6686,-6.546 6.441,-4.139 12.289,-7.237 12.869,-6.777 1.27,0.689 5.631,-2.639 5.631,-4.358 0,-1.838 -2.749,-0.81 -10.218,3.898 -11.84,7.356 -13.452,8.266 -12.191,7.007 0.7,-0.569 4.601,-3.559 8.969,-6.547 4.249,-2.979 7.698,-5.737 7.698,-5.966 0,-1.271 -2.528,0.229 -11.716,6.775 z M 229.66,20.881 c -3.45,2.069 -14.23,8.847 -24.01,15.153 -9.75,6.207 -19.07,11.375 -20.69,11.375 -1.72,0.11 -2.98,0.919 -3.21,2.059 -0.23,1.148 -0.12,2.067 0.34,2.067 1.5,0 10.48,-5.046 21.6,-12.281 19.21,-12.405 29.53,-18.723 29.53,-18.143 0,0.341 -9.18,6.657 -20.43,14.123 -19.65,13.204 -24.24,16.761 -22.87,18.14 0.93,0.919 6.1,-1.949 25.17,-14.12 9.41,-5.969 17.33,-10.796 17.44,-10.566 0.23,0.23 -8.03,7.116 -18.36,15.163 -16.43,12.861 -20.45,16.878 -16.66,16.878 0.57,0 6.86,-3.797 13.99,-8.385 7.26,-4.595 15.17,-9.533 17.7,-10.901 4.14,-2.419 3.9,-2.071 -2.3,3.437 -3.65,3.328 -10.32,9.184 -14.82,12.972 -12.63,10.914 -11.58,13.213 1.85,4.488 4.49,-2.879 8.28,-4.948 8.51,-4.708 0.35,0.22 -3.67,3.667 -8.73,7.576 -7.95,6.197 -10.82,9.306 -8.63,9.306 1.26,0 7.71,-3.679 17.59,-9.995 12.16,-7.927 11.01,-6.088 -4.25,5.966 -18.27,14.593 -16.89,16.313 3.33,4.029 l 13.2,-8.046 -11.7,11.363 c -15.31,14.703 -15.88,17.582 -1.96,8.737 3.55,-2.299 6.65,-3.909 6.88,-3.679 0.23,0.23 -4.81,5.058 -11.24,10.685 -17.48,15.036 -11.97,14.006 13.76,-2.759 5.52,-3.558 2.07,-0.11 -9.05,8.957 -6.32,5.168 -11.28,9.638 -10.94,9.988 0.58,0.69 23.79,-18.254 27.6,-22.503 1.61,-1.839 1.84,-2.409 0.57,-2.409 -1.74,0 -2.77,0.57 -17.92,10.105 -5.29,3.327 -9.57,5.737 -9.57,5.507 0,-0.23 5.66,-5.167 12.43,-10.904 13.78,-11.485 15.75,-13.444 14.26,-14.363 -0.6,-0.339 -5.54,2.189 -11.05,5.637 -5.5,3.439 -10.21,6.307 -10.55,6.307 -0.24,0 5.05,-5.276 11.7,-11.824 14.03,-13.323 13.81,-15.622 -0.58,-6.436 -5.15,3.218 -9.63,5.637 -9.97,5.287 -0.35,-0.23 4.13,-4.248 9.86,-8.956 5.62,-4.598 10.36,-9.076 10.36,-9.995 0,-2.179 -1.52,-1.49 -12.88,5.746 -16.44,10.676 -16.32,10.335 0.8,-3.217 7.92,-6.207 10.91,-9.184 9.53,-9.414 -1.72,-0.35 -6.2,2.288 -24.7,14.352 -5.75,3.788 -2.07,0.119 11.51,-11.255 15.85,-13.432 17.58,-15.161 15.03,-15.731 -1.38,-0.35 -12.86,6.427 -32.29,19.059 -5.95,3.787 -1.95,-0.23 7.47,-7.464 19.3,-14.923 26.68,-21.24 26.1,-22.16 -1.05,-1.609 -3.46,-0.349 -18.84,9.416 -7.83,4.937 -14.38,8.846 -14.61,8.616 -0.23,-0.23 7.12,-5.518 16.45,-11.834 9.28,-6.198 17.12,-12.054 17.35,-12.865 0.69,-2.409 -2.55,-1.488 -9.1,2.419 z M 204.5,44.08 c 0,0.23 -1.73,1.38 -3.66,2.29 l -3.8,1.838 2.88,-2.299 c 2.74,-2.289 4.58,-2.978 4.58,-1.829 z m 21.83,11.483 c -0.79,0.919 -2.06,1.719 -2.75,1.719 -0.68,0 -0.22,-0.8 0.92,-1.719 2.86,-2.189 3.67,-2.189 1.83,0 z m -9.17,19.52 c 0,0.23 -1.15,1.149 -2.53,1.84 -2.43,1.258 -2.55,1.258 -1.03,-0.46 1.49,-1.839 3.56,-2.639 3.56,-1.38 z m 14.91,5.747 c -0.8,0.911 -2.07,1.719 -2.75,1.719 -0.69,0 -0.23,-0.808 0.92,-1.719 2.86,-2.189 3.67,-2.189 1.83,0 z M 219.92,6.409 c -15.19,8.036 -84.23,50.983 -84.35,52.361 0,1.151 0.69,0.811 40.22,-23.885 31.81,-19.86 52.84,-32.034 51.23,-29.5154 -0.46,0.6995 -10.89,8.1654 -23.44,16.4324 -27.44,18.37 -33.53,22.848 -33.53,24.807 0,0.8 0.23,1.489 0.56,1.489 1.97,0 12.16,-6.197 34.81,-21.249 23.09,-15.162 33.8,-21.4794 27.23,-16.073 -1.26,1.03 -12.16,9.077 -24.36,17.912 -19.86,14.353 -24.7,18.261 -22.87,18.261 0.58,0 23.55,-16.542 41.83,-30.085 5.74,-4.258 10.59,-8.6163 10.59,-9.5354 0,-0.9196 -0.48,-1.7191 -0.94,-1.7191 -1.49,0 -17.1,9.7555 -36.4,22.5085 -20.93,14.003 -26.54,17.342 -25.39,15.612 0.45,-0.689 11.69,-8.606 25.16,-17.571 23.54,-15.732 30.66,-21.1292 30.66,-23.0781 0,-1.8392 -3.22,-0.8097 -11.01,3.3281 z M 192.45,4.3403 c -4.36,2.4186 -20.56,12.4037 -35.98,22.2787 -30.19,19.53 -43.77,27.674 -44.57,26.984 -0.81,-0.799 5.74,-5.165 34.47,-22.966 32.4,-20.09 40.55,-25.8371 38.7,-27.676 -1.71,-1.7193 -8.24,1.9588 -39.72,22.168 -31.13,19.981 -38.61,24.458 -39.31,23.658 -0.57,-0.579 7.36,-6.316 36.55,-26.077 11.02,-7.455 21.6,-15.1519 23.43,-17.1005 3.23,-3.3383 3.23,-3.4482 0.7,-3.4482 -3.23,0 -7.03,2.179 -38.61,22.3987 C 99.032,43.041 91.91,47.409 91.22,46.609 90.87,46.37 101.91,38.443 115.7,29.148 143.28,10.317 150.63,5.0298 151.9,2.851 c 0.69,-1.1495 -0.71,-1.4894 -5.76,-1.6093 -6.43,0 -10.91,1.8392 -26.64,11.0243 -2.08,1.149 -1.97,0.919 0.56,-1.04 7.12,-5.7364 9.19,-7.8053 8.4,-8.4949 C 126.04,0.32211 114.45,6.8688 65.482,38.333 24.008,64.978 11.026,72.674 8.9581,71.985 7.1271,71.294 20.446,62.45 55.723,40.632 102.61,11.687 109.14,7.0987 109.14,3.7705 c 0,-0.9195 -0.22,-1.6092 -0.58,-1.6092 -1.7,0 -9.069,3.6681 -17.11,8.4957 -4.829,3.098 -9.079,5.287 -9.419,5.057 -0.229,-0.349 2.52,-2.529 6.2,-5.057 C 91.791,8.1278 94.78,5.3696 94.78,4.4602 94.78,0.32211 87.661,4.2303 48.823,29.148 18.265,48.787 7.0071,55.443 6.1971,54.643 5.5171,53.954 19.188,44.19 48.823,24.211 69.054,10.657 77.092,4.1104 75.482,2.5111 74.103,1.2417 67.663,4.9198 41.477,21.572 10.107,41.552 7.4671,43.041 8.4961,41.443 8.9581,40.632 19.988,32.826 33.084,24.101 55.723,8.9374 63.191,2.961 61.814,1.4716 60.771,0.55197 55.263,3.6506 36.424,15.594 27.116,21.682 19.188,26.279 18.836,26.049 18.616,25.699 25.395,20.761 33.895,14.905 49.055,4.5701 51.352,2.6211 50.095,1.3616 48.714,-0.01771 43.425,2.5111 31.015,10.776 14.248,21.912 6.777,26.51 6.1971,25.929 5.9771,25.699 9.7678,22.83 14.708,19.383 27.455,10.547 33.314,5.7195 33.314,3.7705 c 0,-0.9195 -0.459,-1.6092 -1.148,-1.6092 -0.57,0 -7.121,3.4482 -14.358,7.6955 C 10.567,13.985 4.3674,17.204 4.0173,16.864 3.6775,16.634 6.777,13.645 10.917,10.317 21.135,2.1613 20.905,-0.82729 10.458,5.0298 4.4774,8.4776 3.5573,8.5876 6.3171,5.6095 8.9581,2.7311 7.9271,1.5815 3.7873,2.7311 1.4875,3.4207 1.1476,3.7705 2.5273,4.1104 4.1375,4.5701 4.2473,5.0298 3.2174,6.7589 1.0275,10.087 2.9873,10.886 7.8069,8.4776 14.478,5.0298 14.708,5.1497 9.7678,9.1672 1.9476,15.714 0.80759,17.204 2.0676,18.462 3.2174,19.613 7.4671,17.664 25.845,7.2187 35.275,1.9315 29.755,6.9788 15.397,16.744 8.157,21.682 2.2974,26.39 2.2974,27.079 2.2974,30.757 8.157,27.888 28.495,14.565 38.145,8.2477 46.304,3.1909 46.535,3.5406 46.875,3.7705 38.025,10.197 26.996,17.664 6.547,31.447 3.6775,33.735 5.0573,35.124 6.1971,36.264 12.297,32.936 32.745,19.853 43.195,13.185 52.163,7.898 52.383,8.2477 52.734,8.5876 43.085,15.594 30.786,23.75 8.9581,38.333 3.4473,42.701 5.0573,44.31 6.3171,45.57 12.178,42.241 40.325,24.211 55.144,14.795 68.472,6.519 70.083,5.7195 76.633,2.6211 63.872,12.146 39.177,28.808 11.488,47.519 2.2974,54.413 2.2974,56.132 c 0,1.72 3.0998,1.38 7.0104,-0.689 C 15.048,52.574 14.248,54.293 8.0469,58.54 2.6376,62.22 0.34755,64.978 1.6075,66.237 3.5573,68.076 15.737,61.069 56.292,34.885 83.181,17.544 104.56,4.4602 106.04,4.4602 109.72,4.4602 94.322,14.905 55.723,38.683 21.256,59.921 6.4371,70.026 5.9771,72.674 c -0.3498,1.72 0.1101,2.06 2.519,1.6 1.6109,-0.34 2.9919,-0.45 2.9919,-0.34 0,0.11 -2.3002,1.838 -5.1709,3.897 -5.39941,3.91 -6.77959,7.017 -2.9796,7.017 1.26,0 6.0803,-2.069 10.9105,-4.598 9.188,-4.937 11.597,-5.396 4.477,-1.028 -5.168,3.207 -14.1275,11.243 -14.1275,12.633 0,2.06 3.3296,0.909 10.4505,-3.678 14.598,-9.416 16.548,-10.565 14.937,-8.735 -2.41,3.107 -0.23,2.299 4.591,-1.611 4.258,-3.317 5.639,-5.616 3.449,-5.616 -0.461,0 -7.121,3.897 -14.589,8.725 -7.47,4.708 -14.0182,8.846 -14.4779,9.186 -0.462,0.339 -0.9112,0.12 -0.9112,-0.46 0,-2.059 40.4371,-27.676 80.4131,-51.103 5.631,-3.219 3.112,-1.03 -6.089,5.398 -4.361,3.098 -7.578,5.746 -7.24,6.085 0.351,0.35 5.63,-2.987 11.84,-7.345 C 113.99,23.52 147.64,2.2712 148.9,3.6506 149.24,3.8805 138.45,11.577 125.12,20.651 89.5,44.65 83.75,49.248 89.041,49.248 c 2.869,0 7.349,-2.639 38.489,-22.399 16.1,-10.215 31.12,-19.5204 33.3,-20.5499 l 4.05,-1.9588 -3.47,2.9883 C 159.57,8.9374 149.48,16.053 139.02,23.06 112.58,40.972 103.4,47.868 103.4,49.817 c 0,0.919 0.35,1.718 0.93,1.718 1.94,0 13.77,-7.115 40.44,-24.117 34.46,-21.9284 36.75,-23.3076 37.44,-22.728 0.68,0.7996 -10.09,7.916 -38.58,25.607 -26.55,16.422 -35.99,23.197 -34.96,24.806 1.5,2.529 9.21,-1.729 49.87,-27.685 30.24,-19.4001 41.15,-25.8365 42.07,-25.0268 0.69,0.6897 -16.79,12.1738 -44.37,29.0558 -31.47,19.409 -42.48,26.984 -42.48,29.512 0,1.95 4.23,0.801 11.36,-3.107 4.13,-2.179 7.58,-3.788 7.81,-3.668 0.23,0.229 -2.4,2.298 -5.86,4.707 -8.5,5.858 -10.55,10.905 -2.75,6.886 l 3.79,-1.948 -2.18,2.529 c -3.23,3.558 -1.27,2.978 4.01,-1.27 6.43,-5.167 5.97,-7.806 -0.8,-3.789 -2.86,1.72 -5.51,2.87 -5.74,2.53 -0.81,-0.691 19.76,-13.783 51.59,-32.953 28.02,-16.771 41.02,-25.5064 41.02,-27.5653 0,-4.13799 -10.71,1.7191 -54.25,29.6253 -16.64,10.794 -33.89,21.477 -38.36,23.776 -16.32,8.606 -1.39,-1.839 34.23,-24.006 37.24,-23.1989 45.72,-29.0554 45.72,-31.3444 0,-2.4188 -2.28,-1.72916 -10.9,2.9787 z M 142.01,3.8805 C 137.64,7.2187 104.79,27.309 81.572,40.862 50.325,59.121 48.594,60.151 49.975,58.77 51.123,57.742 56.411,54.184 98.11,27.658 121.79,12.606 139.95,2.1613 142.47,2.1613 c 1.37,0.1099 1.26,0.4598 -0.46,1.7192 z M 123.86,6.0691 C 119.6,9.8568 57.334,46.829 60.313,43.851 64.104,40.052 124.09,3.3107 126.39,3.3107 c 0.34,0.11 -0.81,1.2594 -2.53,2.7584 z m 86.73,0.5698 c -2.07,1.7188 -15.26,9.9951 -29.3,18.4901 -14.11,8.386 -30.43,18.372 -36.4,22.05 -5.87,3.677 -10.93,6.544 -11.16,6.315 -0.92,-0.81 77.89,-50.3031 79.98,-50.1833 0.35,0.11 -1.17,1.4892 -3.12,3.3282 z M 56.292,6.1791 c -0.799,0.9196 -2.067,1.7189 -2.759,1.7189 -0.69,0 -0.22,-0.7993 0.921,-1.7189 2.88,-2.1787 3.679,-2.1787 1.838,0 z M 90.42,7.2187 C 88.58,8.5876 81.912,13.076 75.482,16.974 34.576,42.011 14.708,53.954 14.248,53.494 13.905,53.144 16.196,51.535 19.188,49.817 22.178,47.978 37.334,38.443 52.843,28.568 84.441,8.3577 90.87,4.5701 92.481,4.5701 c 0.699,0 -0.34,1.1494 -2.061,2.6486 z m 25.05,7.4563 c -0.68,0.46 -11.72,7.696 -24.71,15.852 C 77.78,38.793 58.932,50.856 48.823,57.282 25.735,72.095 5.7371,83.699 3.4473,83.699 -1.0325,83.579 16.658,72.215 67.783,42.121 87.661,30.407 106.62,19.273 109.72,17.324 c 5.75,-3.569 7.81,-4.598 5.75,-2.649 z m -34.479,2.299 c -0.69,0.46 -13.328,8.725 -28.148,18.15 C 12.408,60.959 3.4473,66.237 3.4473,64.519 c 0,-1.5 10.5707,-8.277 40.2067,-26.186 15.509,-9.305 29.987,-18.14 32.176,-19.631 3.792,-2.649 7.46,-3.907 5.161,-1.728 z M 16.658,28.118 c -4.141,3.209 -7.0012,4.128 -3.442,1.15 1.951,-1.61 4.012,-2.989 4.592,-2.989 0.687,0.111 0.119,0.92 -1.15,1.839 z" />
            </g>
        </pattern>
    </defs>
    <rect height="100%" width="100%" fill="#00002a" />
    <rect width="100%" height="100%" fill="url(#heart-pattern)" />
</svg>
