<?xml version="1.0" encoding="UTF-8" ?>
<!-- 
Base16-wallpaper project by Lodobo, https://github.com/Lodobo
Scheme: Mountain by gnsfujiwara (https://github.com/gnsfujiwara)


Logo: Arch Linux © 2O21
-->
<svg height="1080" version="1.1" viewBox="0 0 1920 1080" width="1920" xmlns="http://www.w3.org/2000/svg">
<rect fill="#0f0f0f" height="100%" width="100%"/>
<g transform="translate(-250,-250)">
<svg height="500" viewBox="0 15 512 512" width="500" x="50%" xmlns="http://www.w3.org/2000/svg" y="50%">
<path d="M256 72c-14 35-23 57-39 91 10 11 22 23 41 36-21-8-35-17-45-26-21 43-53 103-117 220 50-30 90-48 127-55-2-7-3-14-3-22v-1c1-33 18-58 38-56 20 1 36 29 35 62l-2 17c36 7 75 26 125 54l-27-50c-13-10-27-23-55-38 19 5 33 11 44 17-86-159-93-180-122-250z" fill="#ac8a8c"/>
</svg>
</g>
</svg>
