<?xml version="1.0" encoding="UTF-8" ?>
<!-- 
Base16-wallpaper project by Lodobo, https://github.com/Lodobo
Scheme: Equilibrium Gray Dark by Carlo Abelli
-->
<svg height="1080" version="1.1" viewBox="0 0 1920 1080" width="1920" xmlns="http://www.w3.org/2000/svg">
    <rect fill="#111111" height="100%" width="100%" />
    <g transform="translate(1450,600)">
        <svg height="350" viewBox="0 0 70 70" width="350" xmlns="http://www.w3.org/2000/svg">
            <path
                d="m 12.248,49.72 -0.684,0.3 c 0.396,0.552 0.816,1.296 1.116,1.932 l 0.708,-0.312 c -0.276,-0.576 -0.84,-1.476 -1.14,-1.92 z m 1.548,-0.612 -0.672,0.312 c 0.396,0.54 0.84,1.272 1.164,1.908 l 0.684,-0.336 C 14.684,50.428 14.108,49.528 13.796,49.108 Z M 8.924,48.736 H 7.7 c 0.084,0.348 0.108,0.768 0.108,1.212 0,1.26 -0.12,4.296 -0.12,6.072 0,1.968 1.188,2.676 2.916,2.676 2.64,0 4.188,-1.512 5.004,-2.64 L 14.936,55.24 c -0.864,1.248 -2.112,2.472 -4.308,2.472 -1.14,0 -1.968,-0.456 -1.968,-1.776 0,-1.788 0.096,-4.632 0.144,-5.988 0.024,-0.396 0.06,-0.804 0.12,-1.212 z M 21.08,48.652 h -1.224 c 0.072,0.348 0.108,0.768 0.108,1.212 0,1.26 -0.12,4.296 -0.12,6.072 0,1.968 1.188,2.676 2.916,2.676 2.628,0 4.188,-1.5 5.004,-2.64 l -0.672,-0.816 c -0.864,1.248 -2.112,2.472 -4.308,2.472 -1.14,0 -1.968,-0.456 -1.968,-1.776 0,-1.788 0.096,-4.632 0.144,-5.988 0.024,-0.396 0.06,-0.816 0.12,-1.212 z m 15.267656,10.256203 v 0.832031 h -3.93164 v -0.832031 z m 2.238281,-2.197266 v 0.873047 q 0,0.533203 -0.269531,1.125 -0.269531,0.597657 -0.755859,0.996094 l -0.615235,-0.427734 q 0.275391,-0.386719 0.427735,-0.796875 0.152344,-0.404297 0.152344,-0.878907 v -0.890625 z m 3.873047,-2.179687 v 0.05859 q 0,1.710937 -0.486328,2.982422 -0.486328,1.271484 -1.160156,2.074218 -0.667969,0.802735 -1.21875,1.107422 l -0.228516,-0.65625 q 0.685547,-0.52148 1.347657,-1.898433 Q 41.375,56.828125 41.375,54.601562 v -0.08203 q 0,-1.482422 -0.328125,-2.583984 Q 40.71875,50.828125 40.25,50.101562 39.78125,49.375 39.365234,49.035156 l 0.228516,-0.662109 q 0.550781,0.310547 1.21875,1.113281 0.673828,0.802734 1.160156,2.074219 0.486328,1.271484 0.486328,2.970703 z m 10.467469,-5.15925 -1.14,-0.3 c -0.336,1.716 -1.152,3.684 -2.256,5.076 -1.092,1.356 -2.748,2.568 -4.548,3.192 l 0.84,0.864 c 1.728,-0.708 3.444,-2.04 4.524,-3.42 1.02,-1.296 1.74,-3.06 2.196,-4.356 0.108,-0.3 0.252,-0.732 0.384,-1.056 z M 9.4042969,35.46875 V 45.582031 H 8.53125 V 35.46875 Z m 4.3013911,9.20325 0.816,-0.696 c -0.756,-0.876 -1.836,-1.956 -2.700001,-2.652 l -0.779999,0.684 c 0.852,0.696 1.884,1.716 2.664,2.664 z m 12.860718,-9.531375 0.732422,0.06445 q 0,0.644531 -0.369141,1.037109 -0.363281,0.386719 -0.896484,0.386719 -0.398437,0 -0.621094,-0.140625 -0.222656,-0.140625 -0.427734,-0.27539 -0.199219,-0.140625 -0.521484,-0.140625 -0.246094,0 -0.416016,0.1875 -0.164063,0.1875 -0.164063,0.46289 L 23.150391,36.6875 q 0,-0.644531 0.363281,-1.042969 0.363281,-0.404297 0.896484,-0.404297 0.333985,0 0.56836,0.140625 0.234375,0.134766 0.46289,0.275391 0.228516,0.140625 0.539063,0.140625 0.246093,0 0.416015,-0.1875 0.169922,-0.193359 0.169922,-0.46875 z M 31.461844,33.44 h -1.044 c 0.132,0.528 0.372,1.056 0.756,1.728 1.596,2.784 3.636,6.396 4.8,9.42 l 1.044,-0.372 c -1.2,-3.132 -3.492,-6.96 -5.1,-9.756 -0.204,-0.372 -0.372,-0.744 -0.456,-1.02 z M 5.7851562,26.589844 v -0.05859 q 0,-1.699219 0.4863282,-2.970703 0.4863281,-1.271485 1.1542968,-2.074219 0.6679688,-0.802734 1.2246094,-1.113281 l 0.2285157,0.714844 q -0.6914063,0.52148 -1.3535157,1.863277 -0.65625,1.341797 -0.65625,3.568359 v 0.08203 q 0,2.226563 0.65625,3.580079 0.6621094,1.353515 1.3535157,1.916015 l -0.2285157,0.65625 Q 8.09375,32.449219 7.4257812,31.646484 6.7578125,30.84375 6.2714844,29.572266 5.7851562,28.300781 5.7851562,26.589844 Z m 4.0312501,-4.845703 q 0,-0.503907 0.3574217,-0.861329 0.363281,-0.357421 0.902344,-0.357421 0.533203,0 0.896484,0.357421 0.363282,0.357422 0.363282,0.861329 0,0.515625 -0.363282,0.855468 -0.363281,0.339844 -0.896484,0.339844 -0.539063,0 -0.902344,-0.339844 -0.3574217,-0.339843 -0.3574217,-0.855468 z m 0.5800777,0 q 0,0.257812 0.1875,0.46875 0.19336,0.205078 0.492188,0.205078 0.298828,0 0.486328,-0.199219 0.193359,-0.205078 0.193359,-0.474609 0,-0.275391 -0.193359,-0.480469 -0.1875,-0.210938 -0.486328,-0.210938 -0.298828,0 -0.492188,0.210938 -0.1875,0.205078 -0.1875,0.480469 z m 4.382813,8.642578 1.130859,1.722656 h -0.93164 L 13.466797,30.386719 Z M 21.747922,27.084 c -1.008,0 -1.836,0.816 -1.836,1.824 0,1.008 0.828,1.824 1.836,1.824 1.008,0 1.824,-0.816 1.824,-1.824 0,-1.008 -0.816,-1.824 -1.824,-1.824 z m 0,3.036 c -0.672,0 -1.224,-0.54 -1.224,-1.212 0,-0.672 0.552,-1.212 1.224,-1.212 0.672,0 1.212,0.54 1.212,1.212 0,0.672 -0.54,1.212 -1.212,1.212 z m 15.894656,-8.65125 v 0.609375 L 34.109375,30 h -1.142578 l 3.527344,-7.640625 H 31.876953 V 21.46875 Z M 10,16.104 v 0.336 h 0.336 L 22,4.776 V 4.44 H 21.664 Z M 23.904297,6.46875 V 16.582031 H 23.03125 V 6.46875 Z m 4.30139,9.20325 0.816,-0.696 c -0.756,-0.876 -1.836,-1.956 -2.7,-2.652 l -0.779999,0.684 c 0.851999,0.696 1.884,1.716 2.663999,2.664 z"
                fill="#f04339" />
        </svg>
    </g>
</svg>