<?xml version="1.0" encoding="UTF-8" ?>
<!-- 
Base16-wallpaper project by Lodobo, https://github.com/Lodobo
Scheme: Synth Midnight Terminal Light by Michaël Ball (http://github.com/michael-ball/)

Wallpaper: Arch linux with textured background (inkscape dots transparency filter)

Logo: Arch Linux © 2O21
-->
<svg height="1080" version="1.1" viewBox="0 0 1920 1080" width="1920" xmlns="http://www.w3.org/2000/svg">
    <defs>
        <symbol id="arch-linux-logo" x="50%" y="50%" width="500" height="500" viewBox="0 15 512 512">
            <path fill="#b53b50"
                d="M256 72c-14 35-23 57-39 91 10 11 22 23 41 36-21-8-35-17-45-26-21 43-53 103-117 220 50-30 90-48 127-55-2-7-3-14-3-22v-1c1-33 18-58 38-56 20 1 36 29 35 62l-2 17c36 7 75 26 125 54l-27-50c-13-10-27-23-55-38 19 5 33 11 44 17-86-159-93-180-122-250z" />
        </symbol>
        <filter style="color-interpolation-filters:sRGB;" id="dots-transparency" x="0" y="0" width="1" height="1">
            <feTurbulence id="feTurbulence79" result="result1" numOctaves="3" baseFrequency="0.3" type="fractalNoise"
                seed="50" />
            <feColorMatrix id="feColorMatrix79" result="result0" in="SourceGraphic" type="luminanceToAlpha" />
            <feColorMatrix result="result2" id="feColorMatrix80" values="1 0 0 0 0 0 1 0 0 0 0 0 1 0 0 0 0 0 0.7 0 " />
            <feComposite id="feComposite80" in="result1" operator="over" in2="result2" result="result3" />
            <feColorMatrix id="feColorMatrix81" result="result91"
                values="1 0 0 0 0 0 1 0 0 0 0 0 1 0 0 0 0 0 5 -3.2 " />
            <feComposite operator="out" in="SourceGraphic" result="result4" in2="result91" id="feComposite81" />
        </filter>
    </defs>
    <rect width="100%" height="100%" fill="#cfd1d2" />
    <rect width="100%" height="100%" fill="#dddfe0" filter="url(#dots-transparency)" />
    <g transform="translate(-250,-250)">
        <use href="#arch-linux-logo" />
    </g>
</svg>