<?xml version="1.0" encoding="UTF-8" ?>
<!-- 
Base16-wallpaper project by Lodobo, https://github.com/Lodobo
Scheme: Eva Dim by kjakapat (https://github.com/kjakapat)

Logo: linux-mint
-->

<svg height="1080" version="1.1" viewBox="0 0 1920 1080" width="1920" xmlns="http://www.w3.org/2000/svg">
<rect fill="#2a3b4d" height="100%" width="100%"/>
<g fill="#c4676c" transform="translate(-128, -128)">
<svg height="256" width="256" x="50%" xmlns="http://www.w3.org/2000/svg" y="50%">
<circle cx="128" cy="128" fill="#2a3b4d" r="128"/>
<circle cx="128" cy="128" fill="#c4676c" r="108"/>
<path d="M58,63v90c0.1,22.1,17.9,39.9,40,40h60c22.1-0.1,39.9-17.9,40-40v-50c-0.1-16.5-13.5-29.9-30-30c-7.4,0-14.5,2.8-20,7.9c-5.5-5-12.6-7.8-20-7.9c-16.5,0.1-29.9,13.5-30,30v50h20v-50 c0-5.5,4.5-10,10-10c5.5,0,10,4.5,10,10v50h20v-50c0-5.5,4.5-10,10-10s10,4.5,10,10v50c0.1,11-8.8,19.9-19.7,20c-0.1,0-0.2,0-0.3,0 H98c-11,0.1-19.9-8.8-20-19.7c0-0.1,0-0.2,0-0.3V63H58z" fill="#2a3b4d"/>
</svg>
</g>
</svg>
