<?xml version="1.0" encoding="UTF-8" ?>
<!--
Base16-wallpaper project by Lodobo, https://github.com/Lodobo
Scheme: Circus by Stephan Boyer (https://github.com/stepchowfun) and Esther Wang (https://github.com/ewang12)

Wallpaper: flower pattern.

Assets taken from Pixabay <https://pixabay.com/vectors/border-flourish-flowers-decorative-2022594/>
-->
<svg version="1.0" xmlns="http://www.w3.org/2000/svg" width="1920" height="1080" viewBox="0 0 1920 1080">
    <rect width="100%" height="100%" fill="#191919" />

    <defs>
        <path id="flowers" fill="#dc657d" stroke="none"
        d="m 121.5,784.9 c -11.6,7.9 -6.5,25.1 7.4,25.1 12.7,0 18.4,-14.6 9.1,-23.5 -4,-3.8 -12,-4.6 -16.5,-1.6 z m -24.1,-0.8 c -2.5,1.3 -5.4,6 -5.4,8.9 0,2.9 2.6,7.7 4.9,9 1.1,0.5 3.7,1 5.9,1 7,0 11.5,-7 8.7,-13.6 -2.3,-5.6 -8.5,-7.9 -14.1,-5.3 z M 78.9,772.9 c -3.3,2.7 -3.3,9.5 0,12.2 3.6,2.9 9.5,2.5 12,-0.7 C 95.4,778.7 92,771 85,771 c -2.2,0 -4.7,0.8 -6.1,1.9 z M 76,757 c -4.1,4.1 -1.4,11 4.3,11 2.6,0 6.7,-4 6.7,-6.7 0,-2.1 -4.6,-6.3 -7,-6.3 -1.1,0 -2.9,0.9 -4,2 z m 1.2,-13.8 c -2.7,2.7 -0.7,7.8 2.9,7.8 2.1,0 4.9,-2.6 4.9,-4.5 0,-3.5 -5.3,-5.8 -7.8,-3.3 z m 5.1,-11.5 c -1.9,0.7 -1.6,5.3 0.3,6 1.8,0.7 4.5,-0.6 5.1,-2.4 0.4,-1.1 -2.3,-4.4 -3.5,-4.2 -0.4,0 -1.3,0.3 -1.9,0.6 z m 86.8,0.3 c 4.3,8.1 12.3,15.3 24.3,21.9 8.6,4.7 10.3,5.3 13.9,4.8 5.3,-0.7 8.7,-4.4 8.7,-9.3 0,-8.1 -3,-9.8 -18,-9.8 -10.7,-0.1 -11.9,-0.3 -17.5,-3.1 -3.2,-1.7 -7.7,-4.7 -9.9,-6.8 -2.1,-2 -4.1,-3.7 -4.3,-3.7 -0.2,0 1,2.7 2.8,6 z m -80.8,-7.3 c -1.9,0.7 -1.6,4 0.4,4.7 2.1,0.8 3.6,-0.6 3.1,-3 -0.3,-1.9 -1.6,-2.5 -3.5,-1.7 z m 122.1,-29.5 c -1.2,0.7 -4,2.7 -6.3,4.5 -6.8,5.1 -16,7.7 -27.1,7.7 -6.1,-0.1 -11.1,-0.7 -14,-1.7 l -4.5,-1.7 3.3,2.9 c 4.3,3.7 12.5,7.7 19.9,9.7 7,1.9 30.1,2.8 35.4,1.4 5.4,-1.5 9.9,-7 9.9,-12 0,-8 -10.3,-14.6 -16.6,-10.8 z m -94.8,-1.4 c 17.1,6.9 26.7,16.8 30.9,31.6 6.3,21.7 -9.4,42.5 -29.1,38.5 -13,-2.6 -20.9,-17 -15.4,-27.9 7,-13.7 27.1,-11 27,3.7 -0.1,6.2 -5.5,11 -11,9.8 -7.5,-1.6 -8.1,-13.5 -0.7,-13.5 h 2.1 l -2.2,1.6 c -3.7,2.6 -2.3,7.4 2.3,7.4 2.8,0 4.5,-1.9 4.5,-5 0,-6.1 -8.5,-8.5 -12.7,-3.6 -4.6,5.4 -2,13.2 5.2,15.6 6.9,2.3 14.5,-2.8 15.9,-10.5 0.9,-4.8 -2.6,-12.1 -7.3,-15.2 -4,-2.7 -12.6,-3.1 -16.9,-0.9 -9.5,5 -13.8,17.4 -9.3,27.1 7.5,16.1 28.2,19.5 41.4,6.7 15.5,-14.9 11.6,-43.1 -8,-57.5 -5.6,-4.1 -16.1,-9.3 -20.8,-10.2 -1.6,-0.3 0.2,0.7 4.1,2.3 z m -10.8,-3.1 c 0.6,0.2 1.8,0.2 2.5,0 0.6,-0.3 0.1,-0.5 -1.3,-0.5 -1.4,0 -1.9,0.2 -1.2,0.5 z M 194,646.9 c -4.7,1.5 -7.1,3.6 -10.5,9.1 -10.4,17.1 -31.7,29.5 -53,30.9 l -10,0.6 4.4,1.8 c 11.4,4.7 27.3,5.9 41.6,3.2 12.6,-2.4 37.7,-11.2 41.9,-14.7 7.2,-5.9 9.2,-13.6 5.7,-21.3 -2.2,-4.9 -4.8,-7.3 -9.8,-9.1 -4.3,-1.5 -6.6,-1.6 -10.3,-0.5 z M 7,606.1 c -1.4,0.6 -3.5,2 -4.7,3.1 -2.2,2 -2.2,2.6 -2.2,26.9 L 0.2,661 3.8,659.4 C 18.6,653.2 30.5,639 31.8,625.9 32.6,617.5 28.1,609.2 21.3,606.4 17.6,604.8 10.6,604.7 7,606.1 Z M 72.2,503.9 c -18.6,4.6 -34.9,17.5 -43,34.1 -5.5,11.1 -7.3,18.5 -7.3,29.5 0,20.1 7.4,35.8 21.9,46.5 16.6,12.2 37.1,14.2 54.9,5.5 24.9,-12.3 32,-45.9 13.7,-65.5 -6.8,-7.3 -13.6,-10.3 -24.5,-10.8 -7.8,-0.4 -9.3,-0.2 -14.6,2.2 -7.6,3.5 -10.9,6.8 -14.4,14.1 -6.6,13.7 -1.5,29.9 11.1,35.3 5.4,2.3 14.1,1.9 19,-0.9 10.9,-6.1 12.1,-22.2 2.1,-27.4 -12.3,-6.3 -26.1,6.3 -20.6,18.9 1.6,3.7 -2,1 -4.4,-3.3 C 60,571.1 66,557 78.4,553 c 4.9,-1.6 14,-0.9 18.8,1.4 4.4,2.1 10.2,7.6 12.3,11.7 5.9,11.3 3,28 -6.5,37.8 -18.1,18.6 -53,11.8 -65.5,-12.8 -7.6,-15.1 -7.4,-31.7 0.6,-48 23,-46.7 95.3,-41 119.4,9.4 4.3,9.1 6.4,17.8 7.2,29.7 2.7,41.9 -27.1,81.4 -72.2,96.1 -15.7,5.1 -21.2,6 -40.5,6.4 -16.9,0.4 -19.5,0.3 -30.5,-2 C 14.9,681.3 7.4,679.4 4.7,678.6 0,677.1 0,677.1 0,679.4 c 0,2.4 3.6,3.9 21.5,8.3 10.5,2.6 48.7,2.6 60,-0.1 30.8,-7.2 54.7,-21.6 70.8,-42.9 26.1,-34.2 27.5,-78.5 3.6,-111.3 -9.7,-13.3 -27.7,-25 -45.3,-29.4 -10.3,-2.6 -28,-2.6 -38.4,-0.1 z m 127.3,-11.7 c -4.8,2.8 -5.9,7.8 -2.5,12.1 3.9,4.9 11,4.2 13.4,-1.4 1.7,-4 1,-7.5 -2.2,-9.9 -2.8,-2.2 -5.7,-2.5 -8.7,-0.8 z m 48.7,0.1 c -3,7 -0.4,25.8 3.8,28.5 3.8,2.4 9,-0.6 9,-5.2 0,-0.9 -1.6,-3.3 -3.6,-5.3 -4.8,-5.1 -6.6,-8.8 -7.4,-15.3 -0.6,-5.3 -0.7,-5.4 -1.8,-2.7 z M 0,515.8 c 0,18.8 0.2,34.2 0.5,34.2 0.2,0 1.2,-1.4 2,-3.1 1.5,-2.9 1.8,-3 3.5,-1.4 1,0.9 3,4.4 4.6,7.8 2.4,5.3 2.8,7.5 2.8,15.2 0,8.1 -0.3,9.7 -3.2,15.9 -1.8,3.9 -4.9,8.9 -6.8,11.3 -2,2.4 -3.4,5.1 -3.2,6 0.5,2.9 8.5,-6.2 12.4,-14.2 3.9,-8 5.4,-16.5 4.3,-25.3 -0.7,-6.5 -4.8,-16.4 -8.1,-19.9 L 6.7,540 8.8,531.2 C 11.3,521 11.6,512.3 9.6,502.8 8.3,496.8 3.2,484.9 0.9,482.5 0.4,482 0,494.6 0,515.8 Z M 190,482 c -5.3,5.3 1.3,12.6 8.1,9 1.3,-0.7 1.9,-2.1 1.9,-4.4 0,-5.9 -5.9,-8.7 -10,-4.6 z m 66.6,-1.3 c 1.3,7.2 4.4,13.9 9,19.4 8.8,10.5 11.7,11.8 16.8,7.8 4.7,-3.7 2.2,-11.9 -3.6,-11.9 -6.3,-0.1 -17.5,-8.6 -20.4,-15.6 -1.9,-4.5 -2.7,-4.3 -1.8,0.3 z m -66.4,-11.5 c -2,2 -1.4,5.6 1.3,7.4 2.3,1.5 2.7,1.5 5,0 2.7,-1.8 3.1,-3.6 1.5,-6.7 -1.2,-2.2 -5.9,-2.6 -7.8,-0.7 z M 62.5,464 c -0.3,0.6 0.1,1.3 1,1.6 1.9,0.8 3,0 2,-1.5 -0.8,-1.4 -2.2,-1.4 -3,-0.1 z m 134.7,-2.8 c -1.8,1.8 -1.4,4.6 0.7,5.8 2.5,1.3 4.8,0.4 5.6,-2.1 1.2,-3.8 -3.5,-6.5 -6.3,-3.7 z m 49.2,3.3 c 0,5.3 -0.5,8.2 -2.3,11.7 -5.9,12.3 -19.3,16.2 -28,8.2 -3.4,-3 -3.6,-3.6 -3.6,-9.3 0,-5.3 0.4,-6.4 2.8,-8.8 2.2,-2.2 3.7,-2.8 7.3,-2.8 3.8,0 5,0.5 7,2.8 1.3,1.5 2.4,3.9 2.4,5.3 0,2.9 -4.1,7.4 -6.8,7.4 -2.4,0 -5.2,-3.1 -5.2,-5.8 0,-2.4 3.4,-4.7 5.2,-3.6 0.7,0.5 0.3,1 -1.1,1.6 -3.1,1.1 -2.4,4.3 0.9,4.3 1.8,0 2.6,-0.6 2.8,-2.3 0.7,-4.8 -4.8,-7.1 -8.1,-3.4 -4,4.4 -0.5,10.6 6,10.6 9.6,0 10.9,-14.2 1.6,-18 -9.6,-4.1 -19.1,4.8 -16.9,15.8 2,10 14.6,14.8 24.7,9.5 8.3,-4.3 14.1,-17 12.1,-26.2 -0.8,-3.6 -0.9,-3.2 -0.8,3 z M 71.3,460.1 c -3.7,2.4 -4.1,3.5 -1.5,4.2 1.2,0.3 1.1,0.5 -0.6,0.6 -1.3,0 -2,0.5 -1.7,1.1 0.3,0.5 0.2,1 -0.3,1 -0.6,0 -0.8,1 -0.5,2.2 0.4,2 0.3,2.1 -0.6,0.6 -0.8,-1.1 -2.1,-1.5 -4.2,-1.3 -2.6,0.4 -2.9,0.2 -1.9,-1 1.1,-1.3 0.7,-1.5 -1.9,-1.5 -1.8,0 -4.6,0.7 -6.2,1.6 -2.8,1.4 -3,1.8 -2.4,5.2 0.9,5.1 1.1,5.2 5.9,5.2 3.5,0 4.5,-0.4 5.4,-2.3 1,-2.2 1.1,-2.2 1.1,0.5 0.1,2.8 1.6,4 6.2,5.1 2,0.5 2.8,0.1 4.2,-2.2 2.2,-3.7 2.1,-5.9 0,-8.4 -1.7,-1.9 -1.7,-2 0.4,-0.8 3.9,2 6.2,1.3 8,-2.3 1.5,-3.3 1.5,-3.5 -0.6,-6.5 -2.6,-3.6 -4.4,-3.8 -8.8,-1 z m 133.8,-3.7 c -1.6,1.9 -0.6,3.6 2,3.6 1.5,0 2,-0.6 1.7,-2.2 -0.4,-2.7 -2.1,-3.3 -3.7,-1.4 z m 40,-0.8 c 0,1.1 0.3,1.4 0.6,0.6 0.3,-0.7 0.2,-1.6 -0.1,-1.9 -0.3,-0.4 -0.6,0.2 -0.5,1.3 z m 4.9,-0.1 c 2.8,7.4 8.8,15.4 15.5,20.5 7.8,6 20.9,13 24.3,13 9.8,0 14.8,-10.5 8.1,-17.2 -2.9,-3 -3.2,-3 -10.1,-2.6 -13.5,1 -25.7,-3.3 -34.5,-12 -3.7,-3.8 -4.2,-4 -3.3,-1.7 z m -32,-1 c 0,0.8 0.7,1.5 1.5,1.5 0.8,0 1.5,-0.7 1.5,-1.5 0,-0.8 -0.7,-1.5 -1.5,-1.5 -0.8,0 -1.5,0.7 -1.5,1.5 z m -6,0.5 c 0,1.5 0.5,2 1.8,1.8 0.9,-0.2 1.7,-1 1.7,-1.8 0,-0.8 -0.8,-1.6 -1.7,-1.8 -1.3,-0.2 -1.8,0.3 -1.8,1.8 z M 64.1,448.5 c -3.2,1.4 -3.3,1.7 -2.8,5.6 l 0.5,4.1 -2.8,-3.3 -2.8,-3.4 -3.6,1.7 c -3.2,1.6 -3.6,2.2 -3.6,5.7 0,4.4 1.8,6.1 6.4,6.1 4,0 5.8,-1 4.6,-2.5 -0.9,-1 -0.7,-1.2 0.8,-0.8 1,0.2 2.6,-0.3 3.6,-1.2 1.4,-1.5 1.6,-1.5 1.6,-0.1 0,0.9 0.4,1.6 0.8,1.6 1.1,0 4.7,-3.9 6.2,-6.9 1,-2 0.9,-2.6 -1.6,-5.2 -3.2,-3.3 -2.9,-3.3 -7.3,-1.4 z m 65.5,-12.7 c -0.2,0.4 -0.1,1.4 0.4,2.2 0.7,1.1 1.2,1.2 2.1,0.3 0.6,-0.6 0.8,-1.6 0.5,-2.2 -0.8,-1.3 -2.3,-1.4 -3,-0.3 z m -14.5,-0.5 c -0.6,0.8 -1.4,2.8 -1.7,4.6 -0.5,2.4 -0.2,3.5 1.2,4.7 4.5,3.4 5.1,3.5 8.5,0.6 2.8,-2.3 3.2,-2.4 2.5,-0.7 -1.8,4.4 -1.8,5.6 0,7.6 3.6,4 5.2,4.3 9,1.4 2,-1.5 3.3,-3.2 3.1,-3.9 -0.2,-0.6 -0.8,-2.2 -1.2,-3.6 -0.7,-2.3 -0.7,-2.3 1.7,0.5 l 2.6,2.9 4.1,-1.8 c 3.4,-1.6 4.1,-2.4 4.1,-4.8 0,-5.6 -1.4,-6.8 -8,-6.8 -6.1,0 -7.5,1 -4.2,3 1.5,0.9 1.4,1 -0.5,0.5 -1.3,-0.4 -2.3,-0.2 -2.3,0.4 0,0.6 -0.7,0.8 -1.5,0.5 -1.1,-0.4 -1.5,0.1 -1.6,1.7 -0.1,2 -0.2,2.1 -0.6,0.5 -0.8,-2.9 -2.5,-4.3 -4.8,-3.8 -2,0.4 -2,0.4 0,-1.1 2,-1.5 1.9,-1.6 -0.8,-2.6 -3.9,-1.5 -8.2,-1.4 -9.6,0.2 z M 134,423 c -0.6,1 -1.3,4.1 -1.7,6.7 l -0.6,4.8 2.3,-2 2.3,-2 -1.2,2.2 c -1,2 -0.9,2.3 0.9,2.3 1.1,0 3.6,-0.7 5.5,-1.4 3.3,-1.4 3.5,-1.8 3.5,-6.1 0,-4 -0.3,-4.7 -2.6,-5.5 -4,-1.6 -7.2,-1.2 -8.4,1 z m -14.5,0 c -2.3,4.4 -1.3,7.2 3.4,9.8 5,2.9 6.5,2.9 5.1,0.1 -0.7,-1.1 -0.9,-2.3 -0.6,-2.6 0.3,-0.3 0.8,0.2 1.2,1.1 1.2,3.1 2.4,1.6 2.4,-3.2 0,-6.1 -0.7,-7 -5.7,-7.8 -3.9,-0.6 -4.2,-0.5 -5.8,2.6 z M 0.2,428.5 c 0,5.9 0.3,8.1 0.8,6.5 0.4,-1.4 0.8,-4.3 0.8,-6.5 0,-2.2 -0.4,-5.1 -0.8,-6.5 -0.5,-1.6 -0.8,0.6 -0.8,6.5 z m 21,-28 c -1.2,0.9 -2,2.1 -1.7,2.6 0.9,1.3 -0.9,1.1 -2.2,-0.2 -0.9,-0.9 -1.8,-0.8 -3.6,0.4 -3,1.9 -2.6,6.3 0.6,7.3 l 2.2,0.7 -2.3,0.8 c -3.2,1.2 -3,5.6 0.3,7.1 2.1,0.9 2.8,0.8 4.5,-0.7 1.9,-1.8 2,-1.7 2,0.3 0,1.2 0.4,2.2 0.9,2.2 0.5,0 1.6,0.3 2.4,0.6 1,0.3 2.2,-0.4 3.2,-2 1.4,-2.1 1.5,-2.9 0.5,-4.1 -1.1,-1.3 -0.9,-1.5 1,-1.3 1.3,0.2 2.7,-0.5 3.6,-1.8 1.3,-1.9 1.2,-2.4 -0.4,-4.4 -1.6,-1.9 -2.2,-2.1 -4,-1.1 -2.5,1.3 -2.7,0.9 -1,-1.9 1,-1.5 1,-2.5 0.2,-3.8 -1.5,-2.3 -3.5,-2.6 -6.2,-0.7 z M 0,363.3 c 0,1.9 0.9,2.8 4,4 4.2,1.6 8,6.6 8,10.5 0,3 -2.5,7.8 -4.5,8.6 C 4.6,387.5 4,387 4.7,384 5.1,381.8 4.7,380.4 3.5,379 0.6,375.8 0,376.6 0,382.9 v 6 l 3.8,0.4 3.7,0.4 -3.7,0.1 c -5.1,0.3 -4.9,2.2 0.2,2.2 3.2,0 4.8,-0.7 7.6,-3.3 7.2,-6.6 4.9,-17.7 -5,-24.5 C 0.9,360.4 0,360.3 0,363.3 Z m 193,-22.8 c 0,0.8 0.7,1.5 1.5,1.5 0.8,0 1.5,-0.7 1.5,-1.5 0,-0.8 -0.7,-1.5 -1.5,-1.5 -0.8,0 -1.5,0.7 -1.5,1.5 z M 0,306.5 c 0,6.8 0.2,7.5 1.9,7.5 2.3,0 6.9,-3.9 7.2,-6 0.5,-5 -2.4,-9 -6.6,-9 -2.4,0 -2.5,0.2 -2.5,7.5 z M 237.5,288 c 0.3,0.5 0.8,1 1.1,1 0.2,0 0.4,-0.5 0.4,-1 0,-0.6 -0.5,-1 -1.1,-1 -0.5,0 -0.7,0.4 -0.4,1 z M 0,281.4 c 0,0.9 1.6,1.5 4.8,1.8 6.7,0.6 12.5,4.8 15.7,11.1 3,6.1 3.1,9.7 0.6,15.4 C 17.9,316.6 9,319.8 1.8,316.6 0.4,316 0,316.3 0,317.9 c 0,5 12.9,7 19.1,2.8 7.8,-5.2 10.6,-17.5 6.1,-26.3 C 22.5,289 16,283.5 10.2,281.6 4.5,279.6 0,279.5 0,281.4 Z m 233.6,-3.5 c -1.3,1.5 -1.5,2.4 -0.7,3.8 1.4,2.7 4.1,4.9 4.1,3.4 0,-0.8 0.5,-0.9 1.9,-0.2 1,0.6 2.1,0.8 2.3,0.5 0.3,-0.2 0.3,0.7 0.1,2.1 -0.7,3.3 -4,3.4 -5.3,0 -0.5,-1.4 -2.1,-3.1 -3.6,-3.7 -2.3,-1.1 -2.9,-1 -4.5,1.1 -1.7,2.1 -1.8,2.6 -0.5,4.5 0.9,1.3 2.3,2 3.6,1.8 1.9,-0.2 2.1,0 1,1.3 -1,1.2 -0.9,2 0.5,4.1 1,1.6 2.2,2.3 3.2,2 0.8,-0.3 1.9,-0.6 2.4,-0.6 0.5,0 0.9,-1 0.9,-2.3 0.1,-2 0.2,-2.1 1.4,-0.5 2.6,3.5 7.6,1.6 7.6,-2.8 0,-1.5 -0.9,-2.6 -2.7,-3.2 -2.5,-0.9 -2.6,-1.1 -0.6,-1.1 4.3,-0.2 5.7,-6.1 1.8,-7.9 -2.1,-1 -2.8,-0.8 -4.6,1.1 l -2,2.2 0.6,-2.7 c 0.5,-2 0.2,-2.9 -1.3,-3.7 -2.8,-1.5 -3.6,-1.4 -5.6,0.8 z m -3.3,92.9 c -1.2,0.9 -2.9,3.3 -3.7,5.4 -3.8,8.9 -18.6,6.6 -23.1,-3.6 -0.7,-1.7 -1.4,-2.4 -1.4,-1.6 -0.2,3.1 4.8,11.8 8.5,14.8 5,4.2 11.3,6.2 19.1,6.2 6.5,0 12.5,-2.1 15.2,-5.3 3.8,-4.7 2.9,-12.6 -2,-16.1 -3.1,-2.1 -9.8,-2 -12.6,0.2 z M 84.5,276.9 c -0.7,1.2 1.2,2.4 2.5,1.6 1.1,-0.7 0.4,-2.5 -1,-2.5 -0.5,0 -1.1,0.4 -1.5,0.9 z m 7.7,-2.2 -3.4,1.6 2.4,1.3 2.3,1.3 -2.3,0.1 c -1.3,0 -2,0.4 -1.7,1 0.4,0.6 -0.1,0.7 -1.1,0.3 -1.3,-0.5 -1.5,-0.2 -0.9,1.6 l 0.7,2.3 L 86,282 c -1.2,-1.2 -2.8,-1.9 -3.7,-1.6 -1.3,0.5 -1.4,0.4 -0.3,-0.9 1.1,-1.3 0.7,-1.5 -2.9,-1.5 -6.3,0 -8.1,1.3 -8.1,6.1 0,3.7 0.3,4.1 3.7,5.6 3.7,1.5 3.8,1.5 6,-1.2 l 2.3,-2.6 v 3.1 c 0,2.6 0.6,3.3 3.6,4.6 3.6,1.5 3.7,1.5 6.5,-1.2 3.5,-3.3 3.5,-3.7 0.7,-7.7 -2,-2.9 -2,-3.1 -0.2,-1.5 2.8,2.4 5.6,2.2 8.2,-0.5 2.5,-2.7 2.7,-3.6 1,-7.2 -1.4,-3 -5.5,-3.3 -10.6,-0.8 z M 306,242.9 c 0,2.4 2.5,3.4 4,1.6 1.5,-1.8 0.5,-3.5 -2.1,-3.5 -1.2,0 -1.9,0.7 -1.9,1.9 z m 16.2,-8.4 c -4.2,1.8 -9.2,5.4 -9.2,6.5 0,0.5 1.5,1 3.3,1.3 l 3.2,0.3 -3.3,0.9 c -3.2,0.7 -3.2,0.8 -1.5,2.8 1.8,1.9 1.7,2 -0.4,0.8 -3.2,-1.7 -3.6,-1.4 -2.9,2.1 l 0.6,3.3 -1.8,-2.3 c -1.4,-1.8 -2,-2 -3,-1 -0.9,0.9 -1.2,0.8 -1.2,-0.5 0,-2.1 -1.3,-2.2 -3,-0.2 -0.7,0.8 -1.7,1.5 -2.3,1.5 -0.6,0 0,-1.1 1.2,-2.4 3,-3.2 0.9,-4 -6.1,-2.1 -7,1.8 -8.9,4.2 -8.1,10.3 0.7,5.6 0.6,5.5 6.1,7.1 5.8,1.7 7.6,0.8 10.1,-4.7 l 2,-4.7 0.1,4.6 c 0,5.8 2,7.8 8.6,8.5 5.2,0.6 5.3,0.6 9,-6.5 1.6,-2.9 0.6,-5.3 -4,-9.4 l -3.1,-2.9 3.6,2.1 c 5.7,3.3 8.4,2.8 11.9,-2.1 1.6,-2.2 3,-4.6 3,-5.3 0,-2.2 -6,-9.5 -7.8,-9.5 -0.9,0.1 -3.2,0.7 -5,1.5 z m -32.3,-7.8 c -3.3,1.3 -3.7,1.9 -4.2,6.1 -0.6,5.5 0.4,7.9 3.9,9.2 3.2,1.3 14.4,1.3 14.4,0.1 0,-0.5 -1.2,-1.9 -2.7,-3.1 -2.6,-2 -2.2,-2.1 2,-0.5 2.5,1 2.2,-1.6 -0.8,-7.4 -3.3,-6.5 -5.6,-7.3 -12.6,-4.4 z m -52.3,-6.4 c -1.3,4.9 -0.6,8.5 2.6,12.8 l 3.2,4.4 0.7,-3 c 1.4,-6.4 1,-12.2 -1.1,-14.6 l -2,-2.4 0.5,4 c 0.5,3.9 0.4,3.9 -0.5,0.8 -1.3,-4.1 -2.6,-4.9 -3.4,-2 z m 73,-1.7 c -2.7,0.7 -5.3,1.9 -5.8,2.6 -1.3,1.9 -0.3,12 1.5,15.4 l 1.6,2.9 1.6,-3.5 1.6,-3.5 -0.4,3.2 c -0.5,4.5 1.3,4.2 6.8,-1 5.4,-5.3 5.7,-7.9 1.4,-13.3 -1.7,-2.2 -3.1,-3.9 -3.2,-4 -0.1,-0.1 -2.4,0.5 -5.1,1.2 z m 140.6,-52.4 c 0.6,1.8 2.8,2.1 2.8,0.4 0,-0.9 -0.7,-1.6 -1.6,-1.6 -0.9,0 -1.4,0.5 -1.2,1.2 z m 7.6,-10.5 c -3.6,4.2 -4.9,8.7 -2.1,7.6 1.2,-0.5 1.4,-0.3 0.7,0.8 -1.2,1.9 -1.2,3.2 0,4.8 0.9,1.1 0.7,1.3 -1.2,0.7 -1.5,-0.5 -2.2,-0.3 -2.2,0.5 0,0.7 -0.3,0.9 -0.7,0.6 -0.3,-0.4 -1.2,0.1 -1.9,1.1 -1.2,1.5 -1.2,1.5 -0.7,-0.6 0.3,-1.2 0.2,-2.2 -0.1,-2.2 -1.7,0 -5.8,3.6 -7.2,6.1 -1.3,2.7 -1.3,3 1.4,6 2.8,3.1 2.8,3.1 6.5,1.6 3.2,-1.4 3.7,-2.1 3.7,-4.9 l 0.1,-3.3 1.5,2.8 c 1.4,2.6 1.9,2.8 5.2,2.2 4.9,-0.9 5.4,-1.5 5,-6.1 -0.2,-2.9 -0.9,-4.1 -2.7,-5.1 l -2.5,-1.2 2.7,-0.6 c 3.1,-0.8 4.7,-3.2 4.7,-6.7 0,-1.8 -1,-2.9 -3.5,-4.1 -4.4,-2.1 -4.8,-2.1 -6.7,0 z M 10,153.5 c -1.6,0.9 -1.9,1.5 -1,1.5 0.8,0.1 0.5,0.5 -0.9,1.1 -4.8,1.9 -8.1,5 -8.1,7.5 0,2.1 0.3,2.4 2.1,1.9 6.3,-2 13.3,0.4 14.5,4.9 1.1,4.6 0.1,7.1 -3,7.4 -3,0.4 -4.8,-1.2 -3.9,-3.5 0.7,-1.8 4.3,-1.7 4.3,0.2 0,0.8 0.5,1.5 1,1.5 1.5,0 1.2,-2.6 -0.5,-4 -2.3,-1.9 -6.4,-0.4 -7.1,2.6 -1.5,5.8 6.5,8.6 11.1,3.9 6.9,-6.8 -1.9,-19.8 -12.2,-18.2 -3,0.5 -3.3,0.4 -2.2,-0.9 1,-1.2 2.5,-1.4 6.8,-0.9 4.6,0.5 6.1,0.2 8.5,-1.4 l 3,-2 -2.5,-0.9 c -5,-1.9 -7.5,-2 -9.9,-0.7 z m 435.1,-1.7 c -2.6,3.7 -2.6,4.3 -0.1,7.5 l 2.1,2.6 -3.6,-1.5 c -3.4,-1.4 -3.6,-1.4 -6,1.2 -3.1,3.3 -3.2,5.4 -0.2,8.2 2.9,2.8 5,2.8 9.5,0 3.1,-1.9 3.3,-2.2 1.6,-2.9 -1.8,-0.6 -1.8,-0.7 -0.2,-1.4 1,-0.4 1.5,-1.2 1.1,-1.8 -0.3,-0.6 -0.1,-0.7 0.5,-0.3 0.8,0.4 1.2,0 1.2,-1.1 0,-1.5 0.2,-1.6 1,-0.3 0.9,1.3 1.1,1.3 2,0 0.5,-0.8 1.2,-3.2 1.6,-5.3 0.7,-4.6 -0.5,-6.3 -5.2,-7.3 -2.7,-0.5 -3.4,-0.2 -5.3,2.4 z M 251,145 c 0,1.2 -0.4,1.8 -1,1.5 -1.5,-0.9 -4,1.4 -3.3,3.1 0.3,0.8 1.1,1.4 1.8,1.4 0.8,0 1.1,0.8 0.8,2 -0.6,2.2 2.8,4.3 3.5,2.2 0.2,-0.8 0.9,-0.8 2.3,0.1 1.6,1 2.1,0.9 2.9,-0.3 1.5,-2.3 0.6,-3.5 -2.8,-3.8 -2,-0.2 -3.2,-0.9 -3.2,-1.8 0,-1.5 2.6,-2 3.2,-0.5 0.6,1.9 4.2,1.6 4.6,-0.3 0.5,-2.2 -1.8,-3.9 -3.4,-2.5 -0.8,0.7 -1.1,0.4 -1,-0.8 0,-1.2 -0.7,-1.9 -2.1,-2.1 -1.8,-0.3 -2.3,0.2 -2.3,1.8 z M 0,143.5 c 0,3 0.4,3.5 2.3,3.5 l 2.2,0.1 -2.2,1.8 C -0.2,151 -0.6,152 1,152 2.9,152 6,148 6,145.6 6,143.4 2.8,140 0.8,140 0.3,140 0,141.6 0,143.5 Z M 388,140 c 0,0.5 0.5,1 1,1 0.6,0 1,-0.5 1,-1 0,-0.6 -0.4,-1 -1,-1 -0.5,0 -1,0.4 -1,1 z m 4.3,-5.3 c -1.2,1.7 -1.4,2.8 -0.6,3 0.6,0.2 0.9,1.2 0.6,2.1 -0.5,2.1 -4.3,4.8 -4.3,3.2 0,-1.6 -3.7,0.6 -5,2.9 -0.7,1.4 -0.5,2.5 0.8,4.1 1.5,1.8 2.1,2 4.5,1.1 1.5,-0.6 2.7,-1.8 2.8,-2.8 0,-1.1 0.3,-1.3 0.6,-0.6 0.5,1.4 3.1,1.7 5.7,0.7 2.1,-0.8 2.1,-4.8 0,-6.5 -1.4,-1.2 -1.4,-1.4 0.5,-2.1 3.1,-1.1 2.8,-5.6 -0.5,-6.8 -3.3,-1.3 -3.1,-1.4 -5.1,1.7 z m -87.9,-2.2 c -0.4,0.9 -0.2,2.1 0.4,2.7 1.5,1.5 4.4,0.1 4,-1.9 -0.4,-2.3 -3.6,-2.9 -4.4,-0.8 z m 79.5,-1.1 c -0.9,2 -0.9,2.9 0.1,4.1 1.1,1.3 0.9,1.4 -1.6,0.9 -2.3,-0.4 -3.2,0 -4.2,1.6 -1.1,1.9 -1.1,2.5 0.4,4.1 0.9,1 2.4,1.9 3.3,1.9 1.5,-0.1 6.2,-3 4.8,-3 -0.4,0 -0.3,-0.9 0.3,-2 0.6,-1.1 1.5,-1.8 2,-1.5 1.1,0.7 2.3,-3.5 1.8,-6.2 -0.2,-1.1 -1.4,-1.9 -3.1,-2.1 -2.1,-0.3 -2.9,0.2 -3.8,2.2 z m -67.3,-1.1 c -5.1,1.6 -5.4,2.9 -1.4,4.9 l 3.3,1.6 -4.3,-0.5 c -3.6,-0.5 -4.2,-0.3 -3.6,1.1 0.5,1.2 0.2,1.5 -1,1 -1.3,-0.5 -1.6,0.1 -1.7,2.7 -0.1,2.8 -0.3,2.9 -0.6,0.9 -0.7,-3.8 -2.1,-4.7 -3.7,-2.4 -1.5,1.8 -1.5,1.8 -0.9,-0.4 0.6,-2.5 0.5,-2.6 -3.4,-1.2 l -2.8,1 2.9,-2.4 c 3.6,-3 2.4,-3.9 -5.8,-3.9 -8.5,0 -10.6,1.3 -10.6,6.3 0,2.1 -0.3,4.6 -0.6,5.4 -0.5,1.2 0.8,2.2 5,4.2 6.4,2.9 8.2,2.5 11.6,-3.1 2.4,-3.8 3.8,-4.8 1.9,-1.4 -2.1,4 -2.9,8.1 -1.8,10 0.9,1.7 7.7,5.9 9.6,5.9 0.4,0 2.5,-1.6 4.6,-3.5 4,-3.7 4.8,-7.5 2.2,-10.9 -2.7,-3.5 -1.6,-3.9 2,-0.7 2,1.7 4.3,3.1 5.3,3.1 0.9,-0.1 3.5,-1.6 5.6,-3.5 l 3.9,-3.5 -1.2,-4.2 c -2.3,-7.8 -5.5,-9.2 -14.5,-6.5 z m -200.2,0.2 c -0.4,0.9 -0.2,2.1 0.4,2.7 1.5,1.5 4.4,0.1 4,-1.9 -0.4,-2.3 -3.6,-2.9 -4.4,-0.8 z m 176.1,-17.3 c -2.2,0.6 -4.2,1.2 -4.4,1.4 -0.2,0.2 -0.8,2.5 -1.2,5.1 -1,6.4 0.6,8.8 7.3,10.8 2.8,0.8 5.8,1.5 6.5,1.5 1.8,0 1.6,-2.5 -0.2,-4 -0.9,-0.7 -1.3,-1.5 -1,-1.8 0.3,-0.3 1.6,0.5 3,1.8 l 2.5,2.3 V 127 c 0,-6.9 -4.1,-15.2 -7.3,-14.9 -0.7,0.1 -3,0.6 -5.2,1.1 z m 21.4,-2.3 c -6.8,1 -7.9,2.3 -7.9,9.5 0,8.1 1,9.6 3.9,5.9 1.6,-1.9 2.1,-2.2 1.6,-0.8 -2.2,6.4 -1.4,7 4.5,3.4 5.4,-3.3 8,-6 8,-8.6 0,-2.3 -4,-10.4 -5,-10.2 -0.3,0.1 -2.6,0.5 -5.1,0.8 z M 261.5,96 c -0.3,0.6 0.1,1.3 1,1.6 1.9,0.8 3,0 2,-1.5 -0.8,-1.4 -2.2,-1.4 -3,-0.1 z M 0,98.8 c 0,5.9 0.1,6.2 2,5.2 3.4,-1.8 3.7,-5.8 0.6,-8.8 L 0,92.5 Z m 0,-9 c 0,0.4 1.4,1.2 3.2,1.7 4.8,1.5 7.3,5.6 7.3,12 0,6.2 -2.3,10.2 -7.3,12.4 -1.8,0.8 -3.2,2.1 -3.2,2.8 0,1.8 0.6,1.7 5.1,-0.9 7,-3.9 9.8,-13.5 6.1,-20.8 C 8.9,92.3 0,86.6 0,89.8 Z m 268.9,0.1 c -3.3,3.3 -3.8,5.6 -1.1,4.7 1.5,-0.5 1.5,-0.5 0.1,0.6 -0.9,0.7 -1.5,2.3 -1.4,3.5 0.1,1.8 -0.1,2 -1.2,1.2 -0.7,-0.6 -1.3,-0.8 -1.3,-0.3 0,0.5 -1.1,1.4 -2.5,2 -2.3,1.1 -2.4,1 -1.4,-0.7 1.4,-2.7 -0.8,-2.5 -5.4,0.6 -4.2,2.9 -4.7,5.6 -1.8,9.4 1.7,2.3 2.3,2.4 5.8,1.5 3.3,-0.8 3.9,-1.3 4.3,-4.4 l 0.6,-3.5 0.8,3.2 c 0.8,3.6 3.2,4.8 7.5,3.8 4.5,-1 5.7,-8.1 1.9,-10.9 l -2.3,-1.6 2.6,0.6 c 2.9,0.6 4.5,-0.9 5.8,-5.4 0.8,-2.6 0.5,-3.2 -2,-5.1 -3.8,-2.8 -5.5,-2.7 -9,0.8 z M 19,83.9 c 0,0.4 -1.1,0.6 -2.4,0.4 -2.7,-0.5 -4.4,1.3 -2.7,3 0.7,0.7 0.6,1.4 -0.6,2.2 -2.3,1.7 -0.9,4.9 1.7,4.2 1.1,-0.3 1.8,-0.2 1.5,0.3 -0.3,0.4 0.2,1.4 1.1,2.1 1.3,1.1 1.8,1 3.2,-0.8 1,-1.1 2.5,-2.3 3.5,-2.6 1.5,-0.6 1.6,-1 0.5,-2.9 -1.3,-2.5 -1.5,-3 -1.7,-5.3 C 23,82.9 19,82.3 19,83.9 Z m 370.4,-0.7 c -0.3,1.3 -1.5,3.3 -2.5,4.6 -1,1.3 -1.6,2.9 -1.3,3.7 0.8,2 3.4,2.7 5,1.4 1.7,-1.4 1.9,0.2 0.2,1.9 -0.8,0.8 -0.8,1.5 0.2,2.7 1.7,2.1 3.6,1.9 5.3,-0.5 0.8,-1.1 1.6,-1.7 2,-1.4 0.3,0.3 1.5,0.3 2.6,-0.1 2.5,-0.8 2.8,-4 0.5,-5.3 -1.1,-0.6 -1.3,-1.1 -0.5,-1.6 0.6,-0.4 1.1,-1.8 1.1,-3.2 0,-1.9 -0.5,-2.4 -2.5,-2.4 -1.5,0 -2.8,0.7 -3.2,1.7 -0.6,1.5 -0.8,1.4 -1.3,-0.7 -0.8,-3.4 -4.6,-4 -5.6,-0.8 z m 6.6,5.3 c 1.3,1.6 0.6,3.5 -1.5,3.5 -1.8,0 -2.6,-1.5 -1.9,-3.4 0.8,-2 1.8,-2 3.4,-0.1 z M 258.8,81.1 c -3.5,2.6 -3.5,4.4 -0.1,9.4 l 2.7,4 -3.7,-3.3 c -4.4,-3.7 -7.9,-4.1 -10.1,-1 -2.2,3.1 -2,5.5 0.8,8.3 2.4,2.4 2.5,2.4 7.2,0.8 4.3,-1.5 4.6,-1.7 2.9,-2.9 -1.8,-1.3 -1.8,-1.4 0.4,-1.4 1.5,0 2.5,-0.7 2.8,-2 0.5,-1.9 0.6,-1.9 1.8,-0.3 1.1,1.5 1.5,1.3 3.4,-2.5 2.7,-5.3 2.7,-6.6 -0.5,-9.1 -3.3,-2.6 -4.2,-2.6 -7.6,0 z M 34.6,72.3 c -3.6,2.6 0.4,8.4 4.2,6.1 2.3,-1.5 2.6,-3.8 0.7,-5.8 -2,-1.9 -2.6,-2 -4.9,-0.3 z m 491.6,-2.7 c -3.5,2.4 -2.8,8.4 1.2,10.3 2.5,1.2 3.1,1.1 5.5,-0.6 3.3,-2.6 3.9,-6.5 1.2,-9.2 -2.5,-2.5 -4.9,-2.7 -7.9,-0.5 z m -13.1,-2.7 c -1.6,2.8 -1.4,4.6 0.7,6.4 2.5,2.2 4.5,2.1 6.7,-0.3 1.5,-1.6 1.7,-2.6 0.9,-4.8 -1.2,-3.5 -6.7,-4.4 -8.3,-1.3 z M 32,65.5 c -1.5,1.8 -0.5,3.5 2,3.5 1,0 2.2,-0.5 2.5,-1 0.7,-1.1 -1.2,-4 -2.5,-4 -0.4,0 -1.3,0.7 -2,1.5 z m 509.2,-1.8 c -1.6,0.6 -4.2,5.6 -4.2,8.1 0,3.5 3.8,7.2 7.5,7.2 4.7,0 6.4,-0.8 8,-4.1 2.1,-3.9 1.9,-5.3 -1.1,-8.8 -2.5,-3 -6.4,-3.9 -10.2,-2.4 z M 508,58.5 c -1,1.2 -1,2.1 -0.1,4.1 1.3,2.9 4.7,3 6.5,0.1 2.3,-3.7 -3.6,-7.6 -6.4,-4.2 z M 205.5,58 c -0.3,0.5 -0.1,1 0.4,1 0.6,0 1.1,-0.5 1.1,-1 0,-0.6 -0.2,-1 -0.4,-1 -0.3,0 -0.8,0.4 -1.1,1 z M 32.7,57.6 c -1.4,1.4 -0.7,3.5 1.1,3.2 0.9,-0.2 1.7,-1 1.7,-1.7 0,-1.6 -1.8,-2.5 -2.8,-1.5 z m 1.9,-4.9 C 33.5,53.8 34,55 35.5,55 36.3,55 37,54.6 37,54.1 37,52.8 35.4,51.9 34.6,52.7 Z m 471.6,-0.5 c 0.2,1.5 1,2.3 2.3,2.3 3,0 2.7,-3.9 -0.3,-4.3 -2,-0.3 -2.3,0 -2,2 z M 203.5,48 c -1,1.1 -1.5,2.8 -1.2,3.9 0.4,1.7 0.2,1.8 -1.4,0.8 -3.9,-2.5 -7.8,3.3 -4.4,6.6 1.2,1.3 2.1,1.4 4.5,0.5 1.7,-0.5 2.8,-1.4 2.5,-1.8 -0.5,-0.7 1.5,-2 4,-2.5 0.6,-0.2 1.2,1.1 1.3,2.8 0.2,1.7 0,2.8 -0.4,2.4 -0.4,-0.3 -1.6,-0.2 -2.7,0.4 -1.4,0.8 -1.8,0.8 -1.3,0 1,-1.6 -1.6,-1.3 -4.2,0.5 -2.5,1.7 -2.8,3.3 -0.9,5.9 1.7,2.3 6.7,1.4 6.7,-1.3 0.1,-1.6 0.1,-1.6 1.4,0 2,2.8 6.4,2.3 7.2,-0.6 0.3,-1.4 0.3,-2.9 0,-3.5 -0.4,-0.6 0.2,-1.9 1.4,-3.1 2.6,-2.6 2.5,-4.5 -0.2,-6.4 -1.9,-1.4 -2.5,-1.4 -4.3,-0.2 -2.1,1.4 -2.2,1.3 -1.7,-1 0.3,-1.7 -0.2,-3 -1.4,-3.9 -2.5,-1.9 -2.8,-1.8 -4.9,0.5 z m 302.7,-3.3 c 0.2,1 1,1.8 1.8,1.8 0.8,0 1.6,-0.8 1.8,-1.8 0.2,-1.2 -0.3,-1.7 -1.8,-1.7 -1.5,0 -2,0.5 -1.8,1.7 z m 2.5,-6.1 c -0.8,0.8 0.1,2.4 1.4,2.4 0.5,0 0.9,-0.7 0.9,-1.5 0,-1.5 -1.2,-2 -2.3,-0.9 z m -63.4,-2.8 c 3.8,4.2 1.1,12.2 -4.1,12.2 -4.7,0 -6.3,6.8 -2.6,10.5 6,5.9 15.1,-5.4 12.4,-15.4 -1.1,-4.2 -4.5,-9.1 -6.2,-9.1 -0.6,0 -0.4,0.8 0.5,1.8 z M 125.1,33.4 c -0.9,1 -0.8,1.6 0.4,2.6 1.9,1.6 4.1,-0.1 3.2,-2.4 -0.8,-2 -2.1,-2 -3.6,-0.2 z M 56,32.8 c 10,5.1 15,12 15,20.8 0,8.7 -6.4,15.7 -14.2,15.7 -9.4,0 -15.4,-8.5 -11.3,-16.2 3,-5.9 11.4,-6.3 14.5,-0.8 1.3,2.4 1.3,3 0,5.4 -1.7,3.1 -5.3,4.1 -7.6,2.3 -1.6,-1.4 -1.9,-6 -0.4,-6 0.5,0 0.7,0.6 0.4,1.4 -0.8,2 2.9,3.9 4.4,2.4 1.6,-1.6 1.5,-3.3 -0.3,-4.8 -2.2,-1.8 -6.4,-0.4 -7.1,2.4 -1.8,7.4 8.5,10.5 12.1,3.6 2.1,-4.1 1.9,-5.5 -1.4,-9.2 -8.4,-9.4 -23,3.1 -16.2,14 3.9,6.1 11.7,8.8 18.3,6.3 3.9,-1.5 8.5,-7 9.7,-11.6 C 74.3,48.9 69.4,39.4 59,33.1 57.1,32 54.8,31 54,31 c -0.8,0.1 0.1,0.9 2,1.8 z m 48.3,-1.7 c -0.6,0.8 -1.5,3 -2,4.9 -0.8,2.9 -1.6,3.7 -4.9,4.8 -4.4,1.5 -11.1,1 -15.5,-1.2 -4.8,-2.4 -3.2,0.2 2.4,3.9 10.7,7.1 25.2,7.9 32,1.7 3.2,-3 3.4,-2.4 0.7,2 -2.8,4.7 -2.5,6.2 2.2,10.2 l 4.1,3.6 5.1,-2.8 c 4.7,-2.5 5.1,-3 5.1,-6.2 -0.1,-1.9 -0.4,-4.6 -0.9,-6 -0.6,-1.9 -0.2,-1.7 2,1.3 3.7,5.1 6.2,5.5 11.9,2.1 3.8,-2.2 4.6,-3.1 4.1,-4.8 -0.3,-1.2 -0.6,-3.1 -0.6,-4.4 0,-1.3 -1.2,-3.5 -2.6,-4.9 -2.3,-2.3 -3.1,-2.5 -8.6,-2 -3.3,0.3 -6.2,0.8 -6.6,1.2 -0.3,0.3 0.7,1.7 2.3,3 l 3,2.5 -3.7,-1.5 c -3.4,-1.4 -3.8,-1.4 -3.8,0 0,0.8 -0.5,1.4 -1.2,1.2 -0.6,-0.1 -1.5,0.9 -1.9,2.3 -0.7,2.3 -0.7,2.3 -0.8,-0.8 -0.1,-3.6 -0.7,-3.9 -3.2,-1.6 -1.6,1.5 -1.7,1.4 -1.2,-0.7 0.6,-2 0.4,-2.2 -2.5,-1.6 -4,0.8 -4.1,-0.1 -0.2,-1.4 1.7,-0.6 3,-1.4 3,-1.8 0,-2.7 -15.7,-5.3 -17.7,-3 z M 48.8,30.7 c 0.6,0.2 1.8,0.2 2.5,0 0.6,-0.3 0.1,-0.5 -1.3,-0.5 -1.4,0 -1.9,0.2 -1.2,0.5 z m 526.7,-5.6 c -4.9,2.3 -14.2,2.5 -19.2,0.4 -3.3,-1.4 -3.4,-1.4 -2.2,0.1 4,4.9 15.9,9.4 24.6,9.4 3.4,0 4.6,-0.5 5.9,-2.5 2.1,-3.2 1.2,-6.8 -2.1,-8.3 -1.4,-0.7 -2.7,-1.2 -2.8,-1.1 -0.1,0 -2,0.9 -4.2,2 z M 307.4,20.5 c -0.3,0.8 -0.3,1.9 0.1,2.5 0.3,0.5 -0.1,1 -0.9,1 -0.8,0 -1.8,0.5 -2.1,1 -0.9,1.5 1.4,4 3.1,3.3 0.9,-0.3 1.2,0 0.9,0.9 -0.3,0.8 0.1,2 0.8,2.7 1.2,0.9 1.8,0.8 3,-0.4 0.9,-0.8 2.2,-1.5 3,-1.5 2.1,0 2,-8.9 -0.1,-9.7 -0.8,-0.3 -1.7,0 -2.2,0.6 -0.5,1 -0.9,0.9 -1.3,-0.3 -0.8,-2 -3.6,-2.1 -4.3,-0.1 z m 5.6,5 c 0,0.8 -0.6,1.5 -1.4,1.5 -1.7,0 -2.8,-1.4 -1.9,-2.4 1.2,-1.2 3.3,-0.6 3.3,0.9 z M 518,16 c 9.7,0.8 14.1,2.4 19.4,7 10.1,8.9 10.3,23.9 0.4,30 -10.2,6.2 -23.5,-3.9 -18.4,-13.8 1.9,-3.7 4.4,-5.2 8.4,-5.2 3.4,0 7.2,3.6 7.2,6.8 0,2.4 -3.2,6.2 -5.3,6.2 -2.5,0 -4.9,-2.6 -4.5,-5 0.4,-3.1 2.5,-3.7 2.4,-0.8 -0.1,1.7 0.5,2.3 1.9,2.3 2.8,0 3.2,-4 0.6,-5.5 -4.5,-2.4 -8.6,3.1 -5.7,7.5 3.5,5.4 12.6,1.5 12.6,-5.2 0,-3.6 -5.1,-8.3 -9,-8.3 -9.6,0 -14.8,10.8 -9.1,18.8 2.7,3.9 9.8,6.7 14.6,5.8 7.9,-1.5 14.4,-11.4 13.1,-19.8 -2.1,-13.2 -14.5,-22 -30.5,-21.7 l -6.6,0.2 z M 131.1,15.4 c -1.5,1.7 -3.7,13.3 -2.8,14.3 0.4,0.3 1.8,-0.4 3.2,-1.7 2.9,-2.7 3.2,-2 0.9,1.6 -0.9,1.3 -1.4,2.7 -1.1,3.1 0.9,0.8 9,-1.6 12.6,-3.8 3.6,-2.2 4.1,-5.7 1.7,-11.4 -1.5,-3.4 -1.6,-3.5 -7.4,-3.5 -3.9,0 -6.4,0.5 -7.1,1.4 z M 97.6,12.7 c -0.8,1 -2.7,3.3 -4.1,5.1 -3.9,4.7 -10.8,8.4 -17.3,9.2 -5.5,0.6 -5.6,0.7 -2.9,1.8 7,2.9 28.7,-0.8 33.7,-5.8 1.8,-1.8 1.8,-1.8 2.4,0.6 0.7,2.6 8.9,7.4 12.6,7.4 2,0 2,-0.1 0.5,-3.3 l -1.6,-3.2 2.1,2.7 c 1.2,1.6 2.6,2.8 3.1,2.8 0.5,0 0.9,-3 0.9,-6.8 0,-9.4 -1.4,-11.2 -8.8,-11.2 -5.6,0 -5.8,0.1 -7.1,3.2 -1.2,2.8 -1.4,3 -1.8,1.3 -0.9,-3.4 -3.4,-5.5 -7,-5.5 -2,0 -3.9,0.7 -4.7,1.7 z M 567.8,3.4 C 564.3,7.8 554,13 548.6,13 c -3.6,0.1 -3.9,0.2 -2.1,1.3 3.5,2 17.2,1.4 25,-1.2 9.4,-3.2 13.4,-6.8 12,-11.1 -0.5,-1.7 -1.6,-2 -6.8,-2 -5.9,0 -6.4,0.2 -8.9,3.4 z M 534.8,3 c -2,1.7 -6,4.2 -9,5.6 l -5.3,2.5 7,-0.4 c 7.4,-0.4 14.6,-3 22.5,-7.9 L 554.5,0 h -8 C 539,0 538.2,0.2 534.8,3 Z M 437,0.4 c 0,0.1 1.4,1.7 3,3.4 3.5,3.7 3.6,5.2 1,10.9 -1.9,4.2 -6.9,8.3 -10.2,8.3 -0.9,0 -2,0.5 -2.4,1.2 -1.1,1.8 8.8,0.3 13.4,-2.1 2.2,-1.1 5.3,-3.1 6.9,-4.5 3.1,-2.6 7.6,-10.3 8.7,-14.9 L 458,0 H 447.5 C 441.7,0 437,0.2 437,0.4 Z m -52,1.8 c 7.6,2.9 23.5,3.1 30.3,0.4 6.4,-2.4 5.2,-3.3 -1.5,-1 -6.6,2.2 -20.3,2.2 -27.3,0 -7.1,-2.2 -8.1,-1.8 -1.5,0.6 z m -10.3,0.2 c 4.6,3.9 16.3,11.1 24.8,15.4 29.5,14.7 61.5,17.1 87,6.5 8.3,-3.5 20.9,-12.1 27.5,-18.7 5,-5.2 5.3,-5.6 2.9,-5.6 -1.7,0 -4.3,1.8 -8,5.3 -7,6.7 -15.4,12.3 -25.1,16.5 -29.8,12.9 -69.7,6.5 -103.1,-16.4 -8.4,-5.8 -10.6,-6.9 -6,-3 z m -31,0.8 c 2.5,4.8 2.3,13.9 -0.3,17.5 -3.1,4.1 -6.8,5.6 -12.1,4.8 -5.9,-0.9 -11.1,-5.6 -12,-10.7 -0.5,-3.2 -0.1,-4.1 2.5,-6.8 1.7,-1.6 3.9,-3 4.9,-3 1.4,0.1 1.2,0.4 -0.8,1.5 -3.2,1.8 -4.1,3.8 -3,6.8 1.3,3.4 3.6,4.9 6.5,4.1 2.8,-0.7 4.1,-1.9 5,-5 1,-3.4 -3.7,-8.4 -7.8,-8.4 -11.3,0 -11.5,16.9 -0.3,22 7.8,3.6 15.1,2 20.4,-4.4 3,-3.6 3,-3.7 3.7,-1.4 0.3,1.3 0.6,4.9 0.6,8.2 0,5.1 -0.4,6.3 -3,9.3 -2.3,2.6 -3,4.3 -3,7.5 v 4.2 l 4.1,-3.9 c 3.8,-3.8 4,-4.2 3.4,-8.5 -0.3,-2.5 -0.2,-5.8 0.3,-7.5 l 0.8,-3 1.2,4.5 c 4.2,16.9 0.7,33.8 -9.3,44.9 C 334.7,87.8 316,89.5 304.3,79.6 299.3,75.4 296,67.7 296,60.5 296,49 302.9,40 314,37 c 17.4,-4.7 32.4,15.6 20.2,27.4 -3,2.8 -8.4,4.8 -10.7,4 -1,-0.4 -0.7,-1.2 1.2,-2.9 5.4,-4.5 2.4,-13.5 -4.4,-13.5 -3.6,0 -7.3,4.2 -7.3,8.5 0,2.6 0.9,4.5 3.4,7.2 3,3.3 3.9,3.7 9.4,4.1 11.5,0.8 18.8,-6.4 18,-17.9 -0.6,-8.1 -4.3,-13.4 -12.2,-17.3 -21.3,-10.7 -48.3,10.5 -42.3,33.1 1.4,5.3 1.4,5.3 -0.9,5.3 -2.6,0 -6.4,4.3 -6.4,7.4 0,3.6 3.6,8.2 8.2,10.4 6.7,3.3 17.5,4.7 25.5,3.4 3.7,-0.6 6.9,-0.9 7.2,-0.7 0.8,0.9 -11,5.6 -15.5,6.2 -3.3,0.4 -5.6,0 -9.5,-1.6 -5.5,-2.4 -8.7,-2.2 -14.7,0.8 l -3.4,1.7 6.9,3.2 c 7.7,3.5 9,3.7 12.8,2 3.9,-1.8 3,-2.8 -2.7,-2.9 -4.8,-0.2 -4.6,-0.2 2.4,-1 10.5,-1.1 18,-3.2 23.4,-6.6 6.8,-4.2 8.5,-5 13.6,-6.8 5.3,-1.8 11.2,-6.2 14.3,-10.5 2.9,-4.3 3.7,-3.7 3,2.2 -0.6,5 -0.5,5.6 3.3,10.6 l 4,5.2 1.1,-4.5 c 1.2,-4.7 0.2,-8.5 -3.2,-12.8 -1.9,-2.3 -2.5,-2.2 -3,1 -0.2,1.6 -0.5,0.4 -0.6,-2.6 C 355,74.4 357.6,64 359,64 c 1.4,0 10.3,17.6 12.9,25.5 8.2,24.8 6.2,40.8 -5.9,47.3 -5.6,3 -14.4,2.8 -18.8,-0.5 -5,-3.7 -7.4,-8.3 -6.9,-13.1 1.2,-11.1 15.1,-15.8 22.8,-7.6 2.8,3 3.2,9.5 0.8,12 -1.5,1.4 -1.7,1.3 -2.7,-1.4 -2.3,-6.8 -10.2,-5.9 -10.2,1.2 0,5.8 6,8.9 12.3,6.3 4.5,-1.9 7,-5.7 7,-10.5 0,-7.9 -5.1,-13.1 -14.8,-15.3 -13.5,-3 -24.8,8 -21.5,21 0.7,3 0.8,4.7 0.1,4.9 -1.9,0.6 1.1,6.1 4.5,8.3 1.9,1.2 3.7,1.9 4,1.6 1.4,-1.3 -1,-6.7 -4.2,-9.6 -3,-2.8 -3.4,-3.7 -3.4,-8.2 0,-5.7 2.7,-11.7 6.1,-13.8 2.2,-1.3 2.2,-1.2 -0.3,1.7 -9.4,11.2 1.8,30.2 17.8,30.2 18.3,-0.1 28.5,-21 20.8,-42.5 -1.2,-3.3 4.9,2.8 14.2,14.4 10.6,13.2 17.9,27.3 20,38.9 l 1.6,8.4 -2.6,5.1 c -3.1,6.3 -7.7,9.6 -14.8,10.8 l -5.3,0.8 5.8,-0.3 c 4.6,-0.2 6.7,-0.9 10.3,-3.4 l 4.4,-3.2 -1.9,3.8 c -2.6,5 -4.9,6.9 -9.6,7.6 -4.6,0.8 -7.2,2.6 -10.5,7.5 l -2.4,3.4 4,-0.6 c 2.1,-0.4 5.2,-0.7 6.7,-0.7 1.6,0 3.8,-1 5.2,-2.5 3.4,-3.3 3.3,-5.2 -0.1,-3 -3.8,2.5 -3.7,1.4 0.1,-1.5 1.8,-1.4 4.3,-4 5.6,-5.9 3.2,-4.7 3.5,-2.2 0.5,4.4 -5.4,11.9 -18.4,21.7 -31.2,23.4 -19.4,2.7 -38.9,-8.8 -42.6,-25.1 -2.8,-12.6 6,-25.3 18.9,-27.3 16,-2.4 29.9,13.8 23.9,27.8 -3.2,7.5 -12.3,11 -19.4,7.3 -7.8,-4 -6.7,-14.6 1.5,-13.3 4,0.7 5.1,-0.6 2.1,-2.7 -3.4,-2.4 -6.6,-1.9 -9.9,1.3 -3.3,3.3 -3.7,6.7 -1.4,11.1 3.9,7.6 14.5,9.9 22.3,4.8 5.7,-3.8 9.7,-12.2 8.8,-18.5 -1.2,-9.3 -8.8,-17.6 -18.6,-20.3 -14.8,-4.1 -30.3,4.8 -34.6,19.8 -7,24 20.1,48.7 48.3,44.2 17.9,-2.9 32,-15.5 37.5,-33.3 1.7,-5.9 2,-8.6 1.5,-17.6 -0.6,-12.5 -2.7,-19.5 -9.7,-32.9 -2.7,-5 -4.7,-9.2 -4.5,-9.2 0.9,0 10.9,14.9 13.7,20.5 3.5,6.8 7.8,18.9 7.8,21.8 0,1.1 -1.5,4.5 -3.2,7.6 -4.5,7.7 -4.4,14.7 0.1,24.6 l 3.3,7 4.8,-9.5 c 6.1,-11.8 6.9,-16.2 4.2,-22.3 -3,-6.8 -4.2,-6.8 -4.2,0 0,5.3 -1.7,14 -2.5,13.1 -0.2,-0.1 0.1,-2.7 0.7,-5.7 1.9,-10.8 -5.8,-33.7 -16.6,-49.1 l -5.8,-8.2 6.1,4.2 c 3.4,2.2 10,6.1 14.6,8.6 7.8,4 9.4,5.8 3.1,3.4 -3.7,-1.4 -2.3,1.4 2.1,4.1 3.4,2.1 3.8,2.1 11.9,0.9 l 8.5,-1.3 -3.2,-3.4 c -4.8,-4.8 -10.5,-6.8 -15.9,-5.3 -4.1,1.1 -4.5,1 -12.4,-3.6 -8.5,-4.9 -22.4,-15.3 -26.6,-19.9 -1.4,-1.5 0.5,-0.5 4.3,2.4 13.5,10.1 24.7,14.3 38.3,14.2 13.1,0 22.3,-4.2 29.4,-13.2 9.8,-12.2 10.7,-29 2.2,-38.9 -5.6,-6.6 -10.2,-8.5 -20.7,-8.5 -8.2,0 -9.5,0.3 -14.5,3.1 -10.8,6.1 -15.2,19.1 -9.7,28.9 3.3,5.9 7.8,8.5 14.7,8.5 4.2,0 6.4,-0.5 8.3,-2 6.4,-5 2.4,-14.7 -5,-11.9 -3.3,1.2 -3.9,4.6 -1.4,8 l 2.2,2.9 h -2.2 c -3.8,0 -10,-4.3 -12.6,-8.8 -2.1,-3.5 -2.5,-5.2 -2.1,-9.2 1.7,-17.3 23.7,-22.9 37.2,-9.4 13.5,13.5 7.7,36.4 -11.4,45.2 -7.2,3.3 -19.2,4.1 -27.1,1.8 -16.6,-4.8 -40.8,-27.7 -55.7,-52.6 -5,-8.3 -5.1,-10.2 -0.2,-3.4 3.3,4.7 17.2,16.4 19.3,16.4 0.7,0 0.3,-0.7 -0.8,-1.5 -7.3,-5.4 -13,-10.4 -16,-14.1 -4.5,-5.5 -4.5,-6.4 0.2,-2.4 12.1,10.7 30,11.5 39,1.8 8.9,-9.5 6,-24.8 -5.9,-30.9 -7.9,-4 -20.1,-1.7 -27.8,5.4 -1.9,1.8 -2.8,2.4 -2.1,1.4 2.1,-2.6 0.7,-3 -1.6,-0.4 -2.4,2.6 -4.2,10.7 -2.3,10.7 2.4,0 7,-5.8 7,-8.8 0,-2.1 0.8,-3.5 2.5,-4.6 3.5,-2.3 3.9,-2 1.4,1.4 -2.8,3.7 -3,10.7 -0.5,14.5 2.2,3.3 7.8,5.7 11.1,4.9 5,-1.2 7.2,-7.6 3.7,-10.7 -2.6,-2.4 -4.9,-2.1 -6.7,0.7 -1.7,2.6 -1.1,5.6 1.2,5.6 1.3,0 1.3,-0.3 0.3,-1.5 -1.8,-2.2 0.5,-4.8 3,-3.5 2.2,1.2 1.6,4.6 -1.1,6.1 -3.6,1.9 -8.9,-3.1 -8.9,-8.4 0,-13.6 19.4,-15.9 25.5,-3 4,8.4 1.4,16.6 -6.9,21.7 -4,2.5 -5.8,3 -11.4,3 -9.1,0.1 -16,-3.3 -24.1,-12 L 360,54.9 v -6.2 c 0,-3.4 -0.7,-9.3 -1.5,-13.2 -0.8,-3.8 -1.5,-7.6 -1.5,-8.3 0,-2 6.9,-4.5 10.4,-3.8 6.5,1.3 9.9,8.2 5.8,11.9 -2.6,2.4 -3.2,2.1 -3.2,-1.1 0,-3.7 -1.7,-5.4 -4.2,-4.1 -2.3,1.2 -2.3,4.1 0,6.1 3.4,3 5.2,2.9 8.3,-0.1 3.3,-3.3 3.5,-5 1.4,-9 -2.4,-4.7 -7.8,-5.9 -17.8,-3.9 -1.5,0.2 -2.4,-1.5 -5.1,-9.7 C 348,-0.4 348.2,0 344.9,0 h -3 z m 4,12.5 c -0.3,1 -0.5,0.4 -0.5,-1.2 0,-1.7 0.2,-2.4 0.5,-1.8 0.2,0.7 0.2,2.1 0,3 z m 114.1,58 c 5.3,3 8.9,8.3 10.2,15.2 1.2,6.5 1.2,6.1 0,6.1 -0.5,0 -1,-1.2 -1,-2.8 0,-3.8 -4.2,-12.2 -7.6,-15.3 -1.6,-1.5 -4.7,-3.6 -6.9,-4.8 -2.5,-1.4 -3.1,-1.9 -1.5,-1.5 1.4,0.3 4.4,1.7 6.8,3.1 z m -170.2,4.5 c 0.5,0.7 0.2,0.9 -0.9,0.5 -1.9,-0.7 -4.1,1.7 -3.3,3.8 1,2.7 3.8,3 5.7,0.6 l 1.9,-2.3 3.1,2.7 c 4.1,3.4 11.4,7.1 15.9,8 1.9,0.3 4.4,0.9 5.5,1.3 1.7,0.5 1.6,0.7 -1,1.3 -7.8,1.8 -21.6,0.4 -27.7,-2.7 -6,-3.1 -8.9,-9.9 -5.6,-13.2 1.5,-1.5 5.5,-1.6 6.4,0 z m 180.1,22 c -0.3,0.8 -0.6,0.5 -0.6,-0.6 -0.1,-1.1 0.2,-1.7 0.5,-1.3 0.3,0.3 0.4,1.2 0.1,1.9 z m -92.6,24.4 c -2.4,10.6 -10.7,17.5 -20.7,17.3 l -4.9,-0.2 5.5,-0.7 c 3,-0.4 6.9,-1.4 8.7,-2.3 6.4,-3.4 11.1,-11.6 11.4,-20.4 0.1,-2 0.3,-2.3 0.6,-0.8 0.3,1 0,4.3 -0.6,7.1 z m -14.4,6 c -1.5,1.3 -4,2.4 -5.5,2.4 -2.4,-0.1 -2.2,-0.3 1.3,-1.5 2.2,-0.8 4.4,-2.1 5,-2.9 0.5,-0.8 1.2,-1.3 1.5,-1 0.3,0.3 -0.8,1.7 -2.3,3 z m -7.8,46.7 c -0.8,0.7 -2.1,2.1 -2.7,3.2 -0.7,1.3 -1.2,1.5 -1.2,0.6 0,-1.8 2.9,-5.1 4.4,-5.1 0.6,0 0.4,0.6 -0.5,1.3 z M 221.5,10 c 0.3,0.5 0.8,1 1.1,1 0.2,0 0.4,-0.5 0.4,-1 0,-0.6 -0.5,-1 -1.1,-1 -0.5,0 -0.7,0.4 -0.4,1 z m -8.2,-7.2 c 2.5,2.6 2.6,2.9 1,4.5 -2.2,2.2 -0.6,5.3 2.6,5 1.9,-0.2 2,0 0.9,1.7 -1,1.6 -1,2.3 0.3,3.5 1.8,1.8 4.9,1 4.9,-1.3 0,-1.2 0.3,-1.3 1.2,-0.4 1.8,1.8 3.6,1.5 4.8,-0.9 0.9,-1.5 0.8,-2.4 -0.1,-3.5 -0.7,-0.8 -0.7,-1.4 -0.1,-1.4 1.8,0 2.3,-3.3 0.7,-4.9 -1.2,-1.3 -1.9,-1.3 -3.5,-0.4 -1.6,1.1 -1.9,0.9 -2.2,-1 -0.4,-2.8 -3.8,-3.5 -5.5,-1.1 -1.2,1.7 -1.4,1.7 -3.6,-0.4 -3.4,-3.2 -4.5,-2.7 -1.4,0.6 z M 224,9.5 c 0,1.9 -2,2.9 -3.1,1.8 -1.4,-1.4 0,-4.3 1.7,-3.6 0.8,0.3 1.4,1.1 1.4,1.8 z M 86.2,262.2 c -0.7,0.7 -1.2,3 -1.2,5.2 l -0.1,4.1 -1.7,-3.5 c -1.8,-3.8 -4.3,-4.7 -8.4,-3.1 -3.5,1.3 -4.7,6.9 -1.9,9.2 2.1,1.7 8.9,3.4 9.8,2.5 0.3,-0.3 0.1,-1.2 -0.6,-1.9 -0.9,-1.2 -0.6,-1.3 1.5,-0.9 1.9,0.3 3.1,-0.1 4.2,-1.4 1.3,-1.8 1.4,-1.8 0.7,0.3 -0.8,2.9 0.2,2.9 4.8,-0.2 4.1,-2.8 4.4,-4.2 2.2,-8.5 -1.2,-2.4 -2.2,-3 -4.8,-3 -1.8,0 -3.8,0.5 -4.5,1.2 z m 121.4,-24.9 c -1.6,1.2 -1.7,1.7 -0.6,3.8 1.2,2.2 1.2,2.3 -0.3,1.1 -2.1,-1.8 -5.7,-0.6 -5.7,1.9 0,1.1 1,2.3 2.2,2.8 1.3,0.4 1.7,1 1.1,1.4 -0.6,0.4 -0.9,1.6 -0.6,2.6 0.4,1.6 1.4,1.9 6.3,1.9 6.9,0 8.7,-2 4.8,-5.2 -2.3,-1.8 -2.3,-1.9 -0.1,-1.2 1.6,0.5 2.5,0.2 3.3,-1.4 1.2,-2.3 -0.1,-5 -2.5,-5 -0.6,0 -2,-0.9 -3,-2 -2.1,-2.4 -2.5,-2.4 -4.9,-0.7 z m 4.2,8.5 c 0.4,2.3 -0.4,2.7 -2.7,1.3 -1.7,-1.1 -0.7,-4.5 1.2,-3.9 0.6,0.3 1.3,1.4 1.5,2.6 z M 88.5,209 c 0.3,0.5 0.8,1 1.1,1 0.2,0 0.4,-0.5 0.4,-1 0,-0.6 -0.5,-1 -1.1,-1 -0.5,0 -0.7,0.4 -0.4,1 z m 1.2,-10.3 c -0.4,0.3 -0.7,1.8 -0.7,3.2 v 2.6 l -1.9,-2.4 c -1.4,-1.9 -2.4,-2.2 -4.5,-1.7 -2.1,0.5 -2.6,1.2 -2.6,3.5 0,2.3 0.6,3.2 2.8,3.9 2.5,1 2.5,1 0.4,1.1 -3,0.1 -5.1,4.4 -3.2,6.6 1.7,2 5.6,1.9 7,-0.3 1.1,-1.6 1.1,-1.6 0.6,0.2 -0.8,2.4 1.1,4.6 4,4.6 2.9,0 5.1,-3.5 3.4,-5.5 -0.9,-1.1 -0.7,-1.2 1,-0.8 1.2,0.3 2.8,-0.2 4,-1.2 1.6,-1.4 1.7,-2.1 0.7,-4.2 -1,-2.2 -1.6,-2.4 -4.7,-1.9 l -3.5,0.5 2.5,-1.8 c 2.1,-1.7 2.3,-2.2 1.2,-4.5 -1.1,-2.5 -4.9,-3.6 -6.5,-1.9 z m 2.4,9.6 c 0.8,1.3 0.6,1.9 -0.5,2.3 -0.9,0.3 -1.3,1 -1,1.6 0.3,0.5 -0.3,0.4 -1.4,-0.3 -1.1,-0.7 -2.2,-2.2 -2.4,-3.4 -0.4,-1.7 0,-2.1 1.9,-2 1.4,0 2.9,0.8 3.4,1.8 z M 187,153.5 c 0,0.8 0.7,1.5 1.5,1.5 0.8,0 1.5,-0.7 1.5,-1.5 0,-0.8 -0.7,-1.5 -1.5,-1.5 -0.8,0 -1.5,0.7 -1.5,1.5 z m 3.6,-13.6 c -0.4,0.5 -0.9,3 -1.2,5.5 -0.7,4.7 0,5.6 2.6,3.3 1.2,-1 1.2,-0.9 0,0.6 -1.2,1.6 -1.2,2 0.1,2.8 0.8,0.5 1,0.9 0.4,0.9 -0.5,0 -0.3,0.5 0.5,1 1.3,0.8 1.2,1 -0.4,1 -1.2,0 -1.6,0.5 -1.2,1.6 0.3,0.8 0.2,1.2 -0.4,0.9 -0.6,-0.3 -1,0.2 -1,1.2 -0.1,1.7 -0.1,1.7 -1.5,0 -1.3,-1.8 -1.4,-1.7 -3,0.7 -0.9,1.4 -1.8,4 -1.9,5.7 -0.1,2.7 0.5,3.6 3.2,5.2 l 3.3,2 3,-2.9 c 2.9,-2.8 3.7,-5.8 1.9,-6.9 -0.5,-0.3 -1,-1.1 -1,-1.7 0,-0.6 1.1,-0.1 2.5,1.2 l 2.4,2.3 3.5,-2.4 c 2.9,-2 3.4,-2.8 2.9,-4.9 -1.1,-4.7 -2.3,-6 -5.4,-6 h -3 l 2.7,-2.3 c 2.5,-2.2 2.6,-2.5 1.5,-6 -1.2,-3.5 -1.5,-3.7 -5.6,-3.7 -2.4,0 -4.6,0.4 -4.9,0.9 z m -14.5,2.7 c -1.2,4.5 -0.8,5.7 3.2,7.7 l 3.2,1.6 h -4 c -5,0.1 -6.5,1.5 -6.5,5.8 0,2.6 0.6,3.6 3,4.8 4.3,2.2 5.7,1.9 8.5,-2.2 3.1,-4.6 3.1,-5.2 0.3,-4.6 -2.1,0.4 -2.1,0.3 -0.5,-0.7 0.9,-0.6 1.5,-1.5 1.2,-2.1 -0.4,-0.5 -0.1,-0.9 0.5,-0.9 0.7,0 0.7,-0.7 -0.1,-2.3 l -1.2,-2.2 2.3,2 2.3,2 -0.6,-5.3 c -0.3,-2.9 -0.9,-5.7 -1.2,-6.2 -0.3,-0.6 -2.6,-1 -5,-1 -4.2,0 -4.5,0.2 -5.4,3.6 z M 200.4,15.7 c 0.1,14.6 -0.1,16.2 -2.3,21 -2.7,6.1 -8.3,11.5 -13.5,13.3 -7.2,2.4 -16.1,-0.7 -21,-7.3 -3.1,-4.2 -2.9,-11.7 0.4,-15.2 2.8,-3 7.8,-5.5 11.1,-5.5 3.2,0 8.9,3 10.6,5.6 2,3.2 1.9,9.1 -0.3,11.5 -2.3,2.6 -3.4,2.4 -3.4,-0.5 0,-5.8 -7.1,-7.5 -10,-2.4 -1.3,2.5 -1.3,3.1 0,5.5 3.4,6.2 11.7,6.5 17.1,0.7 3.3,-3.6 3.4,-11.5 0.1,-16.2 -5.5,-7.6 -19.2,-10.7 -26.3,-5.9 -5.6,3.7 -7.9,8.1 -7.9,14.9 0,3.7 -0.4,5.7 -1,5.3 -0.6,-0.4 -1,0.6 -1,2.2 0,3.8 6.4,10.4 7.4,7.8 1.1,-3 0.6,-5.3 -1.9,-8.3 -4.5,-5.4 -2.6,-14.7 4,-19.8 1.7,-1.3 3.5,-2.4 4,-2.4 0.4,0 -0.5,1 -2,2.2 -5.5,4.3 -7.1,13.8 -3.6,21.3 6.6,14.3 25.5,16.9 36,5 5.4,-6.1 7.4,-11.8 8,-22.5 l 0.6,-9.5 5.7,10 c 6.6,11.8 12.2,24.9 14.3,33.7 1.9,8.3 2,24 0,27.7 -3.4,6.6 -11.6,10.8 -19.2,9.7 -2.8,-0.4 -4.2,-0.2 -3.8,0.4 0.3,0.6 3.5,1 6.9,1 5.1,0 7,-0.5 10,-2.5 4.9,-3.3 4.5,-1.8 -0.9,3.5 -4.1,4 -4.9,4.4 -8.9,4.1 -5,-0.2 -8.9,1.4 -12.4,5.2 l -2.3,2.4 4.7,0.7 c 7.6,1 9.1,0.7 12.1,-2 l 2.8,-2.5 -3,0.5 c -2.9,0.6 -2.9,0.5 0.7,-1.4 2.1,-1.1 5.3,-3.6 7.3,-5.5 4.4,-4.4 4.4,-3.8 0.1,2.9 -4.1,6.4 -10.3,11.6 -18.2,15.3 -5.3,2.5 -7,2.8 -16.9,2.8 -10,0 -11.5,-0.2 -16.7,-2.8 -20.5,-10.1 -27.9,-31.3 -15.6,-45.1 7.2,-8.2 18.6,-9.9 28.4,-4.1 10.8,6.3 13.9,21.3 6.3,30 -4.4,4.9 -9.5,6.3 -15.4,4.1 -5.3,-2.1 -7.5,-4.8 -7.5,-9.3 0,-5.3 4.3,-7.8 9,-5.3 3,1.6 3.3,-0.6 0.4,-2.9 -6,-4.7 -13.4,-0.4 -13.4,7.7 0,7.2 9.1,14 17.3,12.9 8.9,-1.2 16.7,-10.4 16.7,-19.7 0,-9.1 -6.9,-18.5 -16.7,-22.7 -2.1,-0.9 -6.7,-1.7 -10.3,-1.7 -11.8,-0.2 -22.6,7.3 -26.8,18.7 l -1.9,4.9 -2.8,-3.4 C 134,82 129.7,77.1 126,73 c -3.7,-4.1 -9.1,-10.2 -12,-13.5 -3,-3.3 -5.7,-6.2 -6.2,-6.3 -1.9,-0.8 -0.4,1.4 4.8,7.1 19,20.9 30.1,41.5 31.1,57.8 0.6,9.2 -1.3,14.5 -5,13.5 -1.2,-0.3 -4.2,-0.6 -6.7,-0.7 l -4.5,-0.1 5.4,-1.3 c 6.3,-1.6 7,-2.1 7.2,-6 0.6,-8.1 0.2,-9 -5,-10.9 -3.9,-1.4 -5.4,-1.5 -7.1,-0.6 -3.2,1.7 -8.9,15 -6.5,15 0.4,0 2,-0.7 3.8,-1.6 l 3.2,-1.7 -2.5,2.7 c -1.9,2.1 -2.1,2.9 -1.1,3.5 1,0.7 0.9,0.9 -0.3,1.4 -2.3,0.9 -2,2 1.2,4.1 1.6,1.1 1.9,1.5 0.7,1.1 -4.4,-1.6 -5.5,-1.7 -5.5,-0.6 0,0.5 -0.6,0.8 -1.4,0.5 -0.9,-0.3 -1.6,0.6 -2.1,2.8 l -0.9,3.3 -0.3,-3.3 c -0.3,-2.1 -1,-3.2 -2,-3.2 -1.2,0 -1.3,-0.3 -0.4,-1.4 0.8,-1 0.9,-1.6 0.1,-2.1 -0.6,-0.3 -0.8,-1.1 -0.4,-1.6 0.3,-0.5 0.1,-1.6 -0.6,-2.4 -0.9,-1.1 -0.7,-1.2 0.9,-0.8 2.4,0.6 2.4,0.8 1.1,-3.7 -0.8,-3.1 -0.8,-3.3 0.5,-1.6 0.8,1 1.6,2.4 1.8,3 0.9,2.3 2.8,-1.1 3.6,-6.5 1.2,-6.9 -0.2,-9.3 -6.7,-11.3 l -4.7,-1.4 -3.2,3.7 c -1.8,2 -3.2,4.2 -3.3,4.8 0,1.7 -1.5,1.6 -2.9,-0.1 -1,-1.2 -0.9,-2 0.4,-3.9 1.1,-1.8 1.5,-4.4 1.4,-9.1 -0.1,-3.6 -0.4,-6.6 -0.7,-6.6 -0.2,0 -1.7,0.9 -3.3,2.1 -3.6,2.5 -5.1,5.2 -5.9,10.4 -0.4,3.3 -0.9,3.9 -2.5,3.7 -2.7,-0.5 -2.7,-0.3 -1.4,-6.1 0.6,-2.9 0.8,-6.7 0.5,-8.6 -0.8,-4 -4,-8.3 -7.1,-9.5 -1.4,-0.5 -2.5,-2 -2.8,-3.9 -0.8,-3.7 -5.4,-6.5 -9.2,-5.5 -2.3,0.6 -5.9,4 -6.7,6.4 -0.2,0.5 -2.1,0.3 -4.3,-0.5 -2.2,-0.8 -5.5,-1.4 -7.4,-1.5 -1.9,0 -4.2,-0.7 -5.2,-1.6 -2.7,-2.5 -6.8,-1.1 -7.5,2.5 -0.3,1.6 -1.6,3.3 -2.8,3.9 -4.4,2.1 -10.6,8.5 -13.1,13.6 -7.1,14.6 0.3,31.2 14.9,33.2 11.9,1.7 21.8,-10.9 17.3,-21.9 -2.9,-6.8 -11.7,-8.7 -15.3,-3.2 -4.1,6.2 3,13.5 9.8,10 3.9,-1.9 4.4,-1.5 2.4,2.4 -1.9,3.6 -8.1,7.1 -12.7,7.1 -3.7,0 -9.7,-3.2 -12.1,-6.5 -1,-1.3 -2.3,-4.4 -3,-6.9 -3.2,-12 6.3,-24.5 19.7,-25.9 4.8,-0.5 5.1,-0.3 7,2.6 2.3,3.7 4.8,4.4 8.1,2.6 2.1,-1.1 2.7,-1 5,1.2 3.8,3.6 6.2,8 7.5,13.8 l 1.1,5.2 -4.7,5 c -4.8,5.1 -8.4,11.8 -8.5,15.5 0,2.8 -2.6,5 -8,6.9 -14.5,5.2 -33,1 -46,-10.5 l -4.5,-3.9 4.6,1.7 c 2.5,0.9 5.3,2.5 6.3,3.4 2.2,2.3 5,2.2 10.1,-0.1 l 4,-1.8 -3.7,-1.8 c -3.3,-1.6 -4.2,-1.7 -7.8,-0.5 -3.7,1.2 -4.6,1.2 -9.1,-0.7 L 0,125.2 v 2.9 c 0,2.4 1.1,3.7 6.8,7.9 3.7,2.8 9.1,6.2 12.1,7.7 4.8,2.4 5.7,3.4 8.2,8.7 3.3,7.2 4.7,15.3 3.8,21.9 -2.1,14.3 -16,23.5 -26.9,17.8 L 0,190 v 2.5 c 0,4.2 7.6,7 15.1,5.4 6.4,-1.4 12.9,-7.2 15.9,-14.1 1.9,-4.5 2.2,-6.4 1.8,-14.2 -0.3,-5 -0.8,-10 -1.2,-11.1 -0.4,-1.1 0.2,-0.4 1.2,1.5 2.5,4.5 5.9,14.6 6.7,20.5 0.7,4.3 0.6,4.5 -1.8,4.5 -2.7,0 -4.4,2.7 -2.7,4.4 0.6,0.6 0.5,1.5 -0.6,2.7 -2.3,2.5 -1.4,5.4 1.6,5.4 1.4,0 2.8,0.7 3.2,1.7 0.8,2.1 4.3,2.4 5.5,0.5 0.4,-0.6 1.7,-1.7 2.8,-2.3 2.6,-1.5 3.1,-4.5 1,-6 -0.9,-0.7 -1.4,-1.7 -1.1,-2.3 0.4,-0.6 0.2,-2 -0.4,-3.2 -0.9,-1.6 -1.8,-1.9 -3.6,-1.5 -2.1,0.6 -2.4,0.3 -2.4,-2.2 0,-4.3 -3.8,-16.8 -7,-23.3 -1.7,-3.2 -2.8,-5.9 -2.6,-5.9 1.2,0 13.3,19.5 17.6,28.4 12.4,25.8 15.8,46.7 10.1,61.8 -2.6,6.7 -9.3,14.6 -15.6,18.3 l -4.5,2.6 -2.7,-2 c -1.4,-1.2 -3.7,-2.1 -5,-2.1 -2.8,0 -8.3,2.6 -8.3,4 0,2 -4.7,0.9 -10,-2.3 -3.7,-2.1 -6.4,-4.8 -8.5,-8.1 -2.7,-4.4 -3,-5.8 -3,-13 0,-6 0.5,-9.1 1.9,-12 3.7,-7.3 13.4,-11.9 21.6,-10.1 4.7,1 10.8,6.9 12.1,11.7 0.6,2.2 0.7,5.9 0.3,8.1 -0.6,3.8 -0.7,3.9 -2,2.1 -2.6,-3.7 -3.5,-4.4 -5.9,-4.4 -3.5,0 -5.9,3.9 -4.5,7.4 2.6,6.9 11.6,4.9 15.8,-3.6 3.8,-7.6 1.5,-15.4 -6.4,-21.4 -3,-2.3 -4.9,-2.9 -10.5,-3.2 -8.5,-0.5 -14,1.9 -19.9,8.5 l -4,4.6 v 9.9 c 0,8.4 0.3,10.5 2.4,14.6 2.6,5.1 5.2,7.9 10.6,11.1 4.4,2.6 3.2,2.7 -1.9,0.2 -2,-1.1 -5.4,-3.8 -7.4,-6 -2.9,-3.2 -3.7,-3.7 -3.7,-2.2 0,1.8 7.3,9.1 9.1,9.1 0.4,0 0.5,0.9 0.2,1.9 -0.3,1.1 -1,1.8 -1.6,1.5 -1.9,-0.6 -3.8,1.1 -3.1,2.9 0.3,0.9 1,1.7 1.4,1.7 0.4,0 0.5,1.1 0.2,2.5 -0.4,2.3 -0.1,2.5 2.5,2.3 1.6,-0.1 3.4,0.1 4,0.5 1.2,0.8 4,-2 3,-3 -0.4,-0.3 0.1,-1.1 1,-1.8 2.3,-1.7 0.9,-4.9 -1.9,-4.2 -1.4,0.4 -1.8,0.3 -1,-0.5 0.5,-0.5 2.3,-0.7 4,-0.3 2.5,0.5 3,1.2 3.5,4.6 0.7,5.6 4.4,10.5 9.6,13.1 3.8,1.8 5,2 9,1.1 2.5,-0.5 5.4,-1.4 6.5,-1.8 1.6,-0.7 1.7,-0.5 1.1,1.6 -1.2,4.1 -5.9,12.2 -7.5,13 -0.8,0.3 -2.8,1.1 -4.3,1.5 -1.6,0.5 -3.8,2.4 -5,4.3 l -2.1,3.4 4.4,-0.7 c 4.6,-0.7 9.4,-4.1 8.6,-6.1 -0.2,-0.7 0.6,-2.5 2,-4.1 2.2,-2.7 2.3,-2.8 2.4,-0.7 0,3.7 -3.9,12.4 -8.6,18.9 -7.7,10.9 -19.2,17.5 -31.1,17.7 L 0,334.5 v 3.2 c 0,2.8 0.4,3.3 3.3,3.8 3.2,0.6 9.9,-0.5 15.2,-2.5 3.9,-1.5 4.2,-0.6 1.1,3 -2,2.5 -2.6,4.2 -2.5,7.8 0.1,2.6 0.4,5.8 0.8,7.1 0.6,2.4 0.7,2.4 3.9,-1.3 2.7,-3 3.2,-4.5 3.2,-8.5 0,-5.5 -0.8,-6.8 -2.6,-4.3 -2.2,2.8 -1.6,0 0.9,-3.9 2.2,-3.6 8.7,-9.9 10.2,-9.9 0.5,0 0.5,6 0.2,13.2 -0.9,19.4 -6.1,36.7 -13.8,46.1 -3.7,4.5 -10.3,7.7 -15.8,7.7 -4,0 -4.2,0.1 -3.9,2.7 0.3,2.7 0.6,2.8 5.3,2.7 6.3,-0.2 12,-3 16.8,-8.3 4.1,-4.5 8.1,-11.9 9.2,-16.9 1.4,-6.8 3.1,-3.1 6.2,13.3 2,11.2 2.1,32.9 0.1,40 l -1.4,5 -10.6,-0.3 c -6.2,-0.2 -10.8,0 -11.2,0.6 -0.3,0.5 -2.1,1.3 -4.1,1.6 -1.9,0.4 -3.7,1.1 -4,1.6 -0.4,0.6 4.7,1 13.4,1 11.4,0 14.1,0.3 14.1,1.4 0,1.7 -6.3,7.4 -9.7,8.7 -3.9,1.5 -10.6,1 -14.6,-1 -2,-1 -3.7,-1.5 -3.7,-1.1 0,1 6,3.9 9.8,4.6 1.6,0.3 4.6,0.1 6.6,-0.4 5.3,-1.5 3.1,0.9 -3.4,3.7 -4.6,2 -5.2,2 -7.4,0.6 -1.5,-1 -4,-1.5 -6.8,-1.3 -4,0.3 -4.3,0.5 -4.6,3.4 -0.2,2.4 0.2,3.3 2.3,4.2 3.5,1.6 7.7,1.5 10.1,-0.3 1.8,-1.3 1.6,-1.4 -2.1,-1.6 -3.8,-0.1 -3.8,-0.2 1.4,-1 3,-0.5 7.5,-2 10,-3.4 L 26.5,453 22,457.1 C 16.9,461.9 6.8,467 2.8,467 0.2,467 0,467.3 0,471 c 0,3.9 0.1,4 2.8,3.4 10.4,-2.4 23.2,-12.3 29,-22.5 5.9,-10.4 8.4,-20 9,-34.4 0.4,-9.7 0.7,-12.3 1.4,-10.5 1.5,3.9 1.4,25.6 -0.1,35 -1.5,9.2 -2,9.9 -11.1,16.4 -6.2,4.4 -9,9.9 -9.9,19.4 -0.5,4.2 -0.6,7.9 -0.4,8.1 0.1,0.3 1.3,-0.5 2.6,-1.6 1.2,-1.1 5.4,-4.1 9.4,-6.6 8.6,-5.5 11.6,-10.1 11.1,-17.5 l -0.3,-4.7 -2.7,4.5 c -1.4,2.5 -4.1,5.8 -5.9,7.5 l -3.3,3 2.7,-3.4 c 4.3,-5.2 5.5,-8.2 8.3,-19.8 2.3,-9.7 2.6,-12.3 2.2,-26.1 -0.3,-13.6 -0.2,-15 1,-12 1.9,4.5 11.9,21.7 14.6,24.8 1.1,1.4 0.4,0.9 -1.7,-0.9 C 56,430.5 55,430 55,431.3 c 0,2.8 2.2,6.6 4.8,8.3 2.8,1.8 13.3,5.6 13.9,5 0.3,-0.2 -0.1,-2.3 -0.8,-4.7 -1.6,-5.2 -6.6,-10.5 -10.9,-11.4 -2.1,-0.5 -4.1,-2.1 -6.1,-4.8 -3.9,-5.3 -12.4,-22.6 -11.5,-23.4 0.3,-0.4 0.7,-0.4 0.9,-0.2 9,13.9 16.8,21.6 26.4,26.2 6.1,2.9 7.7,3.2 15.8,3.2 7.6,0 9.9,-0.5 14.6,-2.7 17.6,-8.1 25.8,-27.8 16.7,-40.2 -1.7,-2.3 -1.8,-3 -0.7,-3.7 0.8,-0.5 1.7,-0.9 2.1,-0.9 0.3,0 2.7,-1.6 5.3,-3.5 2.5,-1.9 6.7,-4.4 9.4,-5.4 9.5,-3.6 16.5,-11 20.1,-21.4 1,-2.8 2.3,-5.3 2.8,-5.5 1.5,-0.5 10,13.8 13.4,22.5 1.6,4.2 3.8,11 4.9,15.1 1.7,6.7 1.7,7.7 0.4,9.2 -1.9,2.1 -1.9,7.4 -0.1,8.9 3.1,2.6 -2.8,12.7 -9.4,16.1 -9.9,5.1 -22.5,0.4 -25.1,-9.3 -0.8,-3.2 -0.7,-4.5 1,-8 2.6,-5.3 6.5,-7.7 12.6,-7.7 4,0 5.2,0.5 8.1,3.4 3.8,3.8 4.7,9.3 1.9,11.6 -1.7,1.4 -1.7,1.5 -3.3,-2.3 -1.6,-3.7 -6.4,-3.8 -8.8,-0.2 -1.4,2.1 -1.4,3 -0.4,5.4 2.4,6 10.4,6.4 15.6,1 2.4,-2.5 2.9,-3.9 2.9,-7.9 0,-6 -2.4,-9.6 -8.5,-12.8 -8.7,-4.4 -20.1,-2.1 -25.1,4.9 -2.9,4.2 -3.7,12.1 -1.5,16.9 1.4,3.2 1.5,3.3 0.8,0.5 -1.9,-8.1 0.9,-18.2 5.5,-20 1.3,-0.4 1.1,0.1 -0.6,1.9 -3.4,3.7 -4,11.8 -1.3,17.2 4,7.8 11.1,12.4 19.3,12.4 9.6,0 18.1,-6.2 21.2,-15.4 1.2,-3.5 1.9,-4.1 6.8,-5.7 6.1,-2 11.9,-7.5 11.8,-11.1 0,-2.3 0,-2.3 -0.9,-0.2 -1.9,4.7 -8.6,7 -11.2,3.8 -0.7,-0.9 -2.3,-2.6 -3.4,-3.7 -1.2,-1.2 -2.5,-3.7 -2.9,-5.5 -1.7,-7.8 -11.7,-28.9 -19.1,-40.5 -4,-6.2 -4.4,-7.3 -4.4,-13.3 0,-7.7 -2.1,-18.3 -5.5,-28.4 -1.4,-4.1 -2.5,-7.5 -2.5,-7.6 0,-0.1 3.2,1.4 7.1,3.4 6.7,3.5 7.7,3.7 16.3,3.7 8.1,0 9.8,-0.3 15.6,-3.1 11.2,-5.3 21.3,-15.9 28.5,-30 2,-3.8 3.3,-5.8 2.9,-4.4 -1.3,5 -8.7,20.7 -13.2,28 -4.2,6.6 -5.3,7.6 -9.5,9.1 -2.6,1 -5.5,2.3 -6.4,3.1 -1.7,1.3 -6.3,10.4 -6.3,12.4 0,1.3 11.5,-2.3 15.2,-4.8 1.5,-1 2.9,-2.7 3.3,-3.8 0.4,-1.1 1.1,-1.8 1.6,-1.5 1.2,0.8 1.1,-0.6 -0.1,-2.5 -0.9,-1.3 -1.2,-1.3 -2,0.1 -0.5,0.9 -2.2,2.4 -3.7,3.4 l -2.8,1.8 2.6,-2.9 c 3.7,-4.1 8.3,-11.2 13.6,-20.7 2.4,-4.5 4.2,-7.4 3.9,-6.4 -1.5,4.7 -2.7,21 -2.1,28.2 1.2,14.6 4.4,25.6 10.1,34.5 0.9,1.4 0,0.7 -2,-1.5 -1.9,-2.2 -4.3,-5.7 -5.3,-7.8 -1.6,-3.6 -1.7,-3.7 -2.5,-1.7 -1.1,3.1 0.1,9.6 2.6,13.2 1.1,1.8 5,5.1 8.6,7.5 11.3,7.6 13.5,11.1 3.2,5.2 -6.6,-3.7 -12,-9.2 -15.5,-15.7 -3.3,-6.1 -4.6,-11.7 -5.7,-24.2 l -0.7,-9.5 0.1,9.3 c 0.1,5.6 -0.3,9.2 -0.9,9.1 -0.5,-0.1 -2,-0.4 -3.1,-0.7 l -2.1,-0.7 1.9,-7.9 c 1,-4.3 1.6,-8.1 1.4,-8.3 -0.2,-0.2 -1.4,4 -2.7,9.4 -2.5,10.6 -5.5,17.4 -4.3,9.6 0.6,-3.9 0.4,-4.2 -2.4,-5.7 -4.2,-2.2 -5.5,-2 -8.1,0.8 -2.8,2.9 -2.3,5.1 2.1,9.8 2.9,3.1 3.1,3.2 3.9,1.3 0.4,-1.1 0.8,-1.4 0.8,-0.6 0.1,0.8 0.4,1.2 0.7,0.8 0.4,-0.3 1.3,0 2,0.8 1.6,1.6 1.9,7 0.4,6 -0.5,-0.3 -1,0 -1,0.7 0,1 -0.3,0.9 -1,-0.2 -1,-1.6 -1.1,-1.5 -2.9,1.5 -1.2,1.9 -1.2,1.9 -0.6,-0.1 0.3,-1.4 -0.1,-2.8 -1.1,-3.9 -1.3,-1.3 -1.4,-1.9 -0.5,-2.5 0.9,-0.5 0.5,-1.3 -1.6,-2.8 -4.9,-3.5 -7.4,-3.3 -10.3,0.8 l -2.2,3.1 2.7,3.4 2.6,3.5 3.7,-1.5 3.6,-1.6 -2.2,2.4 c -2.7,2.8 -2.8,5.4 -0.3,8.6 1.6,2.1 2.2,2.3 5.7,1.4 3.4,-0.8 4,-1.3 4.5,-4.3 l 0.5,-3.5 0.7,3.5 c 0.3,1.9 0.8,8 1.1,13.5 1.2,22.7 9.6,43.5 23.7,58.9 10.6,11.6 25,20.5 38.9,24.1 8.8,2.3 24.7,2.3 32.5,0.1 26.2,-7.6 43.5,-32.5 39.6,-56.8 -2.5,-15.6 -12.3,-29.3 -25.8,-35.9 -6.3,-3.2 -7.4,-3.4 -17,-3.4 h -10.2 l 4.9,-1.7 c 8.6,-2.9 18.8,-11.5 23.8,-19.8 5.9,-10.1 6.8,-25.1 1.9,-34.6 -5,-9.9 -14.4,-15.4 -26.1,-15.4 -10.3,0.1 -19.4,5.8 -24.3,15.3 -3.4,6.9 -3.1,16.5 0.9,22.4 5,7.6 16.8,10.8 23.9,6.7 4.5,-2.6 7.9,-7.9 7.9,-12.1 0,-4 -2.3,-8.8 -4.5,-9.7 -4.9,-1.8 -11.5,0.7 -11.5,4.5 0,2.3 1.3,2.5 3,0.4 2,-2.4 6.7,-1.9 8.6,1 3.5,5.3 -1.4,13.8 -9,15.5 -5,1.1 -9.6,-0.3 -13.3,-4.2 -4.1,-4.3 -5.3,-7.6 -5.3,-14.8 0,-4.9 0.5,-6.5 3.3,-10.6 8.5,-12.7 26.1,-13.9 35.9,-2.5 13.7,16 0.9,44.3 -23.2,51.5 -2.9,0.9 -5.5,1.6 -5.6,1.6 -0.1,0 -0.4,-2.9 -0.6,-6.5 -0.3,-5.2 -1,-7.2 -3.5,-10.7 -6.9,-9.6 -20.4,-11.8 -28,-4.6 -1.5,1.4 -2.9,1.9 -4.7,1.4 -14.6,-3.7 -18.3,-38.8 -7.8,-74.1 l 0.9,-3 1.2,4.5 c 3.1,11.7 7.8,19.3 14.9,24 10.7,7.1 24.6,4.1 31.4,-6.7 1.8,-3.1 2.3,-5.2 2.3,-11 0,-8 -1.5,-11 -7.5,-15.1 -1.8,-1.2 -2.6,-2.2 -1.8,-2.2 4.9,0 13.4,9.7 12.2,14 -1.1,4 -0.9,10.9 0.3,12.1 1.8,1.8 5.7,-6.5 4.7,-10 -0.6,-2.2 -0.8,-2.3 -1.2,-0.7 -0.3,1.3 -1,0.3 -2.3,-3.4 -5.2,-14.9 -19.5,-18.4 -30.7,-7.7 -4.4,4.2 -6.2,7.8 -6.2,12.2 0,7.5 4.7,12.5 11.8,12.5 3.5,0 4.9,-0.6 7.3,-2.9 3.3,-3.3 3.6,-5.6 1.3,-8.9 -1.8,-2.6 -6.5,-3 -8.4,-0.7 -0.7,0.8 -1,2.8 -0.8,4.5 0.6,3.9 -2.2,4.1 -5.1,0.4 -6.7,-8.5 3.8,-20.5 15.1,-17.4 5.6,1.6 8.8,6 8.8,12.3 0,10.4 -8.1,17.2 -19.5,16.5 -7.1,-0.4 -11.6,-3.1 -16.6,-10.1 -7.2,-10 -13.3,-42.9 -10,-54.6 l 0.6,-2.3 4.5,3.7 c 2.5,2 5,4.2 5.5,4.8 0.6,0.7 1.7,1.3 2.5,1.4 0.8,0.1 4,0.9 7,1.8 3.9,1.2 7.1,1.4 11,0.9 3,-0.4 9.6,-0.6 14.7,-0.5 6.2,0.2 11.2,-0.3 15.5,-1.5 3.4,-0.9 8,-1.6 10.1,-1.5 5.1,0.2 8.5,-2 13,-8.6 l 3.8,-5.6 -5.2,0.7 c -6.8,0.9 -10.5,2.9 -12.6,6.9 -0.9,1.7 -1.6,3.5 -1.5,3.9 0.4,1.4 -8.8,4 -15.8,4.4 -8.1,0.5 -8.1,0.5 3.4,-4.2 12.6,-5 23.3,-17.7 20.8,-24.4 -1.7,-4.3 -4.7,-6.3 -8.7,-5.7 -3.1,0.5 -3.5,0.3 -3.5,-1.6 0,-1.2 -1.1,-4.5 -2.4,-7.2 -9.6,-20.3 -41.7,-22.2 -52.6,-3.1 -7.7,13.3 -0.2,29.6 13.4,29.6 9.3,0 16.6,-6.2 16.6,-14.1 0,-7.6 -7.9,-12.1 -13,-7.4 -4.5,4.1 -0.8,12.5 5.5,12.5 2.8,0 2.8,0.1 1.2,1.7 -1.3,1.3 -3.4,1.8 -7.7,1.8 -5.5,0 -6.2,-0.3 -9.7,-3.7 -3.2,-3.3 -3.7,-4.4 -4.1,-9.6 -0.3,-4.6 0,-6.8 1.7,-10 3.9,-7.6 12.3,-11.9 21.6,-10.9 21.4,2.2 29.2,29.1 12.7,43.9 -6.1,5.5 -10.4,7.1 -19.7,7.2 -7.1,0.1 -8.8,-0.3 -14.6,-3.1 -7.2,-3.6 -15.8,-11.8 -20.2,-19.3 -2.4,-4.2 -7.1,-18.9 -6.3,-19.7 0.2,-0.2 1.8,2.1 3.6,5.2 3.5,6 5.7,7.9 10.8,9 4.1,0.8 4.1,-0.4 0.1,-5 -2.2,-2.5 -3.9,-3.5 -6,-3.5 -2.2,0 -3.4,-0.8 -4.9,-3.3 -2.3,-3.6 -4.4,-9.6 -3.8,-10.3 0.3,-0.2 2.2,0.3 4.4,1.2 10.7,4.5 22.4,-3.3 22.4,-14.8 0,-4.4 -0.4,-5.4 -3.5,-8.5 -3,-3 -4,-3.5 -6.8,-2.9 -3.8,0.7 -7.7,4.8 -7.7,8.1 0,4.9 6.5,8.2 10.2,5.2 2,-1.5 2.4,-3.4 1.5,-6.9 -0.8,-2.9 -4.5,-4.7 -6.8,-3.2 -0.8,0.4 -0.9,0.3 -0.5,-0.4 1.2,-2 6.3,-1.3 9.3,1.2 7.4,6.4 -0.1,21.1 -10.7,21.1 -5,0 -8.8,-2.8 -11.8,-8.6 -2,-3.7 -2.3,-5.4 -1.9,-11.4 0.7,-9.5 3.9,-21.5 9.9,-37 4.2,-10.9 5.1,-14.4 5.5,-21.5 0.6,-9.9 -0.7,-19.9 -4.1,-30.5 -3,-9.4 -1.8,-8.9 2.4,1.1 4,9.6 6.7,20.4 7.6,29.8 l 0.7,7.5 -4.6,5.1 c -5.7,6.3 -7.1,10.4 -6.3,18.3 0.8,8.8 1.7,13.7 2.5,13.7 0.4,0 2.1,-1.9 3.9,-4.3 1.7,-2.3 4.7,-6.2 6.7,-8.6 5.5,-6.8 6.8,-15.6 3.1,-20.7 -1.1,-1.5 -1.4,-1.2 -1.9,2.3 -0.7,4.2 -3.5,11.8 -4.2,11.1 -0.2,-0.2 0.3,-2.4 1.1,-4.8 2,-5.7 1.2,-22.6 -1.7,-33.8 -2.1,-8.5 -6.8,-21 -8.1,-21.8 -0.4,-0.3 -0.8,-1 -0.8,-1.6 0,-0.5 4.8,3.6 10.7,9.2 5.9,5.7 12.1,10.9 13.8,11.6 1.6,0.7 2.3,1.3 1.5,1.4 -0.8,0 -3,-0.9 -4.7,-2 -2.5,-1.5 -3.3,-1.6 -3.3,-0.6 0,1.9 4.9,6.6 7.4,7.1 3.1,0.6 15.6,1.2 15.6,0.7 0,-0.3 -1.6,-2.5 -3.6,-4.9 -4.4,-5.4 -8,-7.3 -13.9,-7.3 -4.5,0 -4.8,-0.2 -15.3,-10.8 -5.9,-5.9 -12.3,-13 -14.2,-15.7 -3.3,-4.7 -3,-4.6 4,2.5 13,13.1 25.5,19.2 39.7,19.3 7.4,0.1 8.7,-0.2 15.6,-3.6 8.5,-4.2 13.6,-9.3 17.4,-17.4 5.3,-11.3 4,-21.5 -3.6,-29.4 l -4.6,-4.7 7.5,-1.4 7.5,-1.3 -19,-0.3 c -10.4,-0.2 -20.4,0 -22.1,0.3 -4.2,0.7 -11.3,7 -13.5,11.9 -5.1,11.4 1.9,25.1 13.4,26.3 8,0.8 13.9,-5.6 10.3,-11.2 -1.8,-2.7 -6.3,-3.4 -8.4,-1.3 -1.5,1.5 -1.5,6.1 0,7.6 1.9,1.9 0.5,2.2 -3,0.5 -5.4,-2.6 -8.5,-7.6 -9,-14.1 -0.4,-7.3 1.9,-11.7 8.3,-15.7 9.2,-5.7 20,-3.4 28.2,5.9 4.8,5.5 6.8,11.7 6,19 -0.7,7 -3.4,12.2 -9.1,17.4 -7.3,6.7 -12.4,8.6 -23.6,8.6 -8.7,0.1 -10.1,-0.2 -16.4,-3.2 C 233.3,46.4 217.6,27.8 208.2,7.9 205.4,1.9 204,0 202.4,0 c -2,0 -2,0.5 -2,15.7 z m 91.3,-7.4 c 5.3,4.8 7.7,15.4 5.4,23.7 -0.4,1.5 -0.7,-0.2 -0.7,-4.5 0.1,-5.7 -0.4,-8 -2.7,-12.7 -1.6,-3.2 -4.5,-7.2 -6.5,-8.9 -3.2,-2.8 -3.3,-3 -0.7,-1.4 1.7,1 4,2.7 5.2,3.8 z m -91.2,30.6 c -1.9,5.9 -8,12.5 -13.2,14.2 -4.1,1.3 -13.8,0.8 -15.5,-0.9 -0.9,-0.9 -0.3,-0.9 2.3,-0.2 11.3,3.3 21.4,-2.3 25.6,-14 2.3,-6.4 3,-5.6 0.8,0.9 z m -14,3.1 c -1.1,1.1 -3.6,2.2 -5.5,2.5 l -3.5,0.5 3.5,-1.1 c 1.9,-0.6 4.2,-1.7 5,-2.5 0.8,-0.8 1.7,-1.4 1.9,-1.4 0.3,0 -0.3,0.9 -1.4,2 z M 138,90.5 c 0,1.1 -1.4,-0.7 -3.1,-4 -0.7,-1.3 -0.3,-1.2 1,0.5 1.1,1.4 2.1,2.9 2.1,3.5 z m 28.5,-2.3 c -1.1,0.6 -2.5,1.9 -3.2,2.7 -0.7,0.9 -1.3,1.2 -1.3,0.7 0,-1.6 3.2,-4.6 4.9,-4.6 1.2,0.1 1.2,0.3 -0.4,1.2 z m -83,2 c 3,2.7 4.1,7.6 3.1,14.2 -0.8,5.3 -2.7,7.6 -6.2,7.6 -2,0 -2.4,-0.5 -2.4,-3.3 -0.1,-1.7 -0.7,-4.9 -1.4,-7 -1.3,-3.6 -1.3,-3.7 1,-3.7 3.4,0 5,-3.4 2.6,-5.8 C 78.4,90.4 78.3,88 80,88 c 0.5,0 2.1,1 3.5,2.2 z m -2.1,29 c -3.7,7.2 -7.9,11.6 -5.5,5.7 0.5,-1.3 1.2,-3.7 1.6,-5.2 0.3,-1.6 1.5,-3.1 2.8,-3.6 3,-1.2 3.1,-0.8 1.1,3.1 z m 9.6,-3 c 0,1.5 -12.9,14.2 -13.6,13.5 -0.3,-0.3 0.8,-2.3 2.4,-4.6 1.6,-2.2 3.5,-5.4 4.2,-7.1 1,-2.4 1.9,-3 4.1,-3 1.6,0 2.9,0.5 2.9,1.2 z m 10.8,3 c 1.8,1.1 3.7,2.8 4.2,3.8 0.9,1.7 0.7,1.7 -2.5,0.7 -4,-1.2 -5.9,0.1 -9.6,6 -1.6,2.6 -2.7,3.3 -5.3,3.3 -7.3,0 -10.5,6.7 -6.7,14 l 2.1,4.1 -4,3.8 -4,3.7 -2.9,-3 c -3.1,-3.2 -7,-10.9 -7.1,-13.7 0,-1.7 7.2,-8.9 8.9,-8.9 1.9,0 11.3,-8.3 14.7,-13 3.3,-4.6 3.7,-4.8 6.2,-3.9 1.5,0.6 4.2,1.9 6,3.1 z m 52.7,6.4 c 0.5,2.9 0,4.5 -3.2,9.5 -4.9,8 -5.1,14.1 -0.9,24.7 2.8,7 4.6,9.1 4.6,5.4 0,-1 1.4,-4 3.1,-6.8 7.3,-11.4 8.4,-16.7 4.7,-24.4 l -2.1,-4.5 -1.3,7.8 c -0.7,4.3 -1.4,8.1 -1.7,8.3 -0.2,0.2 -0.4,-2.6 -0.3,-6.3 0.1,-3.8 -0.3,-8.8 -0.8,-11.2 l -0.8,-4.3 4.3,2.5 c 9.3,5.5 24.3,7.2 35,4.1 7.1,-2.1 13.4,-5.7 18.8,-10.8 2.4,-2.2 4.1,-3.4 3.8,-2.6 -8.1,21.7 -9.2,32.7 -5.4,51.2 0.1,0.7 -1.4,1.5 -3.5,1.8 -9.9,1.8 -14.7,11.1 -8.8,17 2.8,2.8 7.6,2.6 9.6,-0.5 1.9,-2.8 1.6,-5.4 -0.8,-6.9 -1.4,-0.8 -2.1,-0.7 -3.4,0.6 -1.6,1.6 -1.6,1.9 -0.1,4.2 2,3 0.8,4.1 -2.7,2.4 -5.7,-2.5 -4,-10.8 2.8,-13.9 6.2,-2.8 7.4,-2.5 8.6,2.3 2,7.9 4.3,14.3 6.6,19 3,5.9 3,9 0,17.2 -4.4,12.3 -12.6,19.2 -23.8,20.2 -10.5,1 -18.2,-5.8 -18.3,-16.2 0,-5.9 2,-9.4 7.6,-13.2 5.9,-4.1 14.4,-1.2 17,5.7 1.4,3.6 -0.7,9 -3.8,9.7 -3,0.8 -5.9,-1.6 -4.9,-4.1 0.7,-2 4.1,-1.6 4.1,0.5 0,0.8 0.5,1.6 1,1.8 1.5,0.5 1.8,-2.7 0.5,-4.3 -3.3,-4 -10.5,0.9 -8,5.4 2.5,4.7 7.6,5.3 12,1.3 5.8,-5.2 4.6,-14.7 -2.3,-19.1 -3.1,-2 -3.1,-2.1 -0.8,-2.1 1.5,0 3.7,1.3 5.7,3.5 2.5,2.8 3.9,3.5 6.9,3.5 h 3.6 l -2.2,-3.3 c -1.3,-1.7 -3,-3.7 -3.9,-4.4 -1.8,-1.5 -5.4,-1.7 -4.5,-0.3 0.5,0.7 -0.3,0.8 -2.2,0.3 -8.5,-2.3 -19.1,0.5 -24.6,6.6 -9.1,10.1 -6.6,24.5 5.3,30.9 3.8,2 5.5,2.3 10.7,1.9 10.7,-0.8 18.7,-7.1 24.4,-19.1 1.6,-3.4 2.9,-5.4 2.9,-4.6 0,3.1 -4.1,16.3 -6.6,21.2 -1.4,2.7 -2.3,5.2 -2,5.5 1.2,1.2 6.8,-12.1 9.7,-23.2 l 1.8,-7 -0.5,9.5 c -1,18.2 -5,36.6 -11.5,52.4 -8.2,19.7 -21.1,30.4 -37.9,31.4 -10.4,0.6 -17.6,-2.2 -24.7,-9.4 -10.2,-10.3 -10.7,-24 -1.3,-34.8 8.5,-9.6 23,-10.3 30.5,-1.4 3.7,4.4 5.1,9.9 3.6,14.8 -1.1,3.7 -6.4,11 -8,11 -0.4,0 -0.5,-1.6 -0.3,-3.5 0.5,-4.1 -1.1,-6.5 -4.4,-6.5 -5.2,0 -7.2,6.5 -3.2,10.7 4.3,4.6 14,2 18.6,-5 2.1,-3.2 2.7,-5.2 2.6,-9.6 -0.1,-20.8 -27.2,-28.3 -43.5,-12 -7.8,7.8 -9.6,16.3 -6,29 1.1,4.1 2.1,8.8 2.1,10.2 0,4.5 -2.6,9.5 -5.9,11.1 -8.5,4.4 -20.1,-1.2 -20.1,-9.8 0,-4.2 3,-8.6 5.9,-8.6 1.1,0 0.9,0.4 -0.7,1.6 -1.4,1 -2.2,2.6 -2.2,4.4 0,5.7 6,8 10,3.8 2.4,-2.6 2.5,-4.6 0.4,-7.6 -5,-7.2 -15.4,-2.8 -15.4,6.6 0,1.6 1,4.4 2.3,6.2 6.4,9.4 21.8,9.4 27.4,-0.1 1,-1.6 2,-2.9 2.4,-2.9 1.9,0 2.6,18.5 0.8,21 -0.8,1.2 -0.9,0.9 -0.4,-1 0.6,-2.4 0.5,-2.4 -0.9,-0.6 -1.9,2.4 -2,3.7 -0.4,8.7 1.4,4.7 2.2,4.9 4.4,0.7 1.4,-2.6 1.5,-4 0.6,-8.2 -1.1,-5.3 -1.2,-14.1 -0.1,-12.8 0.9,1.1 2.9,8.8 3.9,15 1.9,11.6 -2.6,27.3 -10.3,35.9 -2,2.2 -6,5.2 -8.9,6.9 -4.7,2.6 -6.3,2.9 -13.8,2.9 -9.6,0 -14.1,-1.8 -19.6,-7.7 -5.2,-5.4 -6.8,-9.5 -6.8,-17.3 -0.1,-7.6 1.5,-11.7 6.3,-16.8 11,-12 30.8,-8.4 35.2,6.3 2.5,8.1 -2.9,16.6 -11.2,17.7 l -4.4,0.6 2.8,-3.2 c 3.3,-3.9 3.5,-7.7 0.5,-10.8 -6.3,-6.7 -15.3,2.7 -10.7,11.3 2.7,5.2 12,7.8 18.6,5.3 3.6,-1.3 8.2,-5.7 9.5,-8.9 1.3,-3.3 1.2,-10.8 -0.2,-14.5 -1.6,-4.2 -6.8,-9.4 -11.5,-11.6 -5,-2.3 -15.4,-2.5 -21.8,-0.3 -5.4,1.8 -13,8.2 -16.7,14.1 l -2.7,4.1 -1.2,-3.3 c -1.6,-4.4 -8.9,-10.8 -14.1,-12.4 -2.3,-0.7 -6.6,-1.1 -9.6,-1 -2.9,0.2 -5.7,0 -6.1,-0.4 -1.5,-1.6 -4.3,-0.5 -7.7,3 -4.2,4.4 -4.4,5.3 -1.1,5.3 3.5,0 7.2,-1.9 9,-4.7 1.1,-1.6 2.5,-2.3 4.8,-2.3 h 3.2 l -3.7,2.2 c -5,2.9 -7.3,7.3 -6.5,12.9 0.7,5.2 4.3,8.9 8.8,8.9 3.1,0 6.9,-3 6.9,-5.6 0,-4.5 -4.9,-7.1 -7.8,-4.2 -1.5,1.5 -1.6,5.8 -0.2,5.8 0.6,0 1,-1.1 1,-2.5 0,-2.8 2.1,-3.3 4,-1 1,1.2 1,1.8 0,3 -1.8,2.2 -5.7,1.8 -7.4,-0.7 -2.6,-3.7 -2,-7.6 1.8,-11.4 2.8,-2.8 4.2,-3.4 7.6,-3.4 7.8,0 13.1,5.1 13.8,13.5 0.9,10.4 -6,17.5 -16.8,17.5 -12.9,0 -22.8,-10 -26.6,-27 -1.6,-6.8 -1.6,-6.9 0.9,-11.2 1.4,-2.4 3.9,-8.4 5.6,-13.3 l 3.1,-9 3.6,0.1 c 6.2,0.2 12.4,6.7 10.9,11.4 -0.8,2.7 -5,5.4 -7.1,4.6 -1.4,-0.5 -1.4,-0.7 0.1,-2.2 2.1,-2.2 1.6,-5.9 -0.9,-5.9 -2.8,0 -4.2,2.8 -3,6.2 1.3,3.8 7.2,4.5 10.3,1.2 5.1,-5.5 -0.1,-15.4 -8.7,-16.6 -2.3,-0.3 -4.2,-1.1 -4.2,-1.7 0.1,-2.4 4.6,-23.2 5.3,-24.3 0.4,-0.7 -0.3,-2.9 -1.8,-5.2 L 52,259 l 3.4,-4.5 c 7.1,-9.3 10.6,-25.2 8.7,-39.7 -0.6,-4.6 -1.4,-9.4 -1.6,-10.8 l -0.6,-2.5 1.1,2.5 c 2.1,4.7 4.9,18.5 5.9,28.5 l 0.9,10 -2.9,4.4 c -2,3 -2.9,5.7 -2.9,8.4 0,4.1 1.9,11.7 2.9,11.7 0.3,0 2.5,-3.1 4.9,-6.7 4.4,-6.9 5,-10.1 3,-15 l -1.1,-2.8 -0.8,4.4 c -0.5,2.4 -1,4.5 -1.1,4.7 -0.2,0.1 -0.4,-3.9 -0.6,-8.9 -0.2,-8.2 -1.5,-19.1 -2.8,-24.2 -0.3,-1.1 1,0.7 2.8,4 5.9,10.6 9.9,15.8 19.6,25.3 6.7,6.7 11.2,10.2 15.6,12.3 3.3,1.6 5.2,2.9 4.1,2.9 -1.1,0 -4.4,-1.1 -7.2,-2.5 -2.9,-1.3 -5.3,-2 -5.3,-1.5 0,1.8 6.5,8.3 9.7,9.7 4.3,1.7 26.9,1.7 25.5,0 C 123.7,256 118.7,253 106.7,253 c -7.7,0 -8.2,-0.1 -12.3,-3.5 -6,-4.9 -16.6,-18.5 -20.9,-26.7 -4,-7.5 -4.1,-8.8 -0.3,-3.1 7.7,11.6 20.3,23.1 31.1,28.2 25.5,12.1 54.6,1.1 64.9,-24.7 1.9,-4.7 2.3,-7.5 2.2,-16.7 0,-9.7 -0.3,-11.7 -2.6,-16.7 -8,-17.3 -25.9,-24.9 -41.2,-17.4 -15.6,7.6 -20.8,28.4 -10.3,41.2 11.6,14 34.6,6.8 33.4,-10.3 -0.4,-5.9 -2.4,-8.8 -7.5,-11 -2.8,-1.2 -3.6,-1.1 -6.2,0.2 -3.4,1.8 -5.3,4.7 -4.8,7.7 0.4,2.8 2.8,3.6 2.8,1 0,-5.2 7,-6.9 11,-2.7 4.4,4.7 2.2,14.5 -4.3,18.6 -4.6,2.9 -12.4,2.2 -18,-1.7 -13.1,-9.1 -11.1,-30.2 3.8,-38.2 4.5,-2.5 15,-2.2 20.1,0.6 14.7,7.7 19.6,30.1 10.5,47.9 -7.2,14.1 -25.2,23.4 -41.7,21.5 l -4.9,-0.5 5.4,-1.3 c 2.9,-0.6 7,-1 9,-0.7 4.4,0.6 6.7,-1.1 10.7,-8.1 l 2.7,-4.8 -4.4,0.7 c -5.6,0.9 -8.5,2.8 -11,7 -2.1,3.5 -5.1,4.6 -11.8,4.4 -2.1,-0.1 -2.7,-0.3 -1.5,-0.6 3,-0.6 10.1,-6.8 12,-10.5 2.4,-4.6 0.9,-4.4 -1.7,0.2 -3.3,5.8 -9,9 -16.1,9 -5,0 -6.2,-0.5 -12.4,-4.9 C 80.9,229 71.3,215.8 62.3,195.7 59.4,189.2 57,183.7 57,183.4 c 0,-0.2 3.3,1.8 7.3,4.6 14,9.6 26.5,10.3 36,1.9 2.7,-2.3 5.2,-5.7 6.2,-8.3 1.5,-4 2.2,-4.5 6.2,-5.6 7.2,-1.8 14.2,-5.8 20.4,-11.7 10.7,-10.2 15.7,-24.1 14.4,-40.3 l -0.6,-8.5 3.4,3.4 c 2.1,1.9 3.8,4.7 4.2,6.7 z m -68.7,10.7 c -1.4,1.2 -2.8,2.9 -3.1,3.7 -0.4,1.2 -0.6,1.2 -0.6,-0.2 -0.1,-0.9 1.1,-2.6 2.5,-3.7 3.6,-2.8 4.6,-2.7 1.2,0.2 z m 10.5,3.2 c 2.3,3.1 6,3.2 10.5,0.5 3.9,-2.4 4,-1.3 0.6,4.6 -3.5,5.9 -5.1,6.6 -12.9,5.8 -5.4,-0.6 -6.9,-1.1 -8.5,-3.2 -2.6,-3.2 -2.5,-6.7 0.1,-9.3 2.7,-2.7 7.6,-1.9 10.2,1.6 z m 45.8,-0.2 c -1,0.9 -1.1,0.8 -0.5,-0.6 0.3,-1 0.9,-1.5 1.2,-1.2 0.3,0.3 0,1.1 -0.7,1.8 z m -11.2,9.7 c 0.6,0 2.7,-0.7 4.6,-1.4 1.9,-0.8 3.5,-1.3 3.5,-1 0,1.5 -6.5,9.6 -9.7,12.2 -3.9,3 -13.5,8.2 -15.2,8.2 -0.5,0 -1.2,-1.8 -1.6,-3.9 -0.7,-4 -3.6,-7.8 -5.3,-6.7 -0.5,0.3 -1.9,-0.2 -3.2,-1.1 l -2.3,-1.6 2.3,-1.9 c 2.4,-1.9 2.4,-1.9 6.3,2 l 4,4 4.8,-2 c 5.6,-2.4 6.8,-4.9 5.1,-10.5 l -1.1,-3.6 3.3,3.7 c 1.9,2 3.9,3.6 4.5,3.6 z m -71,0.7 c 1.9,5.4 6.7,12.8 10.5,16.1 2.6,2.3 3.4,3.9 3.8,7.6 0.7,5.8 5.4,11.2 10.6,12.2 4.4,0.9 9.7,-1.6 12,-5.6 1.6,-2.9 4.5,-4 5.6,-2.1 0.9,1.3 -6.5,9.2 -10.1,10.7 -3.8,1.7 -11.3,1.8 -16.5,0.4 -9.7,-2.7 -29.2,-19.4 -38,-32.5 l -4.7,-7 4.1,-0.3 c 4.3,-0.3 12.2,2.1 13.5,4 0.4,0.7 0,0.9 -1,0.5 -2.1,-0.8 -2.2,0.5 -0.3,4.2 1.9,3.5 5.2,5.8 10,6.7 l 3.8,0.7 -2.2,-4.4 c -2.7,-5.4 -5.8,-8.9 -7.9,-8.9 -0.9,-0.1 -2.7,-0.7 -4.1,-1.5 -2.2,-1.3 -2.3,-1.4 -0.5,-1.5 1.1,-0.1 3.6,-0.7 5.5,-1.4 1.9,-0.8 3.7,-1.4 4,-1.5 0.4,0 1.2,1.6 1.9,3.6 z m 27.1,3.2 c 0,0.5 -1,1.1 -2.2,1.4 -2.2,0.6 -2.2,0.6 -0.4,-0.8 2.3,-1.7 2.6,-1.8 2.6,-0.6 z m 16.2,2.8 c 1,0.9 1.8,2.7 1.8,4 0,1.4 1.3,3.8 2.9,5.4 2.4,2.4 2.6,2.9 1.1,2.9 -1,0 -2.3,-1.2 -3,-3 -0.7,-1.6 -3,-4.6 -5.1,-6.5 -2.2,-1.9 -3.9,-3.7 -3.9,-4 0,-1.2 4.5,-0.4 6.2,1.2 z m -5.2,3.2 c 2.9,2 6.3,8.2 5.2,9.3 -1.3,1.3 -12.1,-1.1 -18,-3.9 -4.7,-2.2 -5.2,-2.7 -3.9,-4 2.1,-2.1 8.9,-4.2 11.7,-3.6 1.4,0.3 3.6,1.3 5,2.2 z m -9.5,18.5 c 2.2,2 2.3,2.5 0.9,3 -3.1,1.2 -5.4,0.6 -8.3,-2.2 -1.6,-1.5 -3.2,-3.7 -3.6,-4.9 l -0.6,-2.2 4.5,2 c 2.5,1.1 5.7,3 7.1,4.3 z m 5.5,3.1 c -1.3,1.4 -3.1,2.5 -3.9,2.5 -1,-0.1 -0.6,-0.6 1,-1.5 1.5,-0.8 3,-2.2 3.3,-3.1 0.4,-0.9 0.9,-1.4 1.3,-1 0.4,0.3 -0.4,1.7 -1.7,3.1 z m 9.6,2.3 c -3.2,6.3 -11.4,11.2 -18.7,11.2 -3.5,0 -12,-2.6 -14.4,-4.5 -1.3,-1 -0.4,-0.8 2.7,0.5 9.6,4.1 17.5,3.6 24.6,-1.7 1.8,-1.4 4.1,-4 4.9,-5.9 0.9,-1.9 1.8,-3.2 2.1,-3 0.2,0.2 -0.3,1.7 -1.2,3.4 z m 199.8,5.4 c 4.9,6.9 -3.4,17.7 -19.1,24.9 -7.2,3.3 -11.6,4 -6.8,1.1 4.9,-3 12.4,-12 14.2,-17.2 1.3,-3.7 2,-4.6 3,-3.9 0.6,0.6 2.2,0.9 3.5,0.7 1.7,-0.2 2.3,-1 2.3,-2.8 0,-2.8 -3.2,-4.1 -4.6,-1.8 -0.7,1 -0.9,1 -0.9,-0.3 0,-2.2 0.9,-2.9 4.1,-2.9 1.7,0 3.4,0.8 4.3,2.2 z m -164.3,6.3 c -4.2,1.9 -5.2,1.9 -2.7,0 1.1,-0.8 2.9,-1.5 4,-1.5 1.6,0.1 1.2,0.5 -1.3,1.5 z M 305.5,212 c -0.9,1.4 -6.5,4.2 -6.5,3.3 0,-0.6 3.4,-2.7 6.8,-4.2 0.2,0 0,0.4 -0.3,0.9 z m -177.4,30 c -1.3,1.1 -2.8,2 -3.5,2 -0.6,0 0.3,-0.9 1.9,-1.9 3.9,-2.5 4.6,-2.5 1.6,-0.1 z m 19.6,15.8 c -3.1,3.4 -5.7,10.6 -5.7,16 0,3.3 -0.4,5.1 -1,4.7 -1.5,-0.9 -1.2,-9.1 0.6,-13.3 0.8,-2 2.7,-4.9 4.1,-6.5 2.9,-3 4.6,-3.8 2,-0.9 z m -97.1,8.4 c -1.7,16.6 -12.8,24.1 -22.6,15.2 -3.7,-3.4 -6.6,-9.6 -5.4,-11.6 0.9,-1.5 3.3,-0.8 4.4,1.3 2.6,4.7 10.4,4 11.7,-1.2 0.6,-2 2.4,-3.9 6.3,-6.3 3,-1.9 5.7,-3.4 5.9,-3.5 0.2,-0.1 0.1,2.7 -0.3,6.1 z m -16.1,-3.9 c 1.6,1.3 1.5,1.4 -1.2,1 -1.9,-0.3 -3.6,0.1 -4.6,1.1 -0.8,0.9 -2.3,1.6 -3.3,1.6 -3.4,0 2.5,-4.7 6.2,-4.9 0.5,-0.1 1.8,0.5 2.9,1.2 z m 81.2,1.3 c -0.3,0.3 -1.2,0.4 -1.9,0.1 -0.8,-0.3 -0.5,-0.6 0.6,-0.6 1.1,-0.1 1.7,0.2 1.3,0.5 z m 120.7,1 c 0.3,0.8 0.2,1.2 -0.4,0.9 -0.6,-0.3 -1,-1 -1,-1.6 0,-1.4 0.7,-1.1 1.4,0.7 z m 22.5,3.1 4.6,-0.4 -3.3,1.3 c -2.8,1.2 -3.7,1.2 -6.7,0 -1.9,-0.8 -3.5,-1.8 -3.5,-2.1 0,-0.3 1,-0.1 2.1,0.6 1.2,0.6 4.3,0.9 6.8,0.6 z m -7.8,9.3 c 5.2,1.4 9.7,0.8 15.2,-2 2.8,-1.5 3.7,-1.7 2.8,-0.6 -0.7,0.8 -3.2,2.3 -5.7,3.2 -8.7,3.3 -19,0 -24.5,-7.8 -2,-2.9 -1.6,-2.7 2.8,1.4 3.2,2.9 6.7,5.1 9.4,5.8 z m -29.7,37.5 c 1.8,6.3 6.5,16.3 9.7,20.3 2.8,3.7 2.3,4.9 -0.8,2.1 -1.6,-1.4 -4.7,-3.7 -7,-5.2 -3.7,-2.3 -4.3,-3.3 -5.4,-8.4 -1.6,-6.9 -1.8,-29.7 -0.4,-36.8 0.9,-4.6 1,-3.9 1.6,8.5 0.4,7.4 1.4,16.2 2.3,19.5 z m 66.8,-8.3 c 1.3,1.3 1.7,1.8 0.8,1.1 -0.8,-0.7 -2.7,-1.6 -4,-2.2 -1.7,-0.6 -1.9,-1 -0.8,-1 0.9,-0.1 2.7,0.9 4,2.1 z m -27.5,19.7 c 4.6,3.4 7.5,8.7 8.1,15.3 l 0.5,4.8 h -5.2 c -5.7,0 -6.5,-0.8 -5.3,-5.5 0.6,-2 1.6,-3.1 3,-3.3 3.5,-0.5 2.6,-1.8 -2.8,-4.1 -7.5,-3.2 -10.6,-3.6 -13.6,-1.6 -2.9,1.9 -7.4,1.3 -7.4,-1 0,-1 1.1,-1.5 3.3,-1.5 3.2,0 12.4,-3.6 11.5,-4.5 -0.3,-0.3 -1.9,0.2 -3.6,1.1 -1.8,0.8 -4.4,1.4 -5.9,1.2 l -2.8,-0.3 3,-1.7 c 1.7,-1 5.2,-1.7 8.1,-1.8 4.1,0 5.9,0.6 9.1,2.9 z M 39.6,343.5 c 0.9,3.8 2.9,9.9 4.5,13.4 2.3,5 2.6,6.6 1.7,7.3 -0.7,0.4 -1.6,0.8 -2,0.8 -1.2,0 -0.9,3.5 0.4,4.8 0.7,0.7 1.2,2.4 1.3,4 0,2.5 0.3,2.7 4.1,2.8 2.2,0 4.6,0.4 5.2,0.8 1.7,1.1 3.6,-3.2 2.1,-5 -0.9,-1.1 -0.8,-1.4 0.9,-1.4 2.4,0 3.7,-2.7 2.1,-4.6 -1.5,-1.9 -2.8,-1.8 -5.2,0.3 -1.9,1.7 -2,1.7 -0.8,-0.4 0.6,-1.2 1.1,-2.8 1.1,-3.6 0,-2.2 -3.1,-3 -5,-1.2 -1.6,1.4 -1.9,1.1 -4.3,-4.3 -2.4,-5.2 -4.4,-12.2 -6.1,-20.7 -0.4,-1.7 0.9,0.1 2.7,4 4.3,9 8.5,13.7 14.9,16.9 9.6,4.8 21.5,2.8 26.7,-4.5 l 2.8,-3.7 1.5,4.9 c 1.3,3.8 1.3,4.9 0.3,4.9 -0.7,0 -2.4,0.9 -3.9,2.1 -3,2.3 -3.5,7.1 -1.2,10.5 1.3,1.9 1.2,2.2 -2.5,4.5 -8.9,5.4 -12.2,16.2 -7.7,24.9 4.4,8.5 14.1,11.8 19.3,6.5 3,-2.9 3.2,-5.8 0.5,-8.5 -4.1,-4.1 -9.5,-1.3 -8.8,4.6 0.3,2.8 0.1,3.1 -1.3,2.3 -1.9,-1 -5.3,-6.2 -6.4,-9.7 -1.9,-6.4 2.2,-15.4 8.4,-18.7 2.3,-1.2 3.4,-1.1 8.1,0.6 3,1 7.8,1.8 10.6,1.9 8.7,0 10.3,4.3 2.2,5.9 -5.3,1 -5.3,1 -0.8,0.7 2.5,-0.2 5.2,-0.7 6.1,-1 1.2,-0.5 2.1,0.5 3.8,4.3 5.7,13.4 -0.5,27.9 -14.8,34.5 -7.2,3.3 -20.7,3 -28.3,-0.6 -7.3,-3.4 -15,-10.6 -19.4,-18.1 C 46.2,395.1 40.5,376 38,357.7 37.1,350.4 36.7,330 37.6,334.5 c 0.3,1.1 1.2,5.1 2,9 z M 240.1,334 c 1.9,1.1 2.7,4 1.1,4 -0.5,0 -1.9,-1.1 -3.2,-2.5 -2.4,-2.6 -1.4,-3.3 2.1,-1.5 z M 220,354.9 c 13.2,13.2 32,14.7 43.6,3.6 3.9,-3.7 5.3,-4.3 10.2,-4.9 l 5.7,-0.6 -6.2,2.9 c -7.8,3.7 -14.7,10.5 -18.1,17.9 -3.8,8.1 -3.8,19.3 0.1,27.4 5.1,10.5 14.5,16.7 25.5,16.8 10.1,0 18,-4.3 22.8,-12.6 10.3,-17.5 -8.6,-38.6 -25.4,-28.4 -9.5,5.8 -9.6,19.6 -0.2,24.5 8.1,4.2 16.7,-2.4 13.8,-10.5 -1.1,-3.2 -5.2,-6 -8.8,-6 -1.2,0 -3.5,1.3 -5.1,2.9 -2.8,2.8 -2.9,2.9 -2.9,0.7 0,-3.1 5.5,-8.4 9.6,-9.2 4.4,-0.8 8.6,0.9 12.3,5.1 5.5,6.3 5.3,14.1 -0.7,20.7 -4.5,5 -8.5,6.8 -15.2,6.8 -16.8,0 -27.6,-20 -19.7,-36.3 3.2,-6.4 9,-12 15.6,-15.1 3.6,-1.6 6.5,-2.1 13.6,-2.1 7.8,0 9.8,0.4 14.5,2.7 15.1,7.4 23.7,22.8 22.8,40.7 -0.6,11.7 -4.5,20 -13.7,29.1 -10.7,10.6 -21.8,15 -38,15 -11,0 -18.9,-1.8 -28.6,-6.7 -28.1,-14 -46.1,-43.4 -47.7,-77.8 l -0.3,-7 4,-0.5 c 3.4,-0.4 4.1,-0.9 4.9,-3.9 1.2,-4.2 0.1,-6.1 -4.5,-7.7 l -3.4,-1.2 3.1,-0.1 c 1.7,-0.1 3.7,-0.8 4.4,-1.6 1.1,-1.4 1.7,-0.7 4.2,4.5 1.6,3.3 5.1,8.2 7.8,10.9 z m 36,-14.5 c 0,1.8 -1.5,3.6 -3.1,3.6 -2.1,0 -2.2,-0.1 -1.3,-2.4 0.5,-1.4 4.4,-2.4 4.4,-1.2 z m -12.5,6 c 1.1,0.8 1.6,1.5 1,1.6 -0.5,0 -2.3,-1.2 -4,-2.6 -3.1,-2.6 -0.6,-1.8 3,1 z m 3.9,4.6 c 2.3,0 7.1,0.7 10.9,1.6 6.6,1.6 6.7,1.7 5,3.6 -4,4.5 -10.3,7.1 -17.9,7.6 -8.5,0.5 -8.1,1 -8.6,-9.9 l -0.3,-7.5 3.4,2.3 c 2.2,1.5 4.8,2.3 7.5,2.3 z m -157,10.6 c 0.9,0.3 1.6,1 1.6,1.5 0,0.4 -0.7,0.6 -1.5,0.3 -2.4,-1 -4.7,1.4 -3.4,3.7 1.3,2.5 4.4,2.4 6.2,-0.1 1.3,-1.9 1.5,-1.8 6.2,1.6 5.3,3.7 12.9,6.4 18.2,6.4 4.9,0 4,1.8 -1.3,2.6 -3.8,0.5 -5.4,0.2 -10.1,-2.2 -4.5,-2.2 -7,-2.8 -12.7,-2.9 -3.9,0 -7.6,-0.4 -8.2,-0.8 -2.1,-1.3 -2.6,-5.8 -0.9,-8.3 1.6,-2.4 3.1,-2.9 5.9,-1.8 z m 11.6,15 3.5,1.4 -5.7,-0.4 c -3.1,-0.3 -6.5,-0.9 -7.5,-1.5 -2.9,-1.7 5.5,-1.2 9.7,0.5 z m 18.2,3.5 c -1.8,1.2 -3.9,1.8 -4.9,1.5 -2.9,-1.2 0.6,-3 6.7,-3.4 0.8,-0.1 0,0.8 -1.8,1.9 z m -0.3,12.7 c 0.6,2 1.1,4.9 1.1,6.4 0,3.9 -3.6,12.8 -6.5,16.3 l -2.6,3 2.5,-4 c 5.2,-8.3 5.8,-18.1 1.6,-26.8 l -2.1,-4.2 2.5,2.8 c 1.4,1.5 3,4.4 3.5,6.5 z m 59.5,16.4 c -2.7,7.8 -10.9,13.9 -18.4,13.7 -3.1,-0.1 -3,-0.2 1.2,-0.9 2.7,-0.5 6.4,-1.8 8.3,-3 3.6,-2.2 8.5,-9.3 8.5,-12.3 0,-1 0.4,-1.7 1,-1.7 0.5,0 0.2,1.9 -0.6,4.2 z m -13.2,1.8 c -1.8,1.7 -4.2,3 -5.5,2.9 -1.7,-0.1 -1.6,-0.3 0.9,-1 1.7,-0.5 3.9,-1.8 4.9,-2.9 1,-1.1 2.1,-2 2.4,-2 0.3,0 -0.9,1.4 -2.7,3 z M 183,1 c 0,1.4 3.9,9 4.6,9 0.7,0 3.4,-6.6 3.4,-8.5 0,-1.1 -1.1,-1.5 -4,-1.5 -2.2,0 -4,0.5 -4,1 z m -71,1.1 c 7,5.7 11.5,7.1 15,4.9 1.2,-0.7 0.8,-1.1 -1.8,-1.6 C 123.4,5 121.7,4.3 121.3,3.7 121,3.1 121.2,3 121.8,3.4 c 4.1,2.5 25.4,1.2 31.2,-1.9 3.5,-2 0.4,-1.9 -5.1,0 -6.5,2.3 -17.2,2.4 -19.6,0.2 C 126.8,0.4 124.6,0 117.9,0 h -8.4 z M 71.6,4.3 C 68.7,10.6 59.1,19.6 51.8,23 l -6.3,2.9 4,0.1 C 55.1,26 63.9,23.6 70.8,20.1 77.6,16.6 90.9,6.4 93.3,2.6 L 95,0 H 84.3 L 73.5,0.1 Z M 45.5,5.8 C 41.8,13 29.6,25.3 21.1,30.5 17.6,32.6 11.5,35.6 7.6,37.1 3.3,38.8 0.4,40.5 0.2,41.5 -0.2,43.5 1,43.2 11.8,38.8 26.8,32.6 40.5,21.3 48.9,8.1 51.2,4.6 53,1.3 53,0.8 53,0.4 52,0 50.8,0 49,0 47.8,1.3 45.5,5.8 Z" />
    </defs>

    <use href="#flowers" transform="translate(0 0)" />
    <use href="#flowers" transform="translate(1950 1080) scale(-1 -1)" />
</svg>
