<?xml version="1.0" encoding="UTF-8" ?>
<!-- 
Base16-wallpaper project by Lodobo, https://github.com/Lodobo
Scheme: Black Metal by metalelf0 (https://github.com/metalelf0)

Logo: Hexagonal grid (c) Lodobo 2024

-->

<svg version="1.1" viewBox="0 0 1920 1080" width="1920" height="1080" xmlns="http://www.w3.org/2000/svg">
    <rect fill="#000000" height="100%" width="100%" />
	<defs>

    <filter id="shadow">
      <feDropShadow dx="2" dy="2" stdDeviation="1" flood-opacity="0.5" flood-color="#000000" />
    </filter>  
    
        <g fill="none" stroke="#5f8787" stroke-width="1">
            <pattern id="hex-grid-1" width="90" height="52" patternUnits="userSpaceOnUse">
                <path d="M 60 0 H 30 L 15 26 l 15 26 h 30 l 15-26 z M 75 26 h 15 M 0 26 h 15 M 75 26 h 15 M 0 26 h 15" />
            </pattern>
            <pattern id="hex-grid-2" width="180" height="104" patternUnits="userSpaceOnUse">
                <path d="M 120 0 H 60 L30 52 l 30 52 h 60 l 30-52 z M 150 52 h 30 M 0 52 h 30" />
            </pattern>
            <pattern id="hex-grid-3" width="120" height="69.333" patternUnits="userSpaceOnUse">
                <path d="M 80 0 H 40 L 20 34.666 l 20 34.666 h 40 l 20-34.666 z M 100 34.666 h 20 M 0 34.666 h 20" />
            </pattern>
            <pattern id="hex-grid-4" width="30" height="60" patternUnits="userSpaceOnUse">
                <path d="M 15 10 L 30 0 M 15 10 L 0 0 M 15 10 L 15 30 M 15 30 L 0 40 L 0 60 M 15 30 L 30 40 M 0 0 z" />
            </pattern>
            <pattern id="hex-grid-5" width="90" height="45" patternUnits="userSpaceOnUse">
                <path d="M 15 23 L 45 23 M 15 23 L 0 0 M 15 23 L 0 45 M 45 23 L 60 46 M 45 23 L 60 0 M 60 0 L 90 0 z" />
            </pattern>
        </g>
        <polygon id="hexagon" fill="none" stroke="#5f8787" stroke-wdith="1"  points="40 0, 20 30, -20 30, -40 0, -20 -30, 20 -30, 40 0" />
    </defs>

    <!-- <rect width="100%" height="100%" fill="url(#hex-grid-1)"/> -->

    <g filter="url(#shadow)">
    <g id="column" transform="translate(10 0) scale(2)">
        <use href="#hexagon" transform="translate(0 0)" />
        <use href="#hexagon" transform="translate(0 60)" />
        <use href="#hexagon" transform="translate(0 120)" />
        <use href="#hexagon" transform="translate(0 180)" />
        <use href="#hexagon" transform="translate(0 240)" />
        <use href="#hexagon" transform="translate(0 300)" />
        <use href="#hexagon" transform="translate(0 360)" />
        <use href="#hexagon" transform="translate(0 420)" />
        <use href="#hexagon" transform="translate(0 480)" />
        <use href="#hexagon" transform="translate(0 540)" />
    </g>
    <g id="quad-column">
        <use href="#column" transform="translate(120 60)" />
        <use href="#column" transform="translate(240 0)" />
        <use href="#column" transform="translate(360 60)" />
        <use href="#column" transform="translate(480 0)" />
    </g>
    <use href="#quad-column" transform="translate(480 0)" />
    <use href="#quad-column" transform="translate(960 0)" />
    <use href="#quad-column" transform="translate(1440 0)" />

    </g>

</svg>
