<?xml version="1.0" encoding="UTF-8" ?>
<!-- 
Base16-wallpaper project by Lodobo, https://github.com/Lodobo
Scheme: Black Metal (Burzum) by metalelf0 (https://github.com/metalelf0)

Wallpaper: Arch linux with textured background

Logo: Arch Linux © 2O21
-->
<svg height="1080" version="1.1" viewBox="0 0 1920 1080" width="1920" xmlns="http://www.w3.org/2000/svg">
    <defs>
        <symbol id="arch-linux-logo" x="50%" y="50%" width="500" height="500" viewBox="0 15 512 512">
            <path fill="#5f8787"
                d="M256 72c-14 35-23 57-39 91 10 11 22 23 41 36-21-8-35-17-45-26-21 43-53 103-117 220 50-30 90-48 127-55-2-7-3-14-3-22v-1c1-33 18-58 38-56 20 1 36 29 35 62l-2 17c36 7 75 26 125 54l-27-50c-13-10-27-23-55-38 19 5 33 11 44 17-86-159-93-180-122-250z" />
        </symbol>
        <pattern id="wave-pattern" width="35.584" height="30.585" patternUnits="userSpaceOnUse"
            patternTransform="scale(0.8) rotate(15)">
            <path stroke-width="1" stroke="none" fill="#343d46"
                d="M36.908 9.243c-5.014 0-7.266 3.575-7.266 7.117 0 3.376 2.45 5.726 5.959 5.726 1.307 0 2.45-.463 3.244-1.307.744-.811 1.125-1.903 1.042-3.095-.066-.811-.546-1.655-1.274-2.185-.596-.447-1.639-.894-3.162-.546-.48.1-.778.58-.662 1.06.1.48.58.777 1.06.661.695-.149 1.274-.066 1.705.249.364.265.546.645.562.893.05.679-.165 1.308-.579 1.755-.446.48-1.125.744-1.936.744-2.55 0-4.188-1.538-4.188-3.938 0-2.466 1.44-5.347 5.495-5.347 2.897 0 6.008 1.888 6.388 6.058.166 1.804.067 5.147-2.598 7.034a.868.868 0 00-.142.122c-1.311.783-2.87 1.301-4.972 1.301-4.088 0-6.123-1.952-8.275-4.021-2.317-2.218-4.7-4.518-9.517-4.518-4.094 0-6.439 1.676-8.479 3.545.227-1.102.289-2.307.17-3.596-.496-5.263-4.567-7.662-8.159-7.662-5.015 0-7.265 3.574-7.265 7.116 0 3.377 2.45 5.727 5.958 5.727 1.307 0 2.449-.463 3.243-1.308.745-.81 1.126-1.903 1.043-3.095-.066-.81-.546-1.654-1.274-2.184-.596-.447-1.639-.894-3.161-.546-.48.1-.778.58-.662 1.06.099.48.579.777 1.059.66.695-.148 1.275-.065 1.705.25.364.264.546.645.563.893.05.679-.166 1.307-.58 1.754-.447.48-1.125.745-1.936.745-2.549 0-4.188-1.539-4.188-3.939 0-2.466 1.44-5.345 5.495-5.345 2.897 0 6.008 1.87 6.389 6.057.163 1.781.064 5.06-2.504 6.96-1.36.864-2.978 1.447-5.209 1.447-4.088 0-6.124-1.952-8.275-4.021-2.317-2.218-4.7-4.518-9.516-4.518v1.787c4.088 0 6.123 1.953 8.275 4.022 2.317 2.218 4.7 4.518 9.516 4.518 4.8 0 7.2-2.3 9.517-4.518 2.151-2.069 4.187-4.022 8.275-4.022s6.124 1.953 8.275 4.022c2.318 2.218 4.701 4.518 9.517 4.518 4.8 0 7.2-2.3 9.516-4.518 2.152-2.069 4.188-4.022 8.276-4.022s6.123 1.953 8.275 4.022c2.317 2.218 4.7 4.518 9.517 4.518v-1.788c-4.088 0-6.124-1.952-8.275-4.021-2.318-2.218-4.701-4.518-9.517-4.518-4.103 0-6.45 1.683-8.492 3.556.237-1.118.304-2.343.184-3.656-.497-5.263-4.568-7.663-8.16-7.663z" />
            <path stroke-width="1" stroke="none" fill="#343d46"
                d="M23.42 41.086a.896.896 0 01-.729-.38.883.883 0 01.215-1.242c2.665-1.887 2.764-5.23 2.599-7.034-.38-4.187-3.492-6.058-6.389-6.058-4.055 0-5.495 2.88-5.495 5.346 0 2.4 1.639 3.94 4.188 3.94.81 0 1.49-.265 1.936-.745.414-.447.63-1.076.58-1.755-.017-.248-.2-.629-.547-.893-.43-.315-1.026-.398-1.704-.249a.868.868 0 01-1.06-.662.868.868 0 01.662-1.059c1.523-.348 2.566.1 3.161.546.729.53 1.209 1.374 1.275 2.185.083 1.191-.298 2.284-1.043 3.095-.794.844-1.936 1.307-3.244 1.307-3.508 0-5.958-2.35-5.958-5.726 0-3.542 2.25-7.117 7.266-7.117 3.591 0 7.663 2.4 8.16 7.663.347 3.79-.828 6.868-3.344 8.656a.824.824 0 01-.53.182zm0-30.585a.896.896 0 01-.729-.38.883.883 0 01.215-1.242c2.665-1.887 2.764-5.23 2.599-7.034-.381-4.187-3.493-6.058-6.389-6.058-4.055 0-5.495 2.88-5.495 5.346 0 2.4 1.639 3.94 4.188 3.94.81 0 1.49-.266 1.936-.746.414-.446.629-1.075.58-1.754-.017-.248-.2-.629-.547-.894-.43-.314-1.026-.397-1.705-.248A.868.868 0 0117.014.77a.868.868 0 01.662-1.06c1.523-.347 2.566.1 3.161.547.729.53 1.209 1.374 1.275 2.185.083 1.191-.298 2.284-1.043 3.095-.794.844-1.936 1.307-3.244 1.307-3.508 0-5.958-2.35-5.958-5.726 0-3.542 2.25-7.117 7.266-7.117 3.591 0 7.663 2.4 8.16 7.663.347 3.79-.828 6.868-3.344 8.656a.824.824 0 01-.53.182zm29.956 1.572c-4.8 0-7.2-2.3-9.517-4.518-2.151-2.069-4.187-4.022-8.275-4.022S29.46 5.486 27.31 7.555c-2.317 2.218-4.7 4.518-9.517 4.518-4.8 0-7.2-2.3-9.516-4.518C6.124 5.486 4.088 3.533 0 3.533s-6.124 1.953-8.275 4.022c-2.317 2.218-4.7 4.518-9.517 4.518-4.8 0-7.2-2.3-9.516-4.518-2.152-2.069-4.188-4.022-8.276-4.022V1.746c4.8 0 7.2 2.3 9.517 4.518 2.152 2.069 4.187 4.022 8.275 4.022s6.124-1.953 8.276-4.022C-7.2 4.046-4.816 1.746 0 1.746c4.8 0 7.2 2.3 9.517 4.518 2.151 2.069 4.187 4.022 8.275 4.022s6.124-1.953 8.275-4.022c2.318-2.218 4.7-4.518 9.517-4.518 4.8 0 7.2 2.3 9.517 4.518 2.151 2.069 4.187 4.022 8.275 4.022s6.124-1.953 8.275-4.022c2.317-2.218 4.7-4.518 9.517-4.518v1.787c-4.088 0-6.124 1.953-8.275 4.022-2.317 2.234-4.717 4.518-9.517 4.518z" />
        </pattern>
        <filter id="gaussian-blur">
            <feGaussianBlur in="SourceGraphic" stdDeviation="2" />
        </filter>
    </defs>
    <rect width="100%" height="100%" fill="#000000" />>
    <rect width="100%" height="100%" fill="url(#wave-pattern)" filter="url(#gaussian-blur)" />

    <g transform="translate(-250,-250)">
        <use href="#arch-linux-logo" />
    </g>
</svg>