<?xml version="1.0" encoding="UTF-8" ?>
<!-- 
Base16-wallpaper project by Lodobo, https://github.com/Lodobo
Scheme: Equilibrium Dark by Carlo Abelli

Wallpaper: clover pattern.

Assets:
- Fleur de lis: https://www.vecteezy.com/vector-art/86947-fleur-de-lis-vector-shapes
- Flower pattern: https://www.vecteezy.com/vector-art/8864770-simple-geometric-floral-pattern-black-and-white-minimalist-seamless-texture-with-flowers
-->
<svg version="1.0" xmlns="http://www.w3.org/2000/svg" width="1920" height="1080" viewBox="0 0 1920 1080">
    <defs>
        <symbol id="clover" width="100" height="100" viewBox="0 0 100 100">
            <path
                d="m 49.998,50.004 c 0,0 -12.435,26.296 -12.435,37.559 0,6.859 5.578,12.437 12.435,12.437 6.865,0 12.436,-5.578 12.436,-12.437 0,-11.263 -12.436,-37.559 -12.436,-37.559 z m 0,0 c 0,0 12.436,-26.297 12.436,-37.568 C 62.434,5.575 56.863,0 49.998,0 43.141,0 37.563,5.575 37.563,12.436 c 0,11.271 12.435,37.568 12.435,37.568 z m 0,0 c 0,0 -26.288,-12.436 -37.563,-12.436 C 5.5689,37.568 0,43.141 0,50.004 0,56.864 5.5689,62.43 12.435,62.43 23.71,62.43 49.998,50.004 49.998,50.004 Z m 0,0 c 0,0 26.3,-12.436 37.566,-12.436 6.865,0 12.436,5.573 12.436,12.436 0,6.86 -5.571,12.426 -12.436,12.426 -11.266,0 -37.566,-12.426 -37.566,-12.426" />
        </symbol>
        <symbol id="fancy-spade" width="100" height="100" viewBox="0 0 100 100">
            <path
                d="m 43.6,69.4 h 13.1 c 1.9,0 3.2,1.6 3.2,3.2 v 0 c 0,1.9 -1.3,3.2 -3.2,3.2 H 43.6 c -1.6,0 -3.2,-1.3 -3.2,-3.2 v 0 c 0,-1.6 1.6,-3.2 3.2,-3.2 z M 50,0.025 c 0,0 -11.2,16.075 -18.2,37.175 12.8,4.5 15,14.3 16,22.5 C 39.2,27.5 -0.48,41.7 5.92,65.8 7.52,71.6 18.1,82.2 29.6,79 42.4,75.7 38.2,57.8 27.7,60.2 21,61.4 20.7,71 27.4,72.6 21.9,74.2 16.8,62.1 26.4,57.2 33.1,53.7 43.3,57.8 44.9,68.5 H 50 v 0 h 5.1 C 57,57.9 67.2,53.7 73.9,57.2 83.5,62 78.4,74.2 72.6,72.5 79.3,70.9 79,61.3 72.3,60.1 61.8,57.5 58,75.7 70.4,78.9 82.2,82.1 92.8,71.5 94,65.8 101,41.6 61.2,27.5 52.6,59.7 53.5,51.4 55.4,41.6 68.5,37.1 61.5,16.1 50.3,0.025 50,0.025 Z M 44.9,76.7 C 44,81.2 41.7,85 36.6,87.6 46.8,88.2 50,99.7 50,100 v 0 c 0,0 0,0 0,0 0,0 0,0 0,0 C 50,99.7 53.5,88.2 63.7,87.6 58.6,85 56.1,81.2 55.4,76.7 H 50 v 0 z" />
        </symbol>
        <symbol id="hollow-rhombus" width="100" height="100" viewBox="0 0 100 100">
            <path id="rhombus" d="M 50,0 100,50 50,100 0,50 Z" mask="url(#clover-mask)" />
        </symbol>
        <symbol id="hollow-circle" width="100" height="100" viewBox="0 0 100 100">
            <circle cx="50%" cy="50%" r="45%" mask="url(#round-clover-mask)" />
        </symbol>
        <mask id="round-clover-mask" width="100" height="100">
            <rect width="100%" height="100%" fill="white" transform="scale(1)" />
            <circle cx="65" cy="35" r="10" />
            <circle cx="65" cy="65" r="10" />
            <circle cx="35" cy="65" r="10" />
            <circle cx="35" cy="35" r="10" />
        </mask>
        <mask id="clover-mask" width="100" height="100">
            <rect width="100%" height="100%" fill="white" transform="scale(1)" />
            <use href="#clover" fill="black" transform="scale(0.7) translate(21 21)" />
        </mask>
        <pattern id="clover-pattern" width="600" height="600" patternTransform="scale(0.32)" patternUnits="userSpaceOnUse" >
            <g stroke="none" fill="#f04339">
                <use href="#clover" transform="translate(-50 -50)" />
                <use href="#clover" transform="translate(250 -50)" />
                <use href="#clover" transform="translate(550 -50)" />
                <use href="#clover" transform="translate(-50 250)" />
                <use href="#clover" transform="translate(250 250)" />
                <use href="#clover" transform="translate(550 250)" />
                <use href="#clover" transform="translate(-50 550)" />
                <use href="#clover" transform="translate(250 550)" />
                <use href="#clover" transform="translate(550 550)" />
                <use href="#hollow-rhombus" transform="translate(100 100)" />
                <use href="#hollow-rhombus" transform="translate(400 400)" />
                <use href="#hollow-circle" transform="translate(400 100)" />
                <use href="#fancy-spade" transform="translate(100 400)" />
            </g>
        </pattern>
    </defs>
    <rect width="100%" height="100%" fill="#0c1118" />
    <rect width="100%" height="100%" fill="url(#clover-pattern)" />
</svg>